{"glyphs":{"0":{"ha":833,"x_min":218,"x_max":892,"o":"m 782 1000 q 838 991 817 1000 q 872 966 860 982 q 888 928 883 950 q 892 883 892 907 l 892 608 q 867 333 892 449 q 778 144 842 218 q 606 35 715 71 q 328 0 496 0 q 272 9 293 0 q 238 34 250 18 q 222 72 226 50 q 218 117 218 93 l 218 392 q 243 667 218 551 q 331 856 268 782 q 503 965 394 929 q 782 1000 613 1000 m 767 889 q 544 861 628 889 q 416 774 461 833 q 357 619 371 714 q 343 392 343 525 l 343 111 q 565 139 482 111 q 694 226 649 167 q 753 381 739 286 q 767 608 767 475 l 767 889 z "},"1":{"ha":833,"x_min":244,"x_max":865,"o":"m 269 0 q 300 86 269 61 q 367 111 331 111 l 506 111 l 506 681 q 405 605 465 632 q 272 578 344 578 q 253 586 261 578 q 244 606 244 594 l 244 661 q 253 681 244 672 q 272 689 261 689 q 385 715 339 689 q 460 775 431 740 q 501 845 489 810 q 514 900 514 881 l 514 986 l 581 986 q 639 969 618 986 q 660 913 660 951 q 651 863 660 890 q 629 810 643 836 l 629 111 l 865 111 q 835 25 865 50 q 768 0 804 0 l 269 0 z "},"2":{"ha":833,"x_min":207,"x_max":886,"o":"m 578 986 q 704 978 653 986 q 787 949 756 971 q 831 887 818 928 q 844 779 844 846 q 801 612 844 701 q 691 433 757 522 q 549 261 625 344 q 407 111 472 178 l 886 111 q 856 25 886 50 q 789 0 825 0 l 207 0 q 215 49 207 28 q 235 83 222 69 q 399 263 314 172 q 556 443 485 354 q 673 617 626 532 q 719 779 719 703 q 713 830 719 811 q 689 859 706 849 q 645 872 672 869 q 578 875 618 875 l 326 875 q 302 878 314 875 q 281 891 290 882 q 265 916 271 900 q 258 958 258 932 l 258 986 l 578 986 z "},"3":{"ha":833,"x_min":244,"x_max":867,"o":"m 571 986 q 697 979 646 986 q 780 953 749 972 q 824 898 811 933 q 838 807 838 863 q 830 753 838 783 q 806 691 822 724 q 764 626 789 658 q 704 569 739 594 l 742 569 q 805 562 781 569 q 843 540 829 554 q 862 505 857 525 q 867 458 867 485 l 867 444 q 839 245 867 329 q 751 107 811 161 q 597 26 692 53 q 369 0 503 0 q 306 10 331 0 q 268 37 282 21 q 249 72 254 53 q 244 111 244 92 l 369 111 q 544 125 474 111 q 659 178 615 139 q 722 289 703 218 q 742 472 742 360 l 454 472 q 396 485 422 472 q 369 538 369 497 l 369 569 l 485 569 q 577 593 535 569 q 649 653 619 617 q 696 730 679 689 q 713 807 713 771 q 682 863 713 850 q 571 875 651 875 l 340 875 q 316 878 328 875 q 294 891 304 882 q 278 916 285 900 q 272 958 272 932 l 272 986 l 571 986 z "},"4":{"ha":833,"x_min":204,"x_max":911,"o":"m 356 1000 q 439 991 414 1000 q 464 949 464 982 q 460 917 464 935 q 429 787 444 850 q 397 657 414 724 q 361 517 381 590 q 318 354 342 443 l 665 354 l 665 722 q 674 742 665 733 q 693 750 682 750 l 761 750 q 781 742 772 750 q 790 722 790 733 l 790 354 l 890 354 q 905 348 899 354 q 911 333 911 342 l 911 265 q 905 250 911 257 q 890 243 899 243 l 790 243 l 790 0 l 750 0 q 719 3 735 0 q 692 16 704 7 q 673 41 681 25 q 665 83 665 57 l 665 243 l 299 243 q 232 269 260 243 q 204 354 204 296 l 356 1000 z "},"5":{"ha":833,"x_min":231,"x_max":853,"o":"m 738 986 q 798 964 776 986 q 819 889 819 942 l 819 875 l 539 875 q 457 867 492 875 q 400 838 422 860 q 367 779 378 817 q 356 682 356 742 l 356 583 l 728 583 q 791 574 767 583 q 829 547 815 564 q 848 508 843 531 q 853 458 853 485 l 853 444 q 825 245 853 329 q 738 107 797 161 q 583 26 678 53 q 356 0 489 0 q 292 10 317 0 q 254 37 268 21 q 235 72 240 53 q 231 111 231 92 l 356 111 q 531 125 460 111 q 645 178 601 139 q 708 289 689 218 q 728 472 728 360 l 315 472 q 257 485 283 472 q 231 538 231 497 l 231 682 q 299 912 231 838 q 535 986 368 986 l 738 986 z "},"6":{"ha":833,"x_min":231,"x_max":881,"o":"m 756 597 q 819 588 794 597 q 857 561 843 578 q 876 522 871 544 q 881 472 881 499 l 881 458 q 752 113 881 226 q 356 0 624 0 q 292 10 317 0 q 254 36 268 19 q 235 76 240 53 q 231 125 231 99 l 231 433 q 253 700 231 592 q 334 875 275 808 q 497 971 393 942 q 765 1000 601 1000 q 826 978 804 1000 q 847 903 847 956 l 847 889 l 765 889 q 563 872 640 889 q 440 815 485 856 q 378 706 396 774 q 357 535 361 638 q 432 581 386 565 q 546 597 478 597 l 756 597 m 546 486 q 462 478 497 486 q 403 451 426 471 q 367 396 379 432 q 356 304 356 360 l 356 111 q 535 128 460 111 q 659 186 610 144 q 732 301 708 228 q 756 486 756 374 l 546 486 z "},"7":{"ha":875,"x_min":258,"x_max":911,"o":"m 817 986 q 883 960 856 986 q 911 875 911 933 l 550 -14 q 467 -5 492 -14 q 442 38 442 4 q 459 94 442 49 q 505 209 476 140 q 571 363 533 278 q 647 537 608 447 q 724 714 686 626 q 792 875 761 801 l 326 875 q 302 878 314 875 q 281 891 290 882 q 265 916 271 900 q 258 958 258 932 l 258 986 l 817 986 z "},"8":{"ha":833,"x_min":233,"x_max":876,"o":"m 233 265 q 303 469 233 401 q 258 510 269 483 q 247 572 247 538 q 283 765 247 685 q 383 898 318 846 q 543 975 449 950 q 756 1000 638 1000 q 817 991 793 1000 q 853 967 840 982 q 872 931 867 951 q 876 886 876 910 l 876 735 q 862 617 876 667 q 815 532 847 567 q 864 492 851 519 q 876 428 876 464 q 839 235 876 315 q 733 102 801 154 q 569 25 665 50 q 354 0 472 0 q 293 9 317 0 q 256 33 269 18 q 238 69 243 49 q 233 114 233 90 l 233 265 m 556 451 q 472 444 508 451 q 410 416 435 436 q 372 361 385 396 q 358 272 358 326 l 358 111 q 533 126 458 111 q 658 181 608 142 q 733 285 708 219 q 758 451 758 351 l 556 451 m 568 549 q 650 556 615 549 q 707 584 685 564 q 740 639 729 604 q 751 728 751 674 l 751 889 q 578 874 651 889 q 458 819 506 858 q 388 715 411 781 q 365 549 365 649 l 568 549 z "},"9":{"ha":833,"x_min":240,"x_max":869,"o":"m 746 986 q 808 976 783 986 q 846 950 832 967 q 865 910 860 933 q 869 861 869 888 l 869 567 q 847 300 869 408 q 766 125 825 192 q 603 29 707 58 q 335 0 499 0 q 274 22 296 0 q 253 97 253 44 l 253 111 l 335 111 q 549 131 468 111 q 672 198 629 150 q 729 326 715 246 q 744 528 743 407 q 596 423 688 457 q 361 389 504 389 q 300 399 324 389 q 263 425 276 408 q 245 465 250 442 q 240 514 240 488 l 240 682 q 309 912 240 838 q 544 986 378 986 l 746 986 m 549 875 q 467 867 501 875 q 410 838 432 860 q 376 779 388 817 q 365 682 365 742 l 365 500 q 538 516 465 500 q 658 574 611 532 q 728 690 706 617 q 751 875 751 763 l 549 875 z "},"\u0000":{"ha":0,"x_min":0,"x_max":0,"o":""},"\r":{"ha":556,"x_min":0,"x_max":0,"o":""}," ":{"ha":556,"x_min":0,"x_max":0,"o":""},"p":{"ha":1093,"x_min":219,"x_max":1357,"o":"m 264 722 q 272 742 264 733 q 292 750 281 750 l 360 750 q 380 742 371 750 q 389 722 389 733 l 389 471 q 477 597 428 540 q 581 693 526 653 q 691 756 635 733 q 801 778 747 778 q 862 768 838 778 q 901 742 886 758 q 921 702 915 725 q 926 653 926 679 l 926 304 q 904 190 926 246 q 819 97 882 135 l 1357 97 q 1349 48 1357 67 q 1326 19 1340 29 q 1295 4 1313 8 q 1260 0 1278 0 l 558 0 q 528 3 543 0 q 501 16 513 7 q 482 41 489 25 q 475 83 475 57 l 475 97 l 601 97 q 694 119 656 97 q 756 172 732 140 q 790 240 779 204 q 801 304 801 275 l 801 667 q 681 631 751 667 q 546 522 611 594 q 435 342 481 450 q 389 88 389 233 l 389 -417 l 365 -417 q 253 -391 288 -417 q 219 -299 219 -365 q 232 -133 219 -225 q 264 53 244 -42 l 264 722 z "},"m":{"ha":1561,"x_min":235,"x_max":1825,"o":"m 339 0 q 235 126 235 0 q 242 199 235 164 q 264 265 250 233 l 264 722 q 272 742 264 733 q 292 750 281 750 l 361 750 q 381 742 372 750 q 389 722 389 733 l 389 482 q 470 603 425 549 q 564 697 515 658 q 663 756 613 735 q 760 778 713 778 q 820 768 796 778 q 859 742 844 758 q 879 702 874 725 q 885 653 885 679 l 885 482 q 966 603 921 549 q 1060 697 1011 658 q 1158 756 1108 735 q 1256 778 1208 778 q 1316 768 1292 778 q 1355 742 1340 758 q 1375 702 1369 725 q 1381 653 1381 679 l 1381 97 l 1825 97 q 1817 48 1825 67 q 1794 19 1808 29 q 1763 4 1781 8 q 1728 0 1746 0 l 1339 0 q 1308 3 1324 0 q 1281 16 1293 7 q 1263 41 1269 25 q 1256 83 1256 57 l 1256 667 q 1146 631 1210 667 q 1024 522 1082 594 q 926 342 967 450 q 885 88 885 233 l 885 0 l 843 0 q 758 30 785 0 q 731 126 731 60 q 738 199 731 164 q 760 265 746 233 l 760 667 q 650 631 714 667 q 528 522 586 594 q 430 342 471 450 q 389 88 389 233 l 389 0 l 339 0 z "},"r":{"ha":992,"x_min":160,"x_max":1256,"o":"m 281 17 q 257 0 274 0 l 179 0 q 160 18 160 0 q 165 40 160 28 l 240 235 q 258 306 254 269 q 261 381 261 343 l 261 639 q 186 668 211 639 q 161 739 161 697 q 186 810 161 781 q 261 840 211 840 q 334 814 308 840 q 363 750 360 788 l 543 750 q 697 736 640 750 q 782 690 754 722 q 817 605 810 658 q 825 472 825 551 l 825 97 l 1256 97 q 1247 48 1256 67 q 1225 19 1239 29 q 1194 4 1211 8 q 1158 0 1176 0 l 785 0 q 754 3 769 0 q 727 16 739 7 q 708 41 715 25 q 700 83 700 57 l 700 472 q 696 554 700 522 q 676 605 692 586 q 628 631 660 624 q 543 639 597 639 l 379 639 l 379 381 q 371 285 379 333 q 346 192 363 236 l 281 17 z "},"a":{"ha":1079,"x_min":264,"x_max":1343,"o":"m 389 104 q 463 119 422 104 q 547 163 504 133 q 630 238 589 193 q 702 345 671 283 q 753 486 733 407 q 772 663 772 565 l 772 750 l 822 750 q 926 624 926 750 q 918 551 926 586 q 897 485 910 517 l 897 97 l 1343 97 q 1335 48 1343 67 q 1313 19 1326 29 q 1281 4 1299 8 q 1246 0 1264 0 l 857 0 q 826 3 842 0 q 799 16 811 7 q 780 41 788 25 q 772 83 772 57 l 772 275 q 689 158 735 210 q 593 69 643 106 q 491 13 543 33 q 389 -7 439 -7 q 328 3 353 -7 q 290 29 304 13 q 269 69 275 46 q 264 118 264 92 l 264 460 q 281 595 264 538 q 335 690 297 653 q 433 746 372 728 q 579 764 493 764 q 671 742 639 764 q 703 667 703 719 l 703 653 l 579 653 q 494 645 529 653 q 435 616 458 638 q 400 557 411 594 q 389 460 389 519 l 389 104 z "},"e":{"ha":888,"x_min":208,"x_max":1151,"o":"m 335 278 q 340 181 335 217 q 364 126 344 144 q 423 102 383 107 q 532 97 463 97 l 1151 97 q 1143 48 1151 67 q 1121 19 1135 29 q 1090 4 1107 8 q 1054 0 1072 0 l 532 0 q 353 12 418 0 q 256 55 289 24 q 216 140 224 86 q 208 278 208 193 l 208 335 q 224 536 208 454 q 294 669 240 618 q 448 742 347 719 q 719 764 549 764 q 818 728 792 764 q 844 640 844 692 q 824 463 844 533 q 761 351 804 393 q 651 293 718 310 q 489 276 583 276 q 435 291 451 276 q 419 349 419 306 l 419 378 l 529 382 q 617 392 581 383 q 676 428 653 401 q 709 508 699 456 q 719 653 719 561 q 517 643 593 653 q 401 600 442 633 q 347 503 360 567 q 335 333 335 440 l 335 278 z "},"M":{"ha":1657,"x_min":193,"x_max":1921,"o":"m 297 0 q 193 126 193 0 q 201 199 193 164 q 222 265 208 233 l 222 958 q 231 978 222 969 q 250 986 239 986 l 319 986 q 339 978 331 986 q 347 958 347 969 l 347 515 q 444 701 390 613 q 558 856 499 789 q 676 961 617 922 q 788 1000 735 1000 q 848 990 824 1000 q 887 964 872 981 q 907 924 901 947 q 913 875 913 901 l 913 515 q 1010 701 956 613 q 1123 856 1064 789 q 1241 961 1182 922 q 1353 1000 1300 1000 q 1413 990 1389 1000 q 1452 964 1438 981 q 1472 924 1467 947 q 1478 875 1478 901 l 1478 97 l 1921 97 q 1913 48 1921 67 q 1890 19 1904 29 q 1859 4 1876 8 q 1824 0 1842 0 l 1435 0 q 1403 3 1418 0 q 1378 16 1389 7 q 1360 41 1367 25 q 1353 83 1353 57 l 1353 889 q 1278 856 1322 889 q 1184 767 1233 824 q 1087 634 1135 711 q 1000 467 1039 557 q 937 281 961 378 q 913 88 913 185 l 913 0 l 871 0 q 785 30 813 0 q 758 126 758 60 q 766 199 758 164 q 788 265 774 233 l 788 889 q 713 856 757 889 q 619 767 668 824 q 522 634 569 711 q 435 467 474 557 q 372 281 396 378 q 347 88 347 185 l 347 0 l 297 0 z "},"t":{"ha":613,"x_min":83,"x_max":876,"o":"m 390 639 l 390 97 l 876 97 q 868 48 876 67 q 846 19 860 29 q 815 4 832 8 q 779 0 797 0 l 349 0 q 318 3 333 0 q 291 16 303 7 q 272 41 279 25 q 264 83 264 57 l 264 639 l 83 639 q 114 725 83 700 q 181 750 144 750 l 264 750 l 264 944 q 272 964 264 956 q 292 972 281 972 l 361 972 q 381 964 372 972 q 390 944 389 956 l 390 750 l 626 750 q 596 664 626 689 q 529 639 565 639 l 390 639 z "},"c":{"ha":860,"x_min":194,"x_max":1124,"o":"m 808 615 q 803 549 808 579 q 785 497 799 519 q 745 463 771 475 q 678 450 719 450 l 678 667 q 517 647 585 667 q 406 583 450 628 q 342 463 363 538 q 321 278 321 389 q 326 181 321 217 q 350 126 331 144 q 409 102 369 107 q 518 97 449 97 l 1124 97 q 1115 48 1124 67 q 1093 19 1107 29 q 1062 4 1079 8 q 1026 0 1044 0 l 518 0 q 340 12 404 0 q 242 55 275 24 q 202 140 210 86 q 194 278 194 193 q 310 654 194 531 q 647 778 425 778 q 728 766 697 778 q 778 732 760 754 q 802 680 796 710 q 808 615 808 650 z "},"u":{"ha":1065,"x_min":264,"x_max":1329,"o":"m 389 104 q 503 137 439 104 q 624 238 567 169 q 719 412 681 307 q 758 663 758 517 l 758 750 l 808 750 q 913 624 913 750 q 904 551 913 586 q 883 485 896 517 l 883 97 l 1329 97 q 1321 48 1329 67 q 1299 19 1313 29 q 1267 4 1285 8 q 1232 0 1250 0 l 843 0 q 813 3 828 0 q 785 16 797 7 q 766 41 774 25 q 758 83 758 57 l 758 267 q 678 153 722 204 q 587 67 635 103 q 488 13 539 32 q 389 -7 438 -7 q 328 3 353 -7 q 290 29 304 13 q 269 69 275 46 q 264 118 264 92 l 264 722 q 272 742 264 733 q 292 750 281 750 l 360 750 q 380 742 371 750 q 389 722 389 733 l 389 104 z "},"g":{"ha":1079,"x_min":264,"x_max":1343,"o":"m 703 653 l 579 653 q 494 645 529 653 q 435 616 458 638 q 400 557 411 594 q 389 460 389 519 l 389 104 q 463 119 422 104 q 547 163 504 133 q 630 238 589 193 q 702 345 671 283 q 753 486 733 407 q 772 663 772 565 l 772 750 l 822 750 q 926 624 926 750 q 918 551 926 586 q 897 485 910 517 l 897 97 l 1343 97 q 1335 48 1343 67 q 1313 19 1326 29 q 1281 4 1299 8 q 1246 0 1264 0 l 896 0 q 870 -211 893 -128 q 803 -343 847 -294 q 690 -411 758 -392 q 526 -431 621 -431 q 465 -408 482 -431 q 449 -335 449 -386 l 449 -319 l 526 -319 q 638 -309 592 -319 q 715 -262 685 -299 q 758 -153 744 -225 q 772 42 772 -82 l 772 275 q 689 158 735 210 q 593 69 643 106 q 491 13 543 33 q 389 -7 439 -7 q 328 3 353 -7 q 290 29 304 13 q 269 69 275 46 q 264 118 264 92 l 264 460 q 281 595 264 538 q 335 690 297 653 q 433 746 372 728 q 579 764 493 764 q 671 742 639 764 q 703 667 703 719 l 703 653 z "},"h":{"ha":1093,"x_min":235,"x_max":1357,"o":"m 339 0 q 235 126 235 0 q 242 199 235 164 q 264 265 250 233 l 264 1028 q 272 1047 264 1039 q 292 1056 281 1056 l 361 1056 q 381 1047 372 1056 q 389 1028 389 1039 l 389 472 q 476 597 428 540 q 576 694 524 654 q 683 756 629 733 q 788 778 738 778 q 848 768 824 778 q 887 742 872 758 q 907 702 901 725 q 913 653 913 679 l 913 97 l 1357 97 q 1349 48 1357 67 q 1326 19 1340 29 q 1295 4 1313 8 q 1260 0 1278 0 l 871 0 q 840 3 856 0 q 813 16 825 7 q 794 41 801 25 q 788 83 788 57 l 788 667 q 669 631 738 667 q 539 522 601 594 q 433 342 476 450 q 389 88 389 233 l 389 0 l 339 0 z "},"y":{"ha":1065,"x_min":264,"x_max":1329,"o":"m 389 111 q 501 143 439 111 q 619 242 564 175 q 713 413 675 308 q 751 663 751 517 l 751 750 l 786 750 q 872 720 844 750 q 899 624 899 690 q 890 551 899 586 q 869 485 882 517 l 869 97 l 1329 97 q 1321 48 1329 67 q 1299 19 1313 29 q 1267 4 1285 8 q 1232 0 1250 0 l 868 0 q 842 -211 865 -128 q 775 -343 819 -294 q 662 -411 731 -392 q 499 -431 593 -431 q 438 -408 454 -431 q 421 -335 421 -386 l 421 -319 l 499 -319 q 610 -309 564 -319 q 687 -262 657 -299 q 731 -153 717 -225 q 744 42 744 -82 l 744 263 q 666 153 710 201 q 572 71 622 106 q 469 18 522 36 q 360 0 415 0 q 285 15 307 0 q 264 71 264 29 l 264 722 q 272 742 264 733 q 292 750 281 750 l 360 750 q 380 742 371 750 q 389 722 389 733 l 389 111 z "},"b":{"ha":1092,"x_min":235,"x_max":1356,"o":"m 347 0 q 262 30 289 0 q 235 126 235 60 q 242 199 235 164 q 264 265 250 233 l 264 1028 q 272 1047 264 1039 q 292 1056 281 1056 l 361 1056 q 381 1047 372 1056 q 389 1028 389 1039 l 389 481 q 477 602 428 547 q 581 696 526 657 q 691 756 635 735 q 801 778 747 778 q 862 768 838 778 q 901 742 886 758 q 921 702 915 725 q 926 653 926 679 l 926 304 q 904 190 926 246 q 819 97 882 135 l 1356 97 q 1347 48 1356 67 q 1325 19 1339 29 q 1294 4 1311 8 q 1258 0 1276 0 l 558 0 q 528 3 543 0 q 501 16 513 7 q 482 41 489 25 q 475 83 475 57 l 475 97 l 611 97 q 699 119 663 97 q 758 172 735 140 q 791 240 781 204 q 801 304 801 276 l 801 667 q 681 631 751 667 q 546 522 611 594 q 435 342 481 450 q 389 88 389 233 l 389 0 l 347 0 z "},"i":{"ha":571,"x_min":242,"x_max":835,"o":"m 835 97 q 826 48 835 67 q 804 19 818 29 q 773 4 790 8 q 738 0 756 0 l 349 0 q 318 3 333 0 q 291 16 303 7 q 272 41 279 25 q 264 83 264 57 l 264 722 q 272 742 264 733 q 292 750 281 750 l 360 750 q 379 742 371 750 q 389 722 388 733 l 389 97 l 835 97 m 242 978 q 258 1038 242 1013 q 326 1064 275 1064 q 394 1038 376 1064 q 413 978 413 1013 q 394 917 413 942 q 326 893 376 893 q 258 917 275 893 q 242 978 242 942 z "},"s":{"ha":800,"x_min":68,"x_max":1064,"o":"m 264 739 q 289 810 264 781 q 364 840 314 840 q 440 810 414 840 q 465 739 465 781 q 462 708 465 721 q 456 685 458 694 l 543 617 q 617 557 578 589 q 687 488 656 525 q 739 404 718 450 q 760 304 760 358 q 738 190 760 246 q 653 97 715 135 l 1064 97 q 1056 48 1064 67 q 1033 19 1047 29 q 1002 4 1019 8 q 967 0 985 0 l 447 0 q 417 3 432 0 q 390 16 401 7 q 371 41 378 25 q 364 83 364 57 l 364 97 l 410 97 q 517 117 474 97 q 586 168 560 138 q 624 235 613 199 q 635 304 635 271 q 625 363 635 338 q 599 411 615 389 q 560 451 582 433 q 514 489 538 469 l 414 567 l 189 17 q 165 0 182 0 l 88 0 q 68 18 68 0 q 74 40 68 28 l 318 643 l 296 661 q 264 739 264 689 z "},"f":{"ha":571,"x_min":-60,"x_max":918,"o":"m 264 639 l 83 639 q 114 725 83 700 q 181 750 144 750 l 271 750 q 308 905 282 843 q 380 1003 335 967 q 488 1055 425 1040 q 635 1069 551 1069 q 696 1047 679 1069 q 713 974 713 1025 l 713 958 l 635 958 q 541 952 582 958 q 471 924 500 946 q 423 861 442 903 q 396 750 404 819 l 918 750 q 888 664 918 689 q 821 639 857 639 l 389 639 l 389 42 q 368 -191 389 -100 q 302 -335 347 -282 q 187 -410 257 -389 q 18 -431 117 -431 q -43 -408 -26 -431 q -60 -335 -60 -386 l -60 -319 l 18 -319 q 130 -309 83 -319 q 206 -262 176 -299 q 250 -153 236 -225 q 264 42 264 -82 l 264 639 z "},"d":{"ha":1079,"x_min":264,"x_max":1343,"o":"m 389 104 q 463 119 422 104 q 547 163 504 133 q 630 238 589 193 q 702 345 671 283 q 753 486 733 407 q 772 663 772 565 l 772 1056 l 796 1056 q 908 1030 874 1056 q 942 938 942 1004 q 929 772 942 864 q 897 586 917 681 l 897 97 l 1343 97 q 1335 48 1343 67 q 1313 19 1326 29 q 1281 4 1299 8 q 1246 0 1264 0 l 857 0 q 826 3 842 0 q 799 16 811 7 q 780 41 788 25 q 772 83 772 57 l 772 275 q 689 158 735 210 q 593 69 643 106 q 491 13 543 33 q 389 -7 439 -7 q 328 3 353 -7 q 290 29 304 13 q 269 69 275 46 q 264 118 264 92 l 264 460 q 281 595 264 538 q 335 690 297 653 q 433 746 372 728 q 579 764 493 764 q 671 742 639 764 q 703 667 703 719 l 703 653 l 579 653 q 494 645 529 653 q 435 616 458 638 q 400 557 411 594 q 389 460 389 519 l 389 104 z "},"N":{"ha":1121,"x_min":193,"x_max":1385,"o":"m 306 0 q 220 30 247 0 q 193 126 193 60 q 201 199 193 164 q 222 265 208 233 l 222 958 q 231 978 222 969 q 250 986 239 986 l 319 986 q 339 978 331 986 q 347 958 347 969 l 347 504 q 449 694 392 604 q 568 851 506 783 q 694 960 631 919 q 815 1000 758 1000 q 876 990 851 1000 q 915 964 900 981 q 935 924 929 947 q 940 875 940 901 l 940 97 l 1385 97 q 1376 48 1385 67 q 1354 19 1368 29 q 1323 4 1340 8 q 1288 0 1306 0 l 899 0 q 868 3 883 0 q 841 16 853 7 q 822 41 829 25 q 815 83 815 57 l 815 889 q 735 856 782 889 q 635 767 688 824 q 532 634 583 711 q 440 467 481 557 q 373 281 399 378 q 347 88 347 185 l 347 0 l 306 0 z "},"k":{"ha":931,"x_min":235,"x_max":1194,"o":"m 347 0 q 262 30 289 0 q 235 126 235 60 q 242 199 235 164 q 264 265 250 233 l 264 1028 q 272 1047 264 1039 q 292 1056 281 1056 l 361 1056 q 381 1047 372 1056 q 389 1028 389 1039 l 389 503 q 468 617 424 565 q 560 703 513 668 q 659 758 608 739 q 758 778 710 778 q 819 768 794 778 q 858 742 843 758 q 878 702 872 725 q 883 653 883 679 l 883 626 q 839 374 883 458 q 690 264 794 289 l 796 97 l 1194 97 q 1186 48 1194 67 q 1164 19 1178 29 q 1133 4 1150 8 q 1097 0 1115 0 l 772 0 q 733 5 753 0 q 703 28 714 10 l 568 251 q 483 267 508 251 q 458 335 458 282 l 458 349 l 568 349 q 653 360 618 349 q 713 401 689 371 q 747 486 736 432 q 758 626 758 540 l 758 667 q 644 634 708 667 q 524 533 581 601 q 428 359 467 464 q 389 108 389 254 l 389 0 l 347 0 z "},"L":{"ha":708,"x_min":83,"x_max":972,"o":"m 615 1000 q 676 976 663 1000 q 690 925 690 953 l 690 889 l 593 889 q 481 878 528 889 q 405 831 435 868 q 361 722 375 794 q 347 528 347 650 l 347 97 l 972 97 q 964 48 972 67 q 942 19 956 29 q 910 4 928 8 q 875 0 893 0 l 181 0 q 145 4 163 0 q 114 19 128 8 q 92 48 100 29 q 83 97 83 67 l 222 97 l 222 528 q 243 760 222 669 q 309 905 264 851 q 424 979 354 958 q 593 1000 494 1000 l 615 1000 z "},"x":{"ha":938,"x_min":111,"x_max":1201,"o":"m 811 0 q 765 4 789 0 q 712 28 740 8 q 649 86 683 47 q 571 194 614 125 l 508 293 l 447 194 q 369 85 404 125 q 306 27 335 46 q 253 4 278 8 q 207 0 229 0 q 160 3 178 0 q 131 16 142 7 q 115 41 119 25 q 111 82 111 57 l 111 97 l 171 97 q 217 103 196 97 q 260 128 238 108 q 309 184 282 147 q 375 283 336 221 l 444 394 l 408 453 q 343 552 369 515 q 295 608 317 589 q 251 633 274 628 q 199 639 229 639 l 139 639 l 139 654 q 156 728 139 706 q 217 750 172 750 q 288 744 257 750 q 347 717 318 738 q 407 659 376 697 q 479 556 438 621 l 517 496 l 553 556 q 624 660 593 621 q 682 719 654 699 q 740 744 710 739 q 811 750 771 750 q 872 728 856 750 q 889 654 889 706 l 889 639 l 829 639 q 776 633 799 639 q 730 608 753 628 q 680 552 707 589 q 615 453 653 515 l 581 394 l 651 283 q 717 185 690 222 q 766 129 744 149 q 807 103 788 110 q 851 97 826 97 l 1201 97 q 1193 48 1201 67 q 1171 19 1185 29 q 1140 4 1157 8 q 1104 0 1122 0 l 811 0 z "},"q":{"ha":1078,"x_min":264,"x_max":1342,"o":"m 389 104 q 463 119 422 104 q 547 163 504 133 q 630 238 589 193 q 702 345 671 283 q 753 486 733 407 q 772 663 772 565 l 772 750 l 822 750 q 926 624 926 750 q 918 551 926 586 q 897 485 910 517 l 897 97 l 1342 97 q 1333 48 1342 67 q 1311 19 1325 29 q 1280 4 1297 8 q 1244 0 1263 0 l 897 0 l 897 -417 l 874 -417 q 762 -391 796 -417 q 728 -299 728 -365 q 740 -133 728 -225 q 772 53 753 -42 l 772 275 q 689 158 735 210 q 593 69 643 106 q 491 13 543 33 q 389 -7 439 -7 q 328 3 353 -7 q 290 29 304 13 q 269 69 275 46 q 264 118 264 92 l 264 460 q 281 595 264 538 q 335 690 297 653 q 433 746 372 728 q 579 764 493 764 q 671 742 639 764 q 703 667 703 719 l 703 653 l 579 653 q 494 645 529 653 q 435 616 458 638 q 400 557 411 594 q 389 460 389 519 l 389 104 z "},"E":{"ha":963,"x_min":213,"x_max":1226,"o":"m 1226 97 q 1218 48 1226 67 q 1196 19 1210 29 q 1165 4 1182 8 q 1129 0 1147 0 l 338 0 q 288 3 311 0 q 249 19 265 7 q 222 53 232 31 q 213 111 213 75 q 222 180 213 142 q 249 258 231 218 q 293 339 267 299 q 356 415 319 379 q 310 420 331 415 q 274 437 289 425 q 249 470 258 449 q 240 526 240 492 q 263 631 240 576 q 328 739 286 686 q 431 839 371 792 q 564 922 490 886 q 723 979 638 958 q 903 1000 808 1000 q 964 976 950 1000 q 978 925 978 953 l 978 889 l 903 889 q 653 849 757 889 q 482 750 549 808 q 383 628 415 692 q 351 519 351 565 l 500 519 q 587 549 540 539 q 686 560 633 560 q 733 553 710 560 q 776 529 757 546 q 808 485 796 513 q 819 415 819 457 l 539 415 q 436 342 478 383 q 369 256 394 300 q 334 171 344 213 q 324 97 324 129 l 1226 97 z "},"C":{"ha":771,"x_min":118,"x_max":1035,"o":"m 1035 97 q 1026 48 1035 67 q 1004 19 1018 29 q 973 4 990 8 q 938 0 956 0 l 243 0 q 194 3 217 0 q 154 19 171 7 q 128 53 138 31 q 118 111 118 75 q 172 527 118 357 q 314 802 226 697 q 513 953 401 907 q 739 1000 624 1000 q 800 976 786 1000 q 814 925 814 953 l 814 889 l 739 889 q 527 835 619 889 q 372 681 435 782 q 276 432 308 579 q 243 97 243 285 l 1035 97 z "},"G":{"ha":993,"x_min":118,"x_max":1257,"o":"m 688 97 l 688 444 q 696 464 688 456 q 715 472 704 472 l 783 472 q 803 464 794 472 q 813 444 811 456 l 813 97 l 1257 97 q 1249 48 1257 67 q 1226 19 1240 29 q 1195 4 1213 8 q 1160 0 1178 0 l 811 0 q 785 -211 808 -128 q 718 -343 763 -294 q 605 -411 674 -392 q 442 -431 536 -431 q 381 -408 397 -431 q 364 -335 364 -386 l 364 -319 l 442 -319 q 549 -310 504 -319 q 624 -268 594 -301 q 669 -172 654 -235 q 686 0 683 -108 l 243 0 q 194 3 217 0 q 154 19 171 7 q 128 53 138 31 q 118 111 118 75 q 172 527 118 357 q 314 802 226 697 q 513 953 401 907 q 739 1000 624 1000 q 800 976 786 1000 q 814 925 814 953 l 814 889 l 739 889 q 527 835 619 889 q 372 681 435 782 q 276 432 308 579 q 243 97 243 285 l 688 97 z "},"A":{"ha":1082,"x_min":144,"x_max":1346,"o":"m 1346 97 q 1338 48 1346 67 q 1315 19 1329 29 q 1284 4 1301 8 q 1249 0 1267 0 l 814 0 q 783 3 799 0 q 756 16 768 7 q 738 41 744 25 q 731 83 731 57 l 731 415 l 308 415 q 279 261 289 343 q 269 83 269 179 q 247 15 269 31 q 193 0 224 0 l 144 0 l 144 83 q 176 402 144 264 q 260 642 207 540 q 385 813 314 744 q 535 922 456 881 q 697 982 614 964 q 856 1000 779 1000 q 917 976 903 1000 q 931 925 931 953 l 931 889 l 856 889 l 856 97 l 1346 97 m 731 875 q 507 760 608 847 q 343 519 406 674 l 731 519 l 731 875 z "},"v":{"ha":950,"x_min":264,"x_max":1321,"o":"m 700 739 q 729 810 700 781 q 800 840 758 840 q 867 814 839 840 q 900 750 896 788 l 1321 750 q 1290 664 1321 689 q 1224 639 1260 639 l 899 639 q 851 400 890 515 q 742 196 813 285 q 571 53 672 107 q 339 0 469 0 q 278 24 292 0 q 264 75 264 47 l 264 722 q 272 742 264 733 q 292 750 281 750 l 360 750 q 380 742 371 750 q 389 722 389 733 l 389 114 q 519 151 454 121 q 639 243 585 182 q 731 401 693 304 q 781 640 769 499 q 723 675 746 647 q 700 739 700 703 z "},"w":{"ha":1401,"x_min":264,"x_max":1772,"o":"m 1151 739 q 1181 810 1151 781 q 1251 840 1210 840 q 1319 814 1290 840 q 1351 750 1347 788 l 1772 750 q 1742 664 1772 689 q 1675 639 1711 639 l 1350 639 q 1308 400 1343 515 q 1208 196 1274 285 q 1046 53 1143 107 q 818 0 949 0 q 757 24 771 0 q 743 75 743 47 l 743 224 q 585 61 683 122 q 339 0 486 0 q 278 24 292 0 q 264 75 264 47 l 264 722 q 272 742 264 733 q 292 750 281 750 l 360 750 q 380 742 371 750 q 389 722 389 733 l 389 114 q 541 163 475 124 q 652 278 607 203 q 720 471 697 354 q 743 750 743 588 l 800 750 q 885 720 858 750 q 913 624 913 690 q 900 532 913 575 q 868 450 888 489 l 868 114 q 993 151 932 121 q 1104 243 1054 182 q 1188 401 1154 304 q 1232 640 1222 499 q 1174 675 1197 647 q 1151 739 1151 703 z "},"K":{"ha":889,"x_min":193,"x_max":1153,"o":"m 306 0 q 220 30 247 0 q 193 126 193 60 q 201 199 193 164 q 222 265 208 233 l 222 958 q 231 978 222 969 q 250 986 239 986 l 319 986 q 339 978 331 986 q 347 958 347 969 l 347 476 q 431 685 381 589 q 545 851 482 781 q 682 960 608 921 q 838 1000 756 1000 q 899 976 885 1000 q 913 925 913 953 l 913 889 l 838 889 q 733 864 783 889 q 638 795 683 839 q 553 691 593 751 q 479 561 513 631 l 568 426 q 667 283 622 344 q 754 180 711 221 q 844 118 797 139 q 954 97 892 97 l 1153 97 q 1143 48 1153 67 q 1117 19 1133 29 q 1083 4 1101 8 q 1046 0 1064 0 l 947 0 q 791 28 857 0 q 673 104 725 57 q 578 213 621 151 q 494 340 536 275 l 429 440 q 369 217 390 331 q 347 0 347 103 l 306 0 z "},"H":{"ha":1121,"x_min":222,"x_max":1385,"o":"m 940 97 l 1385 97 q 1376 48 1385 67 q 1354 19 1368 29 q 1323 4 1340 8 q 1288 0 1306 0 l 899 0 q 868 3 883 0 q 841 16 853 7 q 822 41 829 25 q 815 83 815 57 l 815 415 l 347 415 l 347 0 l 307 0 q 276 3 292 0 q 249 16 261 7 q 230 41 238 25 q 222 83 222 57 l 222 958 q 231 978 222 969 q 250 986 239 986 l 318 986 q 338 978 329 986 q 347 958 347 969 l 347 519 l 815 519 l 815 958 q 824 978 815 969 q 843 986 832 986 l 911 986 q 931 978 922 986 q 940 958 939 969 l 940 97 z "},"z":{"ha":694,"x_min":56,"x_max":958,"o":"m 547 639 l 206 639 q 139 664 169 639 q 108 750 108 689 l 689 750 q 731 745 715 750 q 747 721 747 740 q 738 697 747 711 q 717 667 729 682 l 242 97 l 958 97 q 950 48 958 67 q 928 19 942 29 q 897 4 914 8 q 861 0 879 0 l 101 0 q 65 5 75 0 q 56 29 56 10 q 65 53 56 39 q 86 83 74 68 l 547 639 z "},"B":{"ha":1018,"x_min":125,"x_max":1282,"o":"m 249 97 q 453 119 364 97 q 610 177 543 142 q 722 258 676 213 q 796 349 768 303 q 836 437 824 394 q 849 510 849 479 l 679 510 q 614 485 651 494 q 542 476 576 476 q 494 483 518 476 q 451 506 471 490 q 420 546 432 521 q 408 607 408 571 l 593 607 q 683 630 646 607 q 745 685 721 653 q 781 751 769 717 q 792 807 792 785 q 761 863 792 850 q 650 875 731 875 l 347 875 l 347 250 q 340 208 347 224 q 320 183 332 192 q 293 170 308 174 q 263 167 278 167 l 222 167 l 222 875 l 125 875 l 125 903 q 131 945 125 929 q 147 970 138 961 q 169 983 157 979 q 193 986 181 986 l 650 986 q 776 979 725 986 q 859 953 828 972 q 903 898 890 933 q 917 807 917 863 q 891 710 917 767 q 810 607 865 653 l 835 607 q 884 603 861 607 q 924 588 907 600 q 950 554 940 576 q 960 496 960 532 q 942 394 960 447 q 889 287 925 340 q 798 185 853 233 q 669 97 743 136 l 1282 97 q 1274 48 1282 67 q 1251 19 1265 29 q 1220 4 1238 8 q 1185 0 1203 0 l 231 0 q 200 3 215 0 q 173 16 185 7 q 154 41 161 25 q 147 83 147 57 l 147 97 l 249 97 z "},"T":{"ha":1069,"x_min":154,"x_max":1333,"o":"m 331 97 q 560 122 469 97 q 702 195 650 146 q 775 319 754 244 q 796 497 796 394 q 822 565 796 549 q 881 581 849 581 l 921 581 l 921 497 q 879 251 921 347 q 739 97 838 156 l 1333 97 q 1325 48 1333 67 q 1303 19 1317 29 q 1272 4 1289 8 q 1236 0 1254 0 l 315 0 q 259 9 281 0 q 226 34 238 18 q 210 72 214 50 q 206 117 206 93 q 231 357 206 243 q 299 567 256 471 q 403 742 343 664 q 532 875 463 821 l 229 875 q 168 899 182 875 q 154 950 154 922 l 154 986 l 697 986 q 829 1008 761 1008 q 873 1002 851 1008 q 913 981 894 996 q 942 940 931 965 q 953 875 953 914 l 840 875 q 626 814 721 875 q 466 647 532 753 q 365 400 400 542 q 331 97 331 258 z "},"J":{"ha":701,"x_min":0,"x_max":965,"o":"m 74 0 q 14 24 28 0 q 0 75 0 47 l 0 97 l 153 97 q 265 110 218 97 q 341 162 311 122 q 385 275 371 201 q 399 472 399 349 l 399 875 l 93 875 q 32 899 46 875 q 18 950 18 922 l 18 986 l 390 986 q 418 1050 393 1024 q 490 1076 443 1076 q 566 1047 540 1076 q 592 975 592 1017 q 574 915 592 940 q 524 879 557 889 l 524 472 q 503 240 524 331 q 438 97 482 150 l 965 97 q 957 48 965 67 q 935 19 949 29 q 903 4 921 8 q 868 0 886 0 l 74 0 z "},"D":{"ha":990,"x_min":125,"x_max":1254,"o":"m 932 304 q 910 190 932 246 q 825 97 888 135 l 1254 97 q 1246 48 1254 67 q 1224 19 1238 29 q 1192 4 1210 8 q 1157 0 1175 0 l 208 0 q 178 3 193 0 q 151 16 163 7 q 132 41 139 25 q 125 83 125 57 l 125 97 l 582 97 q 689 117 646 97 q 758 168 732 138 q 796 235 785 199 q 807 304 807 271 q 783 472 807 385 q 706 638 760 560 q 563 778 651 717 q 347 868 475 839 l 347 250 q 340 208 347 224 q 320 183 332 192 q 293 170 308 174 q 263 167 278 167 l 222 167 l 222 886 q 185 888 203 888 q 147 889 167 889 l 147 917 q 173 984 147 968 q 231 1000 199 1000 q 492 948 365 1000 q 716 803 618 896 q 873 582 814 710 q 932 304 932 454 z "},"P":{"ha":857,"x_min":139,"x_max":1121,"o":"m 224 278 q 200 281 211 278 q 181 294 189 285 q 167 319 172 303 q 161 361 161 335 l 161 389 q 199 389 181 389 q 236 392 217 389 l 236 806 l 276 806 q 307 802 292 806 q 334 790 322 799 q 353 765 346 781 q 361 722 361 749 l 361 411 q 518 472 453 433 q 626 557 583 511 q 690 651 669 603 q 710 739 710 699 q 699 793 710 768 q 661 836 688 818 q 592 865 635 854 q 485 875 549 875 l 139 875 l 139 903 q 145 945 139 929 q 161 970 151 961 q 183 983 171 979 q 207 986 194 986 l 485 986 q 671 958 601 986 q 776 890 740 929 q 824 808 813 850 q 835 739 835 767 q 794 593 835 664 q 686 463 753 522 q 534 360 619 404 q 361 294 449 315 l 361 97 l 1121 97 q 1113 48 1121 67 q 1090 19 1104 29 q 1059 4 1076 8 q 1024 0 1042 0 l 321 0 q 290 3 306 0 q 263 16 275 7 q 244 41 251 25 q 236 83 236 57 l 236 278 l 224 278 z "},"R":{"ha":899,"x_min":139,"x_max":1163,"o":"m 992 0 q 794 29 876 0 q 656 107 713 58 q 567 219 600 156 q 517 351 535 282 q 361 294 440 313 l 361 28 q 353 8 361 17 q 333 0 344 0 l 264 0 q 244 8 253 0 q 236 28 236 17 l 236 278 l 224 278 q 200 281 211 278 q 181 294 189 285 q 167 319 172 303 q 161 361 161 335 l 161 389 q 199 389 181 389 q 236 392 217 389 l 236 806 l 276 806 q 307 802 292 806 q 334 790 322 799 q 353 765 346 781 q 361 722 361 749 l 361 411 q 518 472 453 433 q 626 557 583 511 q 690 651 669 603 q 710 739 710 699 q 699 793 710 768 q 661 836 688 818 q 592 865 635 854 q 485 875 549 875 l 139 875 l 139 903 q 145 945 139 929 q 161 970 151 961 q 183 983 171 979 q 207 986 194 986 l 485 986 q 671 958 601 986 q 776 890 740 929 q 824 808 813 850 q 835 739 835 767 q 775 563 835 647 q 622 414 715 478 q 649 306 626 363 q 719 203 672 250 q 838 127 765 157 q 1014 97 910 97 l 1163 97 q 1152 42 1163 61 q 1120 13 1142 22 q 1067 2 1099 4 q 992 0 1035 0 z "},"I":{"ha":611,"x_min":125,"x_max":875,"o":"m 264 97 l 264 875 l 200 875 q 139 899 153 875 q 125 950 125 922 l 125 986 l 444 986 q 487 978 471 986 q 512 959 503 971 q 524 932 521 947 q 528 901 528 917 l 528 875 l 389 875 l 389 97 l 875 97 q 867 48 875 67 q 844 19 858 29 q 813 4 831 8 q 778 0 796 0 l 222 0 q 187 4 204 0 q 156 19 169 8 q 133 48 142 29 q 125 97 125 67 l 264 97 z "},"U":{"ha":1135,"x_min":222,"x_max":1399,"o":"m 815 482 q 713 292 771 382 q 593 135 656 203 q 467 26 531 67 q 347 -14 403 -14 q 287 -4 311 -14 q 248 22 263 6 q 228 62 233 39 q 222 111 222 85 l 222 958 q 231 978 222 969 q 250 986 239 986 l 319 986 q 339 978 331 986 q 347 958 347 969 l 347 97 q 423 130 376 97 q 522 219 469 163 q 626 352 574 275 q 720 519 678 429 q 789 705 763 608 q 815 899 815 801 l 815 986 l 865 986 q 969 860 969 986 q 961 788 969 822 q 940 721 953 753 l 940 97 l 1399 97 q 1390 48 1399 67 q 1368 19 1382 29 q 1337 4 1354 8 q 1301 0 1319 0 l 900 0 q 869 3 885 0 q 842 16 854 7 q 823 41 831 25 q 815 83 815 57 l 815 482 l 815 482 z "},"V":{"ha":1024,"x_min":222,"x_max":1288,"o":"m 932 886 q 906 591 931 719 q 842 367 882 463 q 749 205 801 271 q 636 97 696 139 l 1288 97 q 1279 48 1288 67 q 1257 19 1271 29 q 1226 4 1243 8 q 1190 0 1208 0 l 347 0 q 287 10 311 0 q 248 36 263 19 q 228 76 233 53 q 222 125 222 99 l 222 958 q 231 978 222 969 q 250 986 239 986 l 319 986 q 339 978 331 986 q 347 958 347 969 l 347 111 q 480 133 415 111 q 600 208 544 156 q 701 344 656 260 q 774 556 746 429 l 774 986 l 811 986 q 906 970 879 986 q 932 899 932 954 l 932 886 z "},"´":{"ha":658,"x_min":226,"x_max":569,"o":"m 226 918 l 518 1100 l 536 1072 q 569 993 569 1021 q 539 949 569 969 q 462 913 508 929 q 360 883 415 896 q 258 861 306 869 l 226 918 z "},"á":{"ha":1079,"x_min":264,"x_max":1343,"o":"m 389 104 q 463 119 422 104 q 547 163 504 133 q 630 238 589 193 q 702 345 671 283 q 753 486 733 407 q 772 663 772 565 l 772 750 l 822 750 q 926 624 926 750 q 918 551 926 586 q 897 485 910 517 l 897 97 l 1343 97 q 1335 48 1343 67 q 1313 19 1326 29 q 1281 4 1299 8 q 1246 0 1264 0 l 857 0 q 826 3 842 0 q 799 16 811 7 q 780 41 788 25 q 772 83 772 57 l 772 275 q 689 158 735 210 q 593 69 643 106 q 491 13 543 33 q 389 -7 439 -7 q 328 3 353 -7 q 290 29 304 13 q 269 69 275 46 q 264 118 264 92 l 264 460 q 281 595 264 538 q 335 690 297 653 q 433 746 372 728 q 579 764 493 764 q 671 742 639 764 q 703 667 703 719 l 703 653 l 579 653 q 494 645 529 653 q 435 616 458 638 q 400 557 411 594 q 389 460 389 519 l 389 104 m 457 918 l 749 1100 l 767 1072 q 800 993 800 1021 q 769 949 800 969 q 692 913 739 929 q 591 883 646 896 q 489 861 536 869 l 457 918 z "},"é":{"ha":888,"x_min":208,"x_max":1151,"o":"m 335 278 q 340 181 335 217 q 364 126 344 144 q 423 102 383 107 q 532 97 463 97 l 1151 97 q 1143 48 1151 67 q 1121 19 1135 29 q 1090 4 1107 8 q 1054 0 1072 0 l 532 0 q 353 12 418 0 q 256 55 289 24 q 216 140 224 86 q 208 278 208 193 l 208 335 q 224 536 208 454 q 294 669 240 618 q 448 742 347 719 q 719 764 549 764 q 818 728 792 764 q 844 640 844 692 q 824 463 844 533 q 761 351 804 393 q 651 293 718 310 q 489 276 583 276 q 435 291 451 276 q 419 349 419 306 l 419 378 l 529 382 q 617 392 581 383 q 676 428 653 401 q 709 508 699 456 q 719 653 719 561 q 517 643 593 653 q 401 600 442 633 q 347 503 360 567 q 335 333 335 440 l 335 278 m 433 918 l 725 1100 l 743 1072 q 776 993 776 1021 q 746 949 776 969 q 669 913 715 929 q 567 883 622 896 q 465 861 513 869 l 433 918 z "},"ı":{"ha":571,"x_min":264,"x_max":835,"o":"m 835 97 q 826 48 835 67 q 804 19 818 29 q 773 4 790 8 q 738 0 756 0 l 349 0 q 318 3 333 0 q 291 16 303 7 q 272 41 279 25 q 264 83 264 57 l 264 722 q 272 742 264 733 q 292 750 281 750 l 360 750 q 379 742 371 750 q 389 722 388 733 l 389 97 l 835 97 z "},"í":{"ha":571,"x_min":197,"x_max":835,"o":"m 835 97 q 826 48 835 67 q 804 19 818 29 q 773 4 790 8 q 738 0 756 0 l 349 0 q 318 3 333 0 q 291 16 303 7 q 272 41 279 25 q 264 83 264 57 l 264 722 q 272 742 264 733 q 292 750 281 750 l 360 750 q 379 742 371 750 q 389 722 388 733 l 389 97 l 835 97 m 197 918 l 489 1100 l 507 1072 q 540 993 540 1021 q 510 949 540 969 q 433 913 479 929 q 331 883 386 896 q 229 861 276 869 l 197 918 z "},"ó":{"ha":1026,"x_min":264,"x_max":1388,"o":"m 689 739 q 714 810 689 781 q 789 840 739 840 q 862 814 836 840 q 890 750 888 788 l 1388 750 q 1357 664 1388 689 q 1290 639 1326 639 l 914 639 l 914 500 q 785 124 914 247 q 389 0 657 0 q 326 10 350 0 q 288 36 301 19 q 269 76 274 53 q 264 125 264 99 l 264 460 q 281 595 264 538 q 335 690 297 653 q 433 746 372 728 q 579 764 493 764 q 640 742 618 764 q 661 667 661 719 l 661 653 l 579 653 q 494 645 529 653 q 435 616 458 638 q 400 557 411 594 q 389 460 389 519 l 389 111 q 568 131 493 111 q 692 195 643 150 q 765 315 742 240 q 789 500 789 389 l 789 639 q 714 668 739 639 q 689 739 689 697 m 479 918 l 771 1100 l 789 1072 q 822 993 822 1021 q 792 949 822 969 q 715 913 761 929 q 613 883 668 896 q 511 861 558 869 l 479 918 z "},"ú":{"ha":1065,"x_min":264,"x_max":1329,"o":"m 389 104 q 503 137 439 104 q 624 238 567 169 q 719 412 681 307 q 758 663 758 517 l 758 750 l 808 750 q 913 624 913 750 q 904 551 913 586 q 883 485 896 517 l 883 97 l 1329 97 q 1321 48 1329 67 q 1299 19 1313 29 q 1267 4 1285 8 q 1232 0 1250 0 l 843 0 q 813 3 828 0 q 785 16 797 7 q 766 41 774 25 q 758 83 758 57 l 758 267 q 678 153 722 204 q 587 67 635 103 q 488 13 539 32 q 389 -7 438 -7 q 328 3 353 -7 q 290 29 304 13 q 269 69 275 46 q 264 118 264 92 l 264 722 q 272 742 264 733 q 292 750 281 750 l 360 750 q 380 742 371 750 q 389 722 389 733 l 389 104 m 450 918 l 742 1100 l 760 1072 q 793 993 793 1021 q 763 949 793 969 q 685 913 732 929 q 584 883 639 896 q 482 861 529 869 l 450 918 z "},"¨":{"ha":543,"x_min":88,"x_max":567,"o":"m 88 978 q 108 1038 88 1013 q 172 1064 129 1064 q 236 1038 214 1064 q 258 978 258 1013 q 236 917 258 942 q 172 893 214 893 q 108 917 129 893 q 88 978 88 942 m 396 978 q 417 1038 396 1013 q 481 1064 438 1064 q 544 1038 522 1064 q 567 978 567 1013 q 544 917 567 942 q 481 893 522 893 q 417 917 438 893 q 396 978 396 942 z "},"ä":{"ha":1079,"x_min":264,"x_max":1343,"o":"m 389 104 q 463 119 422 104 q 547 163 504 133 q 630 238 589 193 q 702 345 671 283 q 753 486 733 407 q 772 663 772 565 l 772 750 l 822 750 q 926 624 926 750 q 918 551 926 586 q 897 485 910 517 l 897 97 l 1343 97 q 1335 48 1343 67 q 1313 19 1326 29 q 1281 4 1299 8 q 1246 0 1264 0 l 857 0 q 826 3 842 0 q 799 16 811 7 q 780 41 788 25 q 772 83 772 57 l 772 275 q 689 158 735 210 q 593 69 643 106 q 491 13 543 33 q 389 -7 439 -7 q 328 3 353 -7 q 290 29 304 13 q 269 69 275 46 q 264 118 264 92 l 264 460 q 281 595 264 538 q 335 690 297 653 q 433 746 372 728 q 579 764 493 764 q 671 742 639 764 q 703 667 703 719 l 703 653 l 579 653 q 494 645 529 653 q 435 616 458 638 q 400 557 411 594 q 389 460 389 519 l 389 104 m 394 978 q 415 1038 394 1013 q 479 1064 436 1064 q 543 1038 521 1064 q 565 978 565 1013 q 543 917 565 942 q 479 893 521 893 q 415 917 436 893 q 394 978 394 942 m 703 978 q 724 1038 703 1013 q 788 1064 744 1064 q 851 1038 829 1064 q 874 978 874 1013 q 851 917 874 942 q 788 893 829 893 q 724 917 744 893 q 703 978 703 942 z "},"ë":{"ha":888,"x_min":208,"x_max":1151,"o":"m 335 278 q 340 181 335 217 q 364 126 344 144 q 423 102 383 107 q 532 97 463 97 l 1151 97 q 1143 48 1151 67 q 1121 19 1135 29 q 1090 4 1107 8 q 1054 0 1072 0 l 532 0 q 353 12 418 0 q 256 55 289 24 q 216 140 224 86 q 208 278 208 193 l 208 335 q 224 536 208 454 q 294 669 240 618 q 448 742 347 719 q 719 764 549 764 q 818 728 792 764 q 844 640 844 692 q 824 463 844 533 q 761 351 804 393 q 651 293 718 310 q 489 276 583 276 q 435 291 451 276 q 419 349 419 306 l 419 378 l 529 382 q 617 392 581 383 q 676 428 653 401 q 709 508 699 456 q 719 653 719 561 q 517 643 593 653 q 401 600 442 633 q 347 503 360 567 q 335 333 335 440 l 335 278 m 317 978 q 338 1038 317 1013 q 401 1064 358 1064 q 465 1038 443 1064 q 488 978 488 1013 q 465 917 488 942 q 401 893 443 893 q 338 917 358 893 q 317 978 317 942 m 625 978 q 646 1038 625 1013 q 710 1064 667 1064 q 774 1038 751 1064 q 796 978 796 1013 q 774 917 796 942 q 710 893 751 893 q 646 917 667 893 q 625 978 625 942 z "},"ï":{"ha":571,"x_min":88,"x_max":835,"o":"m 835 97 q 826 48 835 67 q 804 19 818 29 q 773 4 790 8 q 738 0 756 0 l 349 0 q 318 3 333 0 q 291 16 303 7 q 272 41 279 25 q 264 83 264 57 l 264 722 q 272 742 264 733 q 292 750 281 750 l 360 750 q 379 742 371 750 q 389 722 388 733 l 389 97 l 835 97 m 88 978 q 108 1038 88 1013 q 172 1064 129 1064 q 236 1038 214 1064 q 258 978 258 1013 q 236 917 258 942 q 172 893 214 893 q 108 917 129 893 q 88 978 88 942 m 396 978 q 417 1038 396 1013 q 481 1064 438 1064 q 544 1038 522 1064 q 567 978 567 1013 q 544 917 567 942 q 481 893 522 893 q 417 917 438 893 q 396 978 396 942 z "},"ö":{"ha":1026,"x_min":264,"x_max":1388,"o":"m 689 739 q 714 810 689 781 q 789 840 739 840 q 862 814 836 840 q 890 750 888 788 l 1388 750 q 1357 664 1388 689 q 1290 639 1326 639 l 914 639 l 914 500 q 785 124 914 247 q 389 0 657 0 q 326 10 350 0 q 288 36 301 19 q 269 76 274 53 q 264 125 264 99 l 264 460 q 281 595 264 538 q 335 690 297 653 q 433 746 372 728 q 579 764 493 764 q 640 742 618 764 q 661 667 661 719 l 661 653 l 579 653 q 494 645 529 653 q 435 616 458 638 q 400 557 411 594 q 389 460 389 519 l 389 111 q 568 131 493 111 q 692 195 643 150 q 765 315 742 240 q 789 500 789 389 l 789 639 q 714 668 739 639 q 689 739 689 697 m 347 978 q 368 1038 347 1013 q 432 1064 389 1064 q 496 1038 474 1064 q 518 978 518 1013 q 496 917 518 942 q 432 893 474 893 q 368 917 389 893 q 347 978 347 942 m 656 978 q 676 1038 656 1013 q 740 1064 697 1064 q 804 1038 782 1064 q 826 978 826 1013 q 804 917 826 942 q 740 893 782 893 q 676 917 697 893 q 656 978 656 942 z "},"ü":{"ha":1065,"x_min":264,"x_max":1329,"o":"m 389 104 q 503 137 439 104 q 624 238 567 169 q 719 412 681 307 q 758 663 758 517 l 758 750 l 808 750 q 913 624 913 750 q 904 551 913 586 q 883 485 896 517 l 883 97 l 1329 97 q 1321 48 1329 67 q 1299 19 1313 29 q 1267 4 1285 8 q 1232 0 1250 0 l 843 0 q 813 3 828 0 q 785 16 797 7 q 766 41 774 25 q 758 83 758 57 l 758 267 q 678 153 722 204 q 587 67 635 103 q 488 13 539 32 q 389 -7 438 -7 q 328 3 353 -7 q 290 29 304 13 q 269 69 275 46 q 264 118 264 92 l 264 722 q 272 742 264 733 q 292 750 281 750 l 360 750 q 380 742 371 750 q 389 722 389 733 l 389 104 m 340 978 q 361 1038 340 1013 q 425 1064 382 1064 q 489 1038 467 1064 q 511 978 511 1013 q 489 917 511 942 q 425 893 467 893 q 361 917 382 893 q 340 978 340 942 m 649 978 q 669 1038 649 1013 q 733 1064 690 1064 q 797 1038 775 1064 q 819 978 819 1013 q 797 917 819 942 q 733 893 775 893 q 669 917 690 893 q 649 978 649 942 z "},"W":{"ha":1581,"x_min":222,"x_max":1844,"o":"m 1489 889 q 1465 592 1489 721 q 1403 367 1442 463 q 1312 205 1364 271 q 1201 97 1260 139 l 1844 97 q 1836 48 1844 67 q 1814 19 1828 29 q 1783 4 1800 8 q 1747 0 1765 0 l 918 0 q 858 10 882 0 q 819 36 833 19 q 799 76 804 53 q 793 125 793 99 l 793 468 q 696 283 750 371 q 583 130 642 196 q 463 25 524 64 q 347 -14 403 -14 q 287 -4 311 -14 q 248 22 263 6 q 228 62 233 39 q 222 111 222 85 l 222 958 q 231 978 222 969 q 250 986 239 986 l 319 986 q 339 978 331 986 q 347 958 347 969 l 347 97 q 421 130 376 97 q 515 219 465 163 q 615 352 565 275 q 703 519 664 429 q 768 705 743 608 q 793 899 793 801 l 793 986 l 835 986 q 920 956 893 986 q 947 860 947 926 q 939 788 947 822 q 918 721 931 753 l 918 111 q 1045 133 983 111 q 1161 203 1107 154 q 1259 335 1215 253 q 1331 538 1303 417 l 1331 986 l 1368 986 q 1463 970 1436 986 q 1489 899 1489 954 l 1489 889 z "},"Y":{"ha":1135,"x_min":222,"x_max":1399,"o":"m 815 482 q 713 292 771 382 q 593 135 656 203 q 467 26 531 67 q 347 -14 403 -14 q 287 -4 311 -14 q 248 22 263 6 q 228 62 233 39 q 222 111 222 85 l 222 958 q 231 978 222 969 q 250 986 239 986 l 319 986 q 339 978 331 986 q 347 958 347 969 l 347 97 q 423 130 376 97 q 522 219 469 163 q 626 352 574 275 q 720 519 678 429 q 789 705 763 608 q 815 899 815 801 l 815 986 l 865 986 q 969 860 969 986 q 961 788 969 822 q 940 721 953 753 l 940 97 l 1399 97 q 1390 48 1399 67 q 1368 19 1382 29 q 1337 4 1354 8 q 1301 0 1319 0 l 939 0 q 913 -211 936 -128 q 846 -343 890 -294 q 733 -411 801 -392 q 569 -431 664 -431 q 508 -408 525 -431 q 492 -335 492 -386 l 492 -319 l 569 -319 q 681 -309 635 -319 q 758 -262 728 -299 q 801 -153 788 -225 q 815 42 815 -82 l 815 482 l 815 482 z "},"Z":{"ha":847,"x_min":-56,"x_max":1111,"o":"m 601 415 q 478 232 549 313 q 326 97 407 151 l 1111 97 q 1103 48 1111 67 q 1081 19 1094 29 q 1049 4 1067 8 q 1014 0 1032 0 l 201 0 q 138 -19 171 -11 q 68 -28 104 -28 q 24 -23 46 -28 q -16 -4 1 -18 q -44 34 -33 10 q -56 97 -56 58 l 28 97 q 157 122 94 97 q 274 188 219 146 q 377 289 329 231 q 463 415 425 347 l 235 415 q 243 466 235 446 q 265 498 251 486 q 297 515 279 510 q 332 519 314 519 l 513 519 q 568 697 549 607 q 588 875 588 788 l 185 875 q 124 899 138 875 q 110 950 110 922 l 110 986 l 588 986 q 637 983 614 986 q 676 967 660 979 q 703 933 693 956 q 713 875 713 911 q 696 689 713 778 q 649 519 679 600 l 847 519 q 839 469 847 489 q 817 437 831 449 q 785 420 803 425 q 750 415 768 415 l 601 415 z "},"o":{"ha":1026,"x_min":264,"x_max":1388,"o":"m 689 739 q 714 810 689 781 q 789 840 739 840 q 862 814 836 840 q 890 750 888 788 l 1388 750 q 1357 664 1388 689 q 1290 639 1326 639 l 914 639 l 914 500 q 785 124 914 247 q 389 0 657 0 q 326 10 350 0 q 288 36 301 19 q 269 76 274 53 q 264 125 264 99 l 264 460 q 281 595 264 538 q 335 690 297 653 q 433 746 372 728 q 579 764 493 764 q 640 742 618 764 q 661 667 661 719 l 661 653 l 579 653 q 494 645 529 653 q 435 616 458 638 q 400 557 411 594 q 389 460 389 519 l 389 111 q 568 131 493 111 q 692 195 643 150 q 765 315 742 240 q 789 500 789 389 l 789 639 q 714 668 739 639 q 689 739 689 697 z "},"O":{"ha":1057,"x_min":160,"x_max":1321,"o":"m 931 607 q 871 287 931 410 q 688 97 811 164 l 1321 97 q 1313 48 1321 67 q 1290 19 1304 29 q 1259 4 1276 8 q 1224 0 1242 0 l 269 0 q 213 9 235 0 q 180 34 192 18 q 164 72 168 50 q 160 117 160 93 l 160 392 q 200 667 160 551 q 322 856 240 782 q 527 965 403 929 q 821 1000 651 1000 q 877 991 856 1000 q 910 966 899 982 q 926 928 922 950 q 931 883 931 907 l 931 607 m 285 97 q 522 127 424 97 q 684 219 621 157 q 776 377 747 281 q 806 607 806 474 l 806 889 q 568 861 667 889 q 406 774 469 833 q 314 619 343 714 q 285 392 285 525 l 285 97 z "},"Q":{"ha":1057,"x_min":160,"x_max":1321,"o":"m 285 392 q 277 349 285 365 q 258 324 269 333 q 231 312 246 315 q 200 308 215 308 l 160 308 l 160 392 q 200 667 160 551 q 322 856 240 782 q 527 965 403 929 q 821 1000 651 1000 q 877 991 856 1000 q 910 966 899 982 q 926 928 922 950 q 931 883 931 907 l 931 607 q 872 288 931 413 q 692 97 814 164 l 1321 97 q 1313 48 1321 67 q 1290 19 1304 29 q 1259 4 1276 8 q 1224 0 1242 0 l 417 0 q 353 -19 386 -11 q 283 -28 319 -28 q 239 -23 261 -28 q 199 -4 217 -18 q 171 34 182 10 q 160 97 160 58 l 285 97 q 522 127 424 97 q 684 219 621 157 q 776 377 747 281 q 806 607 806 474 l 806 889 q 568 861 667 889 q 406 774 469 833 q 314 619 343 714 q 285 392 285 525 z "},"F":{"ha":760,"x_min":-60,"x_max":1051,"o":"m 264 415 l 83 415 q 114 495 83 471 q 181 519 144 519 l 264 519 q 272 631 264 574 q 301 740 281 688 q 357 841 322 793 q 444 924 392 889 q 569 979 497 958 q 738 1000 642 1000 q 781 984 761 1000 q 801 917 801 968 l 801 889 l 729 889 q 592 870 649 889 q 499 820 536 851 q 439 750 461 789 q 406 670 417 711 q 392 590 394 629 q 389 519 389 550 l 1051 519 q 1043 469 1051 489 q 1021 437 1035 449 q 990 420 1007 425 q 954 415 972 415 l 389 415 l 389 0 q 368 -200 389 -118 q 302 -333 347 -282 q 187 -408 257 -385 q 18 -431 117 -431 q -43 -408 -26 -431 q -60 -335 -60 -386 l -60 -319 l 18 -319 q 127 -310 81 -319 q 203 -268 174 -301 q 249 -171 233 -235 q 264 3 264 -107 l 264 415 z "},"ý":{"ha":1022,"x_min":221,"x_max":1286,"o":"m 346 111 q 458 143 396 111 q 576 242 521 175 q 670 413 632 308 q 708 663 708 517 l 708 750 l 743 750 q 828 720 801 750 q 856 624 856 690 q 847 551 856 586 q 826 485 839 517 l 826 97 l 1286 97 q 1278 48 1286 67 q 1256 19 1269 29 q 1224 4 1242 8 q 1189 0 1207 0 l 825 0 q 799 -211 822 -128 q 732 -343 776 -294 q 619 -411 688 -392 q 456 -431 550 -431 q 394 -408 411 -431 q 378 -335 378 -386 l 378 -319 l 456 -319 q 567 -309 521 -319 q 644 -262 614 -299 q 688 -153 674 -225 q 701 42 701 -82 l 701 263 q 623 153 667 201 q 529 71 579 106 q 426 18 479 36 q 317 0 372 0 q 242 15 264 0 q 221 71 221 29 l 221 722 q 229 742 221 733 q 249 750 238 750 l 317 750 q 337 742 328 750 q 346 722 346 733 l 346 111 m 381 918 l 672 1100 l 690 1072 q 724 993 724 1021 q 693 949 724 969 q 616 913 663 929 q 515 883 569 896 q 413 861 460 869 l 381 918 z "},"_":{"ha":857,"x_min":389,"x_max":982,"o":"m 982 0 q 974 -49 982 -31 q 951 -78 965 -68 q 920 -93 938 -89 q 885 -97 903 -97 l 486 -97 q 451 -93 468 -97 q 419 -78 433 -89 q 397 -49 406 -68 q 389 0 389 -31 l 982 0 z "},")":{"ha":599,"x_min":278,"x_max":571,"o":"m 571 493 q 537 237 571 344 q 463 60 503 129 q 356 -76 415 -22 q 336 -83 346 -83 q 321 -78 329 -83 l 286 -40 q 278 -22 278 -32 q 280 -12 278 -15 q 285 -4 282 -8 q 365 111 329 40 q 421 265 396 171 q 446 493 446 358 q 421 721 446 628 q 365 875 396 814 q 285 990 329 944 q 280 998 282 994 q 278 1008 278 1001 q 286 1026 278 1018 l 321 1061 q 336 1069 326 1069 q 356 1061 347 1069 q 463 926 415 1007 q 537 749 503 857 q 571 493 571 642 z "},"(":{"ha":335,"x_min":28,"x_max":321,"o":"m 28 493 q 61 749 28 642 q 135 926 94 857 q 243 1061 182 1007 q 263 1069 251 1069 q 278 1061 271 1069 l 313 1026 q 321 1008 321 1018 q 319 998 321 1001 q 314 990 317 994 q 233 875 269 944 q 178 721 203 814 q 153 493 153 628 q 178 265 153 358 q 233 111 203 171 q 314 -4 269 40 q 319 -12 317 -8 q 321 -22 321 -15 q 313 -40 321 -32 l 278 -78 q 263 -83 269 -83 q 243 -76 253 -83 q 135 60 182 -22 q 61 237 94 129 q 28 493 28 344 z "},".":{"ha":476,"x_min":297,"x_max":485,"o":"m 297 85 q 301 122 297 104 q 316 151 306 139 q 344 172 326 164 q 390 179 363 179 q 465 151 444 179 q 485 85 485 124 q 465 18 485 44 q 390 -8 444 -8 q 344 -1 363 -8 q 316 18 326 6 q 301 48 306 31 q 297 85 297 65 z "},"S":{"ha":982,"x_min":125,"x_max":1246,"o":"m 743 519 q 792 516 769 519 q 832 501 815 513 q 858 467 849 489 q 868 408 868 444 q 824 239 868 322 q 678 97 781 156 l 1246 97 q 1238 48 1246 67 q 1215 19 1229 29 q 1184 4 1201 8 q 1149 0 1167 0 l 208 0 q 178 3 193 0 q 151 16 163 7 q 132 41 139 25 q 125 83 125 57 l 125 97 l 213 97 q 413 113 328 97 q 556 153 497 128 q 651 210 614 178 q 708 278 688 243 q 736 349 729 314 q 743 415 743 385 l 250 415 q 201 420 224 415 q 161 438 178 425 q 135 474 144 451 q 125 533 125 497 q 151 692 125 610 q 247 842 178 774 q 435 956 315 911 q 743 1000 556 1000 q 774 997 758 1000 q 801 984 789 993 q 819 959 813 975 q 826 917 826 943 l 826 889 l 725 889 q 534 870 613 889 q 403 820 456 851 q 319 750 350 789 q 274 670 289 711 q 254 590 258 629 q 250 519 250 550 l 743 519 z "},"X":{"ha":990,"x_min":63,"x_max":1254,"o":"m 138 1000 q 210 994 178 1000 q 273 969 243 989 q 334 911 303 950 q 404 806 365 872 l 514 617 l 621 806 q 690 911 658 872 q 751 970 721 950 q 812 995 781 990 q 883 1000 843 1000 q 944 976 931 1000 q 958 925 958 953 l 958 889 l 901 889 q 848 883 871 889 q 802 859 825 878 q 753 803 779 840 q 692 703 728 767 l 579 504 l 708 283 q 770 183 744 221 q 817 127 796 146 q 859 103 839 108 q 904 97 879 97 l 1254 97 q 1246 48 1254 67 q 1224 19 1238 29 q 1192 4 1210 8 q 1157 0 1175 0 l 864 0 q 816 3 842 0 q 760 26 790 7 q 694 84 729 44 q 619 194 660 124 l 510 383 l 403 194 q 328 84 363 124 q 263 26 293 44 q 206 3 232 7 q 158 0 181 0 q 111 3 129 0 q 82 16 93 7 q 67 41 71 25 q 63 82 63 57 l 63 97 l 122 97 q 168 103 147 97 q 211 127 189 108 q 260 183 233 146 q 322 283 286 219 l 444 496 l 325 703 q 263 803 289 765 q 216 859 238 840 q 172 883 194 878 q 119 889 150 889 l 63 889 l 63 925 q 76 976 63 953 q 138 1000 90 1000 z "},"/":{"ha":500,"x_min":149,"x_max":556,"o":"m 296 83 q 261 17 282 33 q 189 0 240 0 l 149 0 l 408 972 q 426 1018 417 1001 q 447 1043 435 1035 q 476 1053 460 1051 q 515 1056 493 1056 l 556 1056 l 296 83 z "},"[":{"ha":376,"x_min":69,"x_max":375,"o":"m 194 28 l 278 28 q 313 24 296 28 q 344 9 331 19 q 367 -20 358 -1 q 375 -69 375 -39 l 69 -69 l 69 1056 l 375 1056 q 367 1006 375 1025 q 344 977 358 988 q 313 963 331 967 q 278 958 296 958 l 194 958 l 194 28 z "},"]":{"ha":653,"x_min":278,"x_max":583,"o":"m 458 958 l 375 958 q 340 963 357 958 q 308 977 322 967 q 286 1006 294 988 q 278 1056 278 1025 l 583 1056 l 583 -69 l 278 -69 q 286 -20 278 -39 q 308 9 294 -1 q 340 24 322 19 q 375 28 357 28 l 458 28 l 458 958 z "},",":{"ha":476,"x_min":269,"x_max":483,"o":"m 269 -218 q 294 -167 282 -193 q 317 -105 307 -140 q 333 -22 326 -69 q 339 94 339 26 l 339 171 l 382 171 q 459 144 435 171 q 483 57 483 117 q 469 -30 483 15 q 431 -117 454 -75 q 378 -197 407 -160 q 321 -261 349 -235 l 269 -218 z "},":":{"ha":476,"x_min":297,"x_max":485,"o":"m 297 85 q 301 122 297 104 q 316 151 306 139 q 344 172 326 164 q 390 179 363 179 q 465 151 444 179 q 485 85 485 124 q 465 18 485 44 q 390 -8 444 -8 q 344 -1 363 -8 q 316 18 326 6 q 301 48 306 31 q 297 85 297 65 m 297 668 q 301 705 297 688 q 316 735 306 722 q 344 755 326 747 q 390 763 363 763 q 465 735 444 763 q 485 668 485 707 q 465 601 485 628 q 390 575 444 575 q 344 582 363 575 q 316 601 326 589 q 301 631 306 614 q 297 668 297 649 z "},";":{"ha":476,"x_min":269,"x_max":490,"o":"m 269 -218 q 294 -167 282 -193 q 317 -105 307 -140 q 333 -22 326 -69 q 339 94 339 26 l 339 171 l 382 171 q 459 144 435 171 q 483 57 483 117 q 469 -30 483 15 q 431 -117 454 -75 q 378 -197 407 -160 q 321 -261 349 -235 l 269 -218 m 303 668 q 307 705 303 688 q 322 735 311 722 q 350 755 332 747 q 396 763 368 763 q 470 735 450 763 q 490 668 490 707 q 470 601 490 628 q 396 575 450 575 q 350 582 368 575 q 322 601 332 589 q 307 631 311 614 q 303 668 303 649 z "},"“":{"ha":504,"x_min":54,"x_max":518,"o":"m 268 1078 q 243 1026 256 1053 q 221 965 231 1000 q 205 881 211 929 q 199 765 199 833 l 199 689 l 156 689 q 78 716 103 689 q 54 803 54 743 q 69 890 54 844 q 107 977 83 935 q 160 1056 131 1019 q 217 1121 189 1093 l 268 1078 m 518 1078 q 493 1026 506 1053 q 471 965 481 1000 q 455 881 461 929 q 449 765 449 833 l 449 689 l 406 689 q 328 716 353 689 q 304 803 304 743 q 319 890 304 844 q 357 977 333 935 q 410 1056 381 1019 q 467 1121 439 1093 l 518 1078 z "},"”":{"ha":518,"x_min":54,"x_max":518,"o":"m 304 718 q 329 769 317 743 q 351 831 342 796 q 367 915 361 867 q 374 1031 374 963 l 374 1107 l 417 1107 q 494 1080 469 1107 q 518 993 518 1053 q 503 906 518 951 q 465 819 489 861 q 413 739 442 776 q 356 675 383 701 l 304 718 m 54 718 q 79 769 67 743 q 101 831 92 796 q 117 915 111 867 q 124 1031 124 963 l 124 1107 l 167 1107 q 244 1080 219 1107 q 268 993 268 1053 q 253 906 268 951 q 215 819 239 861 q 163 739 192 776 q 106 675 133 701 l 54 718 z "},"‘":{"ha":254,"x_min":54,"x_max":268,"o":"m 268 1078 q 243 1026 256 1053 q 221 965 231 1000 q 205 881 211 929 q 199 765 199 833 l 199 689 l 156 689 q 78 716 103 689 q 54 803 54 743 q 69 890 54 844 q 107 977 83 935 q 160 1056 131 1019 q 217 1121 189 1093 l 268 1078 z "},"’":{"ha":268,"x_min":54,"x_max":268,"o":"m 54 718 q 79 769 67 743 q 101 831 92 796 q 117 915 111 867 q 124 1031 124 963 l 124 1107 l 167 1107 q 244 1080 219 1107 q 268 993 268 1053 q 253 906 268 951 q 215 819 239 861 q 163 739 192 776 q 106 675 133 701 l 54 718 z "},"{":{"ha":376,"x_min":-19,"x_max":375,"o":"m 99 488 q 170 451 146 482 q 194 388 194 419 l 194 28 l 278 28 q 313 24 296 28 q 344 9 331 19 q 367 -20 358 -1 q 375 -69 375 -39 l 69 -69 l 69 260 q 67 351 69 315 q 57 407 64 386 q 38 436 50 428 q 8 444 26 444 q -11 453 -3 444 q -19 472 -19 461 l -19 514 q -11 533 -19 525 q 8 542 -3 542 q 38 550 26 542 q 57 579 50 558 q 67 635 64 600 q 69 726 69 671 l 69 1056 l 375 1056 q 367 1006 375 1025 q 344 977 358 988 q 313 963 331 967 q 278 958 296 958 l 194 958 l 194 599 q 170 535 194 567 q 99 499 146 504 l 99 488 z "},"}":{"ha":653,"x_min":278,"x_max":672,"o":"m 554 499 q 483 535 507 504 q 458 599 458 567 l 458 958 l 375 958 q 340 963 357 958 q 308 977 322 967 q 286 1006 294 988 q 278 1056 278 1025 l 583 1056 l 583 726 q 586 635 583 671 q 596 579 589 600 q 615 550 603 558 q 644 542 626 542 q 664 533 656 542 q 672 514 672 525 l 672 472 q 664 453 672 461 q 644 444 656 444 q 615 436 626 444 q 596 407 603 428 q 586 351 589 386 q 583 260 583 315 l 583 -69 l 278 -69 q 286 -20 278 -39 q 308 9 294 -1 q 340 24 322 19 q 375 28 357 28 l 458 28 l 458 388 q 483 451 458 419 q 554 488 507 482 l 554 499 z "},"-":{"ha":639,"x_min":139,"x_max":556,"o":"m 451 519 q 490 515 471 519 q 523 499 508 511 q 547 467 538 488 q 556 415 556 447 l 243 415 q 205 419 224 415 q 172 435 186 424 q 148 467 157 446 q 139 519 139 488 l 451 519 z "},"$":{"ha":833,"x_min":100,"x_max":732,"o":"m 458 971 q 621 986 532 986 q 669 970 647 986 q 690 903 690 954 l 690 875 l 608 875 q 527 870 564 875 q 458 858 490 865 l 458 519 l 629 519 q 669 516 650 519 q 701 501 688 513 q 724 467 715 489 q 732 408 732 444 q 717 299 732 353 q 671 197 703 244 q 586 108 639 149 q 458 42 533 68 l 458 14 q 442 -53 458 -36 q 374 -69 425 -69 l 361 -69 l 361 17 q 171 0 278 0 q 145 3 158 0 q 122 16 132 7 q 106 41 113 25 q 100 83 100 57 l 100 97 l 172 97 q 361 118 283 97 l 361 415 l 203 415 q 163 420 182 415 q 131 438 144 425 q 108 474 117 451 q 100 533 100 497 q 112 650 100 590 q 153 765 124 710 q 233 867 183 821 q 361 943 283 914 l 361 972 q 366 1018 361 1001 q 381 1043 371 1035 q 408 1053 392 1051 q 446 1056 424 1056 l 458 1056 l 458 971 m 361 519 l 361 818 q 287 751 314 789 q 246 672 260 713 q 228 591 232 631 q 225 519 225 551 l 361 519 m 458 415 l 458 154 q 535 212 506 179 q 580 280 564 244 q 601 350 596 315 q 607 415 607 385 l 458 415 z "},"|":{"ha":694,"x_min":347,"x_max":444,"o":"m 444 14 q 428 -53 444 -36 q 360 -69 411 -69 l 347 -69 l 347 972 q 352 1018 347 1001 q 367 1043 357 1035 q 394 1053 378 1051 q 432 1056 410 1056 l 444 1056 l 444 14 z "},"`":{"ha":658,"x_min":268,"x_max":611,"o":"m 581 861 q 478 883 532 869 q 376 913 424 896 q 299 949 329 929 q 268 993 268 969 q 303 1072 268 1019 l 321 1100 l 611 918 l 581 861 z "},"à":{"ha":1079,"x_min":264,"x_max":1343,"o":"m 389 104 q 463 119 422 104 q 547 163 504 133 q 630 238 589 193 q 702 345 671 283 q 753 486 733 407 q 772 663 772 565 l 772 750 l 822 750 q 926 624 926 750 q 918 551 926 586 q 897 485 910 517 l 897 97 l 1343 97 q 1335 48 1343 67 q 1313 19 1326 29 q 1281 4 1299 8 q 1246 0 1264 0 l 857 0 q 826 3 842 0 q 799 16 811 7 q 780 41 788 25 q 772 83 772 57 l 772 275 q 689 158 735 210 q 593 69 643 106 q 491 13 543 33 q 389 -7 439 -7 q 328 3 353 -7 q 290 29 304 13 q 269 69 275 46 q 264 118 264 92 l 264 460 q 281 595 264 538 q 335 690 297 653 q 433 746 372 728 q 579 764 493 764 q 671 742 639 764 q 703 667 703 719 l 703 653 l 579 653 q 494 645 529 653 q 435 616 458 638 q 400 557 411 594 q 389 460 389 519 l 389 104 m 721 861 q 618 883 672 869 q 517 913 564 896 q 439 949 469 929 q 408 993 408 969 q 443 1072 408 1019 l 461 1100 l 751 918 l 721 861 z "},"è":{"ha":888,"x_min":208,"x_max":1151,"o":"m 335 278 q 340 181 335 217 q 364 126 344 144 q 423 102 383 107 q 532 97 463 97 l 1151 97 q 1143 48 1151 67 q 1121 19 1135 29 q 1090 4 1107 8 q 1054 0 1072 0 l 532 0 q 353 12 418 0 q 256 55 289 24 q 216 140 224 86 q 208 278 208 193 l 208 335 q 224 536 208 454 q 294 669 240 618 q 448 742 347 719 q 719 764 549 764 q 818 728 792 764 q 844 640 844 692 q 824 463 844 533 q 761 351 804 393 q 651 293 718 310 q 489 276 583 276 q 435 291 451 276 q 419 349 419 306 l 419 378 l 529 382 q 617 392 581 383 q 676 428 653 401 q 709 508 699 456 q 719 653 719 561 q 517 643 593 653 q 401 600 442 633 q 347 503 360 567 q 335 333 335 440 l 335 278 m 667 861 q 564 883 618 869 q 463 913 510 896 q 385 949 415 929 q 354 993 354 969 q 389 1072 354 1019 l 407 1100 l 697 918 l 667 861 z "},"ì":{"ha":571,"x_min":156,"x_max":835,"o":"m 835 97 q 826 48 835 67 q 804 19 818 29 q 773 4 790 8 q 738 0 756 0 l 349 0 q 318 3 333 0 q 291 16 303 7 q 272 41 279 25 q 264 83 264 57 l 264 722 q 272 742 264 733 q 292 750 281 750 l 360 750 q 379 742 371 750 q 389 722 388 733 l 389 97 l 835 97 m 468 861 q 365 883 419 869 q 264 913 311 896 q 186 949 217 929 q 156 993 156 969 q 190 1072 156 1019 l 208 1100 l 499 918 l 468 861 z "},"ò":{"ha":1026,"x_min":264,"x_max":1388,"o":"m 689 739 q 714 810 689 781 q 789 840 739 840 q 862 814 836 840 q 890 750 888 788 l 1388 750 q 1357 664 1388 689 q 1290 639 1326 639 l 914 639 l 914 500 q 785 124 914 247 q 389 0 657 0 q 326 10 350 0 q 288 36 301 19 q 269 76 274 53 q 264 125 264 99 l 264 460 q 281 595 264 538 q 335 690 297 653 q 433 746 372 728 q 579 764 493 764 q 640 742 618 764 q 661 667 661 719 l 661 653 l 579 653 q 494 645 529 653 q 435 616 458 638 q 400 557 411 594 q 389 460 389 519 l 389 111 q 568 131 493 111 q 692 195 643 150 q 765 315 742 240 q 789 500 789 389 l 789 639 q 714 668 739 639 q 689 739 689 697 m 694 861 q 592 883 646 869 q 490 913 538 896 q 413 949 443 929 q 382 993 382 969 q 417 1072 382 1019 l 435 1100 l 725 918 l 694 861 z "},"ù":{"ha":1065,"x_min":264,"x_max":1329,"o":"m 389 104 q 503 137 439 104 q 624 238 567 169 q 719 412 681 307 q 758 663 758 517 l 758 750 l 808 750 q 913 624 913 750 q 904 551 913 586 q 883 485 896 517 l 883 97 l 1329 97 q 1321 48 1329 67 q 1299 19 1313 29 q 1267 4 1285 8 q 1232 0 1250 0 l 843 0 q 813 3 828 0 q 785 16 797 7 q 766 41 774 25 q 758 83 758 57 l 758 267 q 678 153 722 204 q 587 67 635 103 q 488 13 539 32 q 389 -7 438 -7 q 328 3 353 -7 q 290 29 304 13 q 269 69 275 46 q 264 118 264 92 l 264 722 q 272 742 264 733 q 292 750 281 750 l 360 750 q 380 742 371 750 q 389 722 389 733 l 389 104 m 714 861 q 611 883 665 869 q 510 913 557 896 q 432 949 463 929 q 401 993 401 969 q 436 1072 401 1019 l 454 1100 l 744 918 l 714 861 z "},"":{"ha":1338,"x_min":167,"x_max":1171,"o":"m 800 -124 q 766 -142 781 -129 q 733 -156 751 -156 q 701 -149 718 -156 q 669 -142 685 -142 q 637 -150 653 -142 q 606 -158 621 -158 q 586 -153 594 -158 q 569 -141 578 -147 q 551 -129 561 -135 q 529 -124 542 -124 q 512 -125 521 -124 q 496 -126 503 -126 q 472 -120 482 -126 q 454 -106 463 -114 q 439 -89 446 -97 q 425 -76 432 -81 q 404 -69 413 -71 q 389 -66 396 -67 q 376 -65 382 -65 q 361 -58 369 -64 q 347 -44 351 -53 q 338 -26 342 -36 q 330 -8 333 -17 q 319 6 326 0 q 291 19 306 17 q 265 39 276 22 q 255 72 254 58 q 244 104 256 85 q 233 117 240 110 q 217 131 225 124 q 203 149 208 139 q 197 172 197 158 q 199 190 197 182 q 201 207 201 199 q 196 226 201 217 q 184 244 190 235 q 172 263 178 253 q 167 283 167 272 q 175 314 167 299 q 183 344 183 329 q 175 375 183 363 q 167 403 167 388 q 172 425 167 414 q 184 447 178 436 q 196 467 190 457 q 201 488 201 478 q 201 505 201 496 q 200 522 200 514 q 206 544 200 535 q 219 560 211 553 q 235 574 226 567 q 249 589 243 581 q 256 619 256 600 q 264 649 257 638 q 290 667 272 663 q 319 682 308 671 q 337 710 331 693 q 354 739 343 728 q 388 752 368 750 q 425 763 408 754 q 440 776 433 767 q 455 793 447 785 q 472 808 463 801 q 493 815 481 815 q 510 814 501 815 q 529 813 519 813 q 551 817 542 813 q 569 828 561 822 q 586 840 578 835 q 606 844 594 844 q 636 836 619 844 q 667 828 653 828 q 698 836 682 828 q 729 844 714 844 q 752 839 743 844 q 769 827 761 833 q 787 815 778 821 q 808 810 796 810 q 826 812 817 810 q 847 814 836 814 q 869 808 861 814 q 885 794 878 803 q 898 778 892 786 q 914 764 904 769 q 945 755 929 756 q 976 743 961 754 q 993 717 990 733 q 1008 689 996 701 q 1046 667 1024 675 q 1079 639 1068 658 q 1084 610 1086 628 q 1089 581 1082 592 q 1103 565 1094 571 q 1119 551 1111 558 q 1133 535 1128 544 q 1139 513 1139 526 q 1138 494 1139 503 q 1138 478 1138 486 q 1142 454 1138 465 q 1153 433 1147 443 q 1165 414 1160 424 q 1171 393 1171 404 q 1163 365 1171 378 q 1156 339 1156 353 q 1163 308 1156 324 q 1171 278 1171 293 q 1164 260 1169 267 q 1152 247 1158 254 q 1141 232 1146 240 q 1136 211 1136 224 q 1138 189 1136 200 q 1139 167 1139 178 q 1133 143 1139 151 q 1120 128 1128 135 q 1105 117 1113 122 q 1092 103 1097 111 q 1081 67 1083 88 q 1067 32 1078 46 q 1043 17 1057 21 q 1018 1 1029 13 q 998 -30 1006 -11 q 976 -58 990 -49 q 943 -72 963 -68 q 908 -83 924 -75 q 894 -96 900 -89 q 881 -109 888 -103 q 867 -119 875 -115 q 846 -124 860 -124 q 830 -123 838 -124 q 814 -122 822 -122 q 800 -124 804 -122 m 764 4 q 776 6 768 6 q 787 5 782 6 q 797 4 792 4 q 824 16 818 4 q 843 33 831 28 q 868 43 854 40 q 892 53 882 46 q 908 73 903 60 q 922 94 914 86 q 940 106 929 103 q 958 117 951 108 q 967 143 965 128 q 976 169 969 158 q 986 181 981 176 q 997 189 992 185 q 1006 199 1003 193 q 1010 218 1010 206 q 1009 232 1010 225 q 1008 246 1008 239 q 1012 262 1008 256 q 1019 274 1015 268 q 1028 284 1024 279 q 1033 296 1032 289 q 1028 318 1033 307 q 1022 340 1022 329 q 1028 360 1022 350 q 1033 379 1033 369 q 1021 409 1033 396 q 1008 442 1008 422 q 1009 453 1008 447 q 1010 465 1010 458 q 1006 483 1010 476 q 996 494 1001 489 q 984 503 990 499 q 974 515 978 508 q 970 537 969 524 q 967 558 971 550 q 942 578 958 572 q 915 594 926 583 q 904 615 906 603 q 892 633 903 626 q 869 642 881 642 q 846 649 858 642 q 835 658 839 653 q 826 670 831 664 q 815 681 821 676 q 799 685 808 685 q 785 683 792 685 q 771 682 778 682 q 755 686 761 682 q 742 694 749 690 q 730 703 736 699 q 714 707 724 707 q 691 701 703 707 q 668 694 679 694 q 646 701 657 694 q 624 707 635 707 q 596 695 607 707 q 565 683 585 683 q 553 684 558 683 q 542 685 549 685 q 514 669 522 685 q 492 647 506 654 q 466 640 481 640 q 442 631 451 639 q 428 610 432 624 q 415 589 424 597 q 394 578 407 581 q 375 565 382 575 q 369 544 369 557 q 364 522 369 531 q 354 510 360 515 q 342 500 349 506 q 332 488 336 494 q 328 472 328 482 q 328 461 328 467 q 329 450 329 456 q 317 418 329 433 q 306 386 306 403 q 311 366 306 375 q 317 344 317 357 q 311 322 317 333 q 306 299 306 310 q 317 270 306 283 q 329 242 329 257 q 328 231 329 236 q 326 219 326 225 q 341 190 326 200 q 361 171 356 181 q 369 147 369 157 q 376 122 368 136 q 394 109 383 111 q 415 99 406 107 q 429 75 426 90 q 446 51 432 60 q 456 47 451 47 q 466 46 461 46 q 477 44 471 46 q 492 39 483 43 q 513 18 503 33 q 543 3 524 3 q 553 3 549 3 q 564 4 558 4 q 594 -7 583 4 q 619 -21 604 -18 q 644 -15 632 -21 q 669 -8 657 -8 q 692 -13 681 -8 q 715 -18 704 -18 q 739 -8 728 -18 q 764 4 750 1 m 669 579 q 761 560 718 579 q 836 510 804 542 q 887 435 868 478 q 906 343 906 392 q 887 251 906 294 q 836 176 868 208 q 761 126 804 144 q 669 107 718 107 q 578 126 621 107 q 503 176 535 144 q 452 251 471 208 q 433 343 433 294 q 452 435 433 392 q 503 510 471 478 q 578 560 535 542 q 669 579 621 579 m 801 406 l 801 500 l 536 500 l 536 406 l 610 406 l 610 163 l 728 163 l 728 406 l 801 406 z "},"ł":{"ha":571,"x_min":115,"x_max":835,"o":"m 264 524 l 264 1056 l 288 1056 q 399 1030 365 1056 q 433 938 433 1004 q 421 773 433 864 q 389 588 408 682 l 443 615 q 486 629 471 629 q 519 615 504 629 q 554 563 535 600 l 389 478 l 389 97 l 835 97 q 826 48 835 67 q 804 19 818 29 q 773 4 790 8 q 738 0 756 0 l 349 0 q 318 3 333 0 q 291 16 303 7 q 272 41 279 25 q 264 83 264 57 l 264 414 l 226 396 q 182 382 199 382 q 149 397 164 382 q 115 449 135 411 l 264 524 z "},"Ł":{"ha":708,"x_min":65,"x_max":972,"o":"m 222 486 l 222 528 q 243 760 222 669 q 309 905 264 851 q 424 979 354 958 q 593 1000 494 1000 l 615 1000 q 676 976 663 1000 q 690 925 690 953 l 690 889 l 593 889 q 483 879 529 889 q 408 835 438 869 q 363 733 378 800 q 347 550 349 665 l 393 574 q 436 588 421 588 q 469 573 454 588 q 504 521 485 558 l 347 440 l 347 97 l 972 97 q 964 48 972 67 q 942 19 956 29 q 910 4 928 8 q 875 0 893 0 l 181 0 q 145 4 163 0 q 114 19 128 8 q 92 48 100 29 q 83 97 83 67 l 222 97 l 222 378 l 176 354 q 132 340 149 340 q 99 355 114 340 q 65 407 85 369 l 222 486 z "},"Ð":{"ha":990,"x_min":90,"x_max":1254,"o":"m 932 304 q 910 190 932 246 q 825 97 888 135 l 1254 97 q 1246 48 1254 67 q 1224 19 1238 29 q 1192 4 1210 8 q 1157 0 1175 0 l 208 0 q 178 3 193 0 q 151 16 163 7 q 132 41 139 25 q 125 83 125 57 l 125 97 l 582 97 q 689 117 646 97 q 758 168 732 138 q 796 235 785 199 q 807 304 807 271 q 783 472 807 385 q 706 638 760 560 q 563 778 651 717 q 347 868 475 839 l 347 542 l 601 542 q 587 469 601 494 q 526 444 572 444 l 347 444 l 347 250 q 340 208 347 224 q 320 183 332 192 q 293 170 308 174 q 263 167 278 167 l 222 167 l 222 444 l 90 444 q 104 517 90 492 q 165 542 118 542 l 222 542 l 222 886 q 185 888 203 888 q 147 889 167 889 l 147 917 q 173 984 147 968 q 231 1000 199 1000 q 492 948 365 1000 q 716 803 618 896 q 873 582 814 710 q 932 304 932 454 z "},"Á":{"ha":1082,"x_min":144,"x_max":1346,"o":"m 1346 97 q 1338 48 1346 67 q 1315 19 1329 29 q 1284 4 1301 8 q 1249 0 1267 0 l 814 0 q 783 3 799 0 q 756 16 768 7 q 738 41 744 25 q 731 83 731 57 l 731 415 l 308 415 q 279 261 289 343 q 269 83 269 179 q 247 15 269 31 q 193 0 224 0 l 144 0 l 144 83 q 176 402 144 264 q 260 642 207 540 q 385 813 314 744 q 535 922 456 881 q 697 982 614 964 q 856 1000 779 1000 q 917 976 903 1000 q 931 925 931 953 l 931 889 l 856 889 l 856 97 l 1346 97 m 731 875 q 507 760 608 847 q 343 519 406 674 l 731 519 l 731 875 m 447 1126 l 739 1308 l 757 1281 q 790 1201 790 1229 q 760 1158 790 1178 q 683 1121 729 1138 q 581 1091 636 1104 q 479 1069 526 1078 l 447 1126 z "},"Í":{"ha":611,"x_min":125,"x_max":875,"o":"m 264 97 l 264 875 l 200 875 q 139 899 153 875 q 125 950 125 922 l 125 986 l 444 986 q 487 978 471 986 q 512 959 503 971 q 524 932 521 947 q 528 901 528 917 l 528 875 l 389 875 l 389 97 l 875 97 q 867 48 875 67 q 844 19 858 29 q 813 4 831 8 q 778 0 796 0 l 222 0 q 187 4 204 0 q 156 19 169 8 q 133 48 142 29 q 125 97 125 67 l 264 97 m 157 1126 l 449 1308 l 467 1281 q 500 1201 500 1229 q 469 1158 500 1178 q 392 1121 439 1138 q 291 1091 346 1104 q 189 1069 236 1078 l 157 1126 z "},"Ó":{"ha":1113,"x_min":188,"x_max":1349,"o":"m 958 607 q 899 287 958 410 q 715 97 839 164 l 1349 97 q 1340 48 1349 67 q 1318 19 1332 29 q 1287 4 1304 8 q 1251 0 1269 0 l 297 0 q 241 9 263 0 q 208 34 219 18 q 192 72 196 50 q 188 117 188 93 l 188 392 q 228 667 188 551 q 349 856 268 782 q 555 965 431 929 q 849 1000 679 1000 q 905 991 883 1000 q 938 966 926 982 q 954 928 950 950 q 958 883 958 907 l 958 607 m 313 97 q 550 127 451 97 q 712 219 649 157 q 804 377 775 281 q 833 607 833 474 l 833 889 q 596 861 694 889 q 434 774 497 833 q 342 619 371 714 q 313 392 313 525 l 313 97 m 447 1126 l 739 1308 l 757 1281 q 790 1201 790 1229 q 760 1158 790 1178 q 683 1121 729 1138 q 581 1091 636 1104 q 479 1069 526 1078 l 447 1126 z "},"Ú":{"ha":1135,"x_min":222,"x_max":1399,"o":"m 815 482 q 713 292 771 382 q 593 135 656 203 q 467 26 531 67 q 347 -14 403 -14 q 287 -4 311 -14 q 248 22 263 6 q 228 62 233 39 q 222 111 222 85 l 222 958 q 231 978 222 969 q 250 986 239 986 l 319 986 q 339 978 331 986 q 347 958 347 969 l 347 97 q 423 130 376 97 q 522 219 469 163 q 626 352 574 275 q 720 519 678 429 q 789 705 763 608 q 815 899 815 801 l 815 986 l 865 986 q 969 860 969 986 q 961 788 969 822 q 940 721 953 753 l 940 97 l 1399 97 q 1390 48 1399 67 q 1368 19 1382 29 q 1337 4 1354 8 q 1301 0 1319 0 l 900 0 q 869 3 885 0 q 842 16 854 7 q 823 41 831 25 q 815 83 815 57 l 815 482 m 439 1126 l 731 1308 l 749 1281 q 782 1201 782 1229 q 751 1158 782 1178 q 674 1121 721 1138 q 573 1091 628 1104 q 471 1069 518 1078 l 439 1126 z "},"É":{"ha":963,"x_min":213,"x_max":1226,"o":"m 1226 97 q 1218 48 1226 67 q 1196 19 1210 29 q 1165 4 1182 8 q 1129 0 1147 0 l 338 0 q 288 3 311 0 q 249 19 265 7 q 222 53 232 31 q 213 111 213 75 q 222 180 213 142 q 249 258 231 218 q 293 339 267 299 q 356 415 319 379 q 310 420 331 415 q 274 437 289 425 q 249 470 258 449 q 240 526 240 492 q 263 631 240 576 q 328 739 286 686 q 431 839 371 792 q 564 922 490 886 q 723 979 638 958 q 903 1000 808 1000 q 964 976 950 1000 q 978 925 978 953 l 978 889 l 903 889 q 653 849 757 889 q 482 750 549 808 q 383 628 415 692 q 351 519 351 565 l 500 519 q 587 549 540 539 q 686 560 633 560 q 733 553 710 560 q 776 529 757 546 q 808 485 796 513 q 819 415 819 457 l 539 415 q 436 342 478 383 q 369 256 394 300 q 334 171 344 213 q 324 97 324 129 l 1226 97 m 493 1126 l 785 1308 l 803 1281 q 836 1201 836 1229 q 806 1158 836 1178 q 728 1121 775 1138 q 627 1091 682 1104 q 525 1069 572 1078 l 493 1126 z "},"Ë":{"ha":963,"x_min":213,"x_max":1226,"o":"m 1226 97 q 1218 48 1226 67 q 1196 19 1210 29 q 1165 4 1182 8 q 1129 0 1147 0 l 338 0 q 288 3 311 0 q 249 19 265 7 q 222 53 232 31 q 213 111 213 75 q 222 180 213 142 q 249 258 231 218 q 293 339 267 299 q 356 415 319 379 q 310 420 331 415 q 274 437 289 425 q 249 470 258 449 q 240 526 240 492 q 263 631 240 576 q 328 739 286 686 q 431 839 371 792 q 564 922 490 886 q 723 979 638 958 q 903 1000 808 1000 q 964 976 950 1000 q 978 925 978 953 l 978 889 l 903 889 q 653 849 757 889 q 482 750 549 808 q 383 628 415 692 q 351 519 351 565 l 500 519 q 587 549 540 539 q 686 560 633 560 q 733 553 710 560 q 776 529 757 546 q 808 485 796 513 q 819 415 819 457 l 539 415 q 436 342 478 383 q 369 256 394 300 q 334 171 344 213 q 324 97 324 129 l 1226 97 m 383 1186 q 404 1247 383 1221 q 468 1272 425 1272 q 532 1247 510 1272 q 554 1186 554 1221 q 532 1126 554 1150 q 468 1101 510 1101 q 404 1126 425 1101 q 383 1186 383 1150 m 692 1186 q 713 1247 692 1221 q 776 1272 733 1272 q 840 1247 818 1272 q 863 1186 863 1221 q 840 1126 863 1150 q 776 1101 818 1101 q 713 1126 733 1101 q 692 1186 692 1150 z "},"\\":{"ha":611,"x_min":139,"x_max":546,"o":"m 139 1056 l 179 1056 q 218 1053 201 1056 q 247 1043 235 1051 q 269 1018 260 1035 q 286 972 278 1001 l 546 0 l 506 0 q 433 17 454 0 q 399 83 413 33 l 139 1056 z "},"Ö":{"ha":1113,"x_min":188,"x_max":1349,"o":"m 958 607 q 899 287 958 410 q 715 97 839 164 l 1349 97 q 1340 48 1349 67 q 1318 19 1332 29 q 1287 4 1304 8 q 1251 0 1269 0 l 297 0 q 241 9 263 0 q 208 34 219 18 q 192 72 196 50 q 188 117 188 93 l 188 392 q 228 667 188 551 q 349 856 268 782 q 555 965 431 929 q 849 1000 679 1000 q 905 991 883 1000 q 938 966 926 982 q 954 928 950 950 q 958 883 958 907 l 958 607 m 313 97 q 550 127 451 97 q 712 219 649 157 q 804 377 775 281 q 833 607 833 474 l 833 889 q 596 861 694 889 q 434 774 497 833 q 342 619 371 714 q 313 392 313 525 l 313 97 m 379 1186 q 400 1247 379 1221 q 464 1272 421 1272 q 528 1247 506 1272 q 550 1186 550 1221 q 528 1126 550 1150 q 464 1101 506 1101 q 400 1126 421 1101 q 379 1186 379 1150 m 688 1186 q 708 1247 688 1221 q 772 1272 729 1272 q 836 1247 814 1272 q 858 1186 858 1221 q 836 1126 858 1150 q 772 1101 814 1101 q 708 1126 729 1101 q 688 1186 688 1150 z "},"Ý":{"ha":1135,"x_min":222,"x_max":1399,"o":"m 815 482 q 713 292 771 382 q 593 135 656 203 q 467 26 531 67 q 347 -14 403 -14 q 287 -4 311 -14 q 248 22 263 6 q 228 62 233 39 q 222 111 222 85 l 222 958 q 231 978 222 969 q 250 986 239 986 l 319 986 q 339 978 331 986 q 347 958 347 969 l 347 97 q 423 130 376 97 q 522 219 469 163 q 626 352 574 275 q 720 519 678 429 q 789 705 763 608 q 815 899 815 801 l 815 986 l 865 986 q 969 860 969 986 q 961 788 969 822 q 940 721 953 753 l 940 97 l 1399 97 q 1390 48 1399 67 q 1368 19 1382 29 q 1337 4 1354 8 q 1301 0 1319 0 l 939 0 q 913 -211 936 -128 q 846 -343 890 -294 q 733 -411 801 -392 q 569 -431 664 -431 q 508 -408 525 -431 q 492 -335 492 -386 l 492 -319 l 569 -319 q 681 -309 635 -319 q 758 -262 728 -299 q 801 -153 788 -225 q 815 42 815 -82 l 815 482 m 446 1126 l 738 1308 l 756 1281 q 789 1201 789 1229 q 758 1158 789 1178 q 681 1121 728 1138 q 580 1091 635 1104 q 478 1069 525 1078 l 446 1126 z "},"Ï":{"ha":611,"x_min":88,"x_max":875,"o":"m 264 97 l 264 875 l 200 875 q 139 899 153 875 q 125 950 125 922 l 125 986 l 444 986 q 487 978 471 986 q 512 959 503 971 q 524 932 521 947 q 528 901 528 917 l 528 875 l 389 875 l 389 97 l 875 97 q 867 48 875 67 q 844 19 858 29 q 813 4 831 8 q 778 0 796 0 l 222 0 q 187 4 204 0 q 156 19 169 8 q 133 48 142 29 q 125 97 125 67 l 264 97 m 88 1186 q 108 1247 88 1221 q 172 1272 129 1272 q 236 1247 214 1272 q 258 1186 258 1221 q 236 1126 258 1150 q 172 1101 214 1101 q 108 1126 129 1101 q 88 1186 88 1150 m 396 1186 q 417 1247 396 1221 q 481 1272 438 1272 q 544 1247 522 1272 q 567 1186 567 1221 q 544 1126 567 1150 q 481 1101 522 1101 q 417 1126 438 1101 q 396 1186 396 1150 z "},"‚":{"ha":476,"x_min":269,"x_max":483,"o":"m 269 -218 q 294 -167 282 -193 q 317 -105 307 -140 q 333 -22 326 -69 q 339 94 339 26 l 339 171 l 382 171 q 459 144 435 171 q 483 57 483 117 q 469 -30 483 15 q 431 -117 454 -75 q 378 -197 407 -160 q 321 -261 349 -235 l 269 -218 z "},"„":{"ha":726,"x_min":269,"x_max":733,"o":"m 519 -218 q 544 -167 532 -193 q 567 -105 557 -140 q 583 -22 576 -69 q 589 94 589 26 l 589 171 l 632 171 q 709 144 685 171 q 733 57 733 117 q 719 -30 733 15 q 681 -117 704 -75 q 628 -197 657 -160 q 571 -261 599 -235 l 519 -218 m 269 -218 q 294 -167 282 -193 q 317 -105 307 -140 q 333 -22 326 -69 q 339 94 339 26 l 339 171 l 382 171 q 459 144 435 171 q 483 57 483 117 q 469 -30 483 15 q 431 -117 454 -75 q 378 -197 407 -160 q 321 -261 349 -235 l 269 -218 z "},"Ø":{"ha":1057,"x_min":160,"x_max":1321,"o":"m 725 997 q 772 999 749 999 q 821 1000 796 1000 q 877 991 856 1000 q 910 966 899 982 q 926 928 922 950 q 931 883 931 907 l 931 607 q 871 287 931 410 q 688 97 811 164 l 1321 97 q 1313 48 1321 67 q 1290 19 1304 29 q 1259 4 1276 8 q 1224 0 1242 0 l 458 0 l 444 -56 q 430 -97 438 -81 q 410 -123 422 -114 q 380 -135 397 -132 q 338 -139 363 -139 l 325 -139 l 361 0 l 269 0 q 213 9 235 0 q 180 34 192 18 q 164 72 168 50 q 160 117 160 93 l 160 392 q 274 804 160 660 q 625 986 389 949 l 640 1042 q 658 1088 649 1071 q 679 1113 667 1104 q 708 1123 692 1121 q 747 1125 725 1125 l 760 1125 l 725 997 m 806 889 q 749 888 776 889 q 694 883 721 886 l 490 118 q 731 276 656 157 q 806 607 806 396 l 806 889 m 285 97 q 389 101 339 97 l 593 868 q 358 715 431 829 q 285 392 285 600 l 285 97 z "},"ø":{"ha":1026,"x_min":264,"x_max":1388,"o":"m 563 129 q 663 172 621 143 q 733 244 706 200 q 775 352 761 289 q 789 500 789 415 l 789 639 q 816 717 789 685 q 899 750 843 750 l 1388 750 q 1357 664 1388 689 q 1290 639 1326 639 l 914 639 l 914 500 q 819 163 914 283 q 531 10 725 42 l 493 -129 q 478 -171 486 -154 q 458 -197 471 -187 q 428 -209 446 -206 q 386 -212 411 -212 l 374 -212 l 431 0 l 389 0 q 326 10 350 0 q 288 36 301 19 q 269 76 274 53 q 264 125 264 99 l 264 460 q 281 595 264 538 q 335 690 297 653 q 433 746 372 728 q 579 764 493 764 q 631 750 611 764 l 689 968 q 706 1014 697 997 q 728 1039 715 1031 q 757 1049 740 1047 q 796 1051 774 1051 l 808 1051 l 563 129 m 460 113 l 604 653 l 579 653 q 494 645 529 653 q 435 616 458 638 q 400 557 411 594 q 389 460 389 519 l 389 111 l 460 113 z "},"\"":{"ha":514,"x_min":111,"x_max":472,"o":"m 229 779 q 206 718 229 732 q 154 704 182 704 l 111 704 l 111 1024 q 138 1091 111 1075 q 196 1107 164 1107 l 229 1107 l 229 779 m 472 779 q 449 718 472 732 q 397 704 425 704 l 354 704 l 354 1024 q 381 1091 354 1075 q 439 1107 407 1107 l 472 1107 l 472 779 z "},"'":{"ha":271,"x_min":111,"x_max":229,"o":"m 229 779 q 206 718 229 732 q 154 704 182 704 l 111 704 l 111 1024 q 138 1091 111 1075 q 196 1107 164 1107 l 229 1107 l 229 779 z "},"ˆ":{"ha":658,"x_min":300,"x_max":758,"o":"m 725 863 q 665 881 694 868 q 608 908 635 893 q 561 938 582 922 q 529 965 540 953 q 451 906 504 936 q 333 863 397 876 l 300 918 l 501 1100 l 557 1100 l 758 918 l 725 863 z "},"â":{"ha":1079,"x_min":264,"x_max":1343,"o":"m 389 104 q 463 119 422 104 q 547 163 504 133 q 630 238 589 193 q 702 345 671 283 q 753 486 733 407 q 772 663 772 565 l 772 750 l 822 750 q 926 624 926 750 q 918 551 926 586 q 897 485 910 517 l 897 97 l 1343 97 q 1335 48 1343 67 q 1313 19 1326 29 q 1281 4 1299 8 q 1246 0 1264 0 l 857 0 q 826 3 842 0 q 799 16 811 7 q 780 41 788 25 q 772 83 772 57 l 772 275 q 689 158 735 210 q 593 69 643 106 q 491 13 543 33 q 389 -7 439 -7 q 328 3 353 -7 q 290 29 304 13 q 269 69 275 46 q 264 118 264 92 l 264 460 q 281 595 264 538 q 335 690 297 653 q 433 746 372 728 q 579 764 493 764 q 671 742 639 764 q 703 667 703 719 l 703 653 l 579 653 q 494 645 529 653 q 435 616 458 638 q 400 557 411 594 q 389 460 389 519 l 389 104 m 804 863 q 744 881 774 868 q 688 908 714 893 q 640 938 661 922 q 608 965 619 953 q 530 906 583 936 q 413 863 476 876 l 379 918 l 581 1100 l 636 1100 l 838 918 l 804 863 z "},"ê":{"ha":888,"x_min":208,"x_max":1151,"o":"m 335 278 q 340 181 335 217 q 364 126 344 144 q 423 102 383 107 q 532 97 463 97 l 1151 97 q 1143 48 1151 67 q 1121 19 1135 29 q 1090 4 1107 8 q 1054 0 1072 0 l 532 0 q 353 12 418 0 q 256 55 289 24 q 216 140 224 86 q 208 278 208 193 l 208 335 q 224 536 208 454 q 294 669 240 618 q 448 742 347 719 q 719 764 549 764 q 818 728 792 764 q 844 640 844 692 q 824 463 844 533 q 761 351 804 393 q 651 293 718 310 q 489 276 583 276 q 435 291 451 276 q 419 349 419 306 l 419 378 l 529 382 q 617 392 581 383 q 676 428 653 401 q 709 508 699 456 q 719 653 719 561 q 517 643 593 653 q 401 600 442 633 q 347 503 360 567 q 335 333 335 440 l 335 278 m 768 863 q 708 881 738 868 q 651 908 678 893 q 604 938 625 922 q 572 965 583 953 q 494 906 547 936 q 376 863 440 876 l 343 918 l 544 1100 l 600 1100 l 801 918 l 768 863 z "},"î":{"ha":571,"x_min":96,"x_max":835,"o":"m 835 97 q 826 48 835 67 q 804 19 818 29 q 773 4 790 8 q 738 0 756 0 l 349 0 q 318 3 333 0 q 291 16 303 7 q 272 41 279 25 q 264 83 264 57 l 264 722 q 272 742 264 733 q 292 750 281 750 l 360 750 q 379 742 371 750 q 389 722 388 733 l 389 97 l 835 97 m 521 863 q 460 881 490 868 q 404 908 431 893 q 357 938 378 922 q 325 965 336 953 q 247 906 300 936 q 129 863 193 876 l 96 918 l 297 1100 l 353 1100 l 554 918 l 521 863 z "},"ô":{"ha":1026,"x_min":264,"x_max":1388,"o":"m 689 739 q 714 810 689 781 q 789 840 739 840 q 862 814 836 840 q 890 750 888 788 l 1388 750 q 1357 664 1388 689 q 1290 639 1326 639 l 914 639 l 914 500 q 785 124 914 247 q 389 0 657 0 q 326 10 350 0 q 288 36 301 19 q 269 76 274 53 q 264 125 264 99 l 264 460 q 281 595 264 538 q 335 690 297 653 q 433 746 372 728 q 579 764 493 764 q 640 742 618 764 q 661 667 661 719 l 661 653 l 579 653 q 494 645 529 653 q 435 616 458 638 q 400 557 411 594 q 389 460 389 519 l 389 111 q 568 131 493 111 q 692 195 643 150 q 765 315 742 240 q 789 500 789 389 l 789 639 q 714 668 739 639 q 689 739 689 697 m 792 863 q 731 881 761 868 q 675 908 701 893 q 628 938 649 922 q 596 965 607 953 q 517 906 571 936 q 400 863 464 876 l 367 918 l 568 1100 l 624 1100 l 825 918 l 792 863 z "},"û":{"ha":1065,"x_min":264,"x_max":1329,"o":"m 389 104 q 503 137 439 104 q 624 238 567 169 q 719 412 681 307 q 758 663 758 517 l 758 750 l 808 750 q 913 624 913 750 q 904 551 913 586 q 883 485 896 517 l 883 97 l 1329 97 q 1321 48 1329 67 q 1299 19 1313 29 q 1267 4 1285 8 q 1232 0 1250 0 l 843 0 q 813 3 828 0 q 785 16 797 7 q 766 41 774 25 q 758 83 758 57 l 758 267 q 678 153 722 204 q 587 67 635 103 q 488 13 539 32 q 389 -7 438 -7 q 328 3 353 -7 q 290 29 304 13 q 269 69 275 46 q 264 118 264 92 l 264 722 q 272 742 264 733 q 292 750 281 750 l 360 750 q 380 742 371 750 q 389 722 389 733 l 389 104 m 769 863 q 709 881 739 868 q 653 908 679 893 q 606 938 626 922 q 574 965 585 953 q 495 906 549 936 q 378 863 442 876 l 344 918 l 546 1100 l 601 1100 l 803 918 l 769 863 z "},"Ä":{"ha":1082,"x_min":144,"x_max":1346,"o":"m 1346 97 q 1338 48 1346 67 q 1315 19 1329 29 q 1284 4 1301 8 q 1249 0 1267 0 l 814 0 q 783 3 799 0 q 756 16 768 7 q 738 41 744 25 q 731 83 731 57 l 731 415 l 308 415 q 279 261 289 343 q 269 83 269 179 q 247 15 269 31 q 193 0 224 0 l 144 0 l 144 83 q 176 402 144 264 q 260 642 207 540 q 385 813 314 744 q 535 922 456 881 q 697 982 614 964 q 856 1000 779 1000 q 917 976 903 1000 q 931 925 931 953 l 931 889 l 856 889 l 856 97 l 1346 97 m 731 875 q 507 760 608 847 q 343 519 406 674 l 731 519 l 731 875 m 401 1186 q 422 1247 401 1221 q 486 1272 443 1272 q 550 1247 528 1272 q 572 1186 572 1221 q 550 1126 572 1150 q 486 1101 528 1101 q 422 1126 443 1101 q 401 1186 401 1150 m 710 1186 q 731 1247 710 1221 q 794 1272 751 1272 q 858 1247 836 1272 q 881 1186 881 1221 q 858 1126 881 1150 q 794 1101 836 1101 q 731 1126 751 1101 q 710 1186 710 1150 z "},"Â":{"ha":1082,"x_min":144,"x_max":1346,"o":"m 1346 97 q 1338 48 1346 67 q 1315 19 1329 29 q 1284 4 1301 8 q 1249 0 1267 0 l 814 0 q 783 3 799 0 q 756 16 768 7 q 738 41 744 25 q 731 83 731 57 l 731 415 l 308 415 q 279 261 289 343 q 269 83 269 179 q 247 15 269 31 q 193 0 224 0 l 144 0 l 144 83 q 176 402 144 264 q 260 642 207 540 q 385 813 314 744 q 535 922 456 881 q 697 982 614 964 q 856 1000 779 1000 q 917 976 903 1000 q 931 925 931 953 l 931 889 l 856 889 l 856 97 l 1346 97 m 731 875 q 507 760 608 847 q 343 519 406 674 l 731 519 l 731 875 m 829 1071 q 769 1089 799 1076 q 713 1116 739 1101 q 665 1146 686 1131 q 633 1174 644 1161 q 555 1115 608 1144 q 438 1071 501 1085 l 404 1126 l 606 1308 l 661 1308 l 863 1126 l 829 1071 z "},"Ê":{"ha":963,"x_min":213,"x_max":1226,"o":"m 1226 97 q 1218 48 1226 67 q 1196 19 1210 29 q 1165 4 1182 8 q 1129 0 1147 0 l 338 0 q 288 3 311 0 q 249 19 265 7 q 222 53 232 31 q 213 111 213 75 q 222 180 213 142 q 249 258 231 218 q 293 339 267 299 q 356 415 319 379 q 310 420 331 415 q 274 437 289 425 q 249 470 258 449 q 240 526 240 492 q 263 631 240 576 q 328 739 286 686 q 431 839 371 792 q 564 922 490 886 q 723 979 638 958 q 903 1000 808 1000 q 964 976 950 1000 q 978 925 978 953 l 978 889 l 903 889 q 653 849 757 889 q 482 750 549 808 q 383 628 415 692 q 351 519 351 565 l 500 519 q 587 549 540 539 q 686 560 633 560 q 733 553 710 560 q 776 529 757 546 q 808 485 796 513 q 819 415 819 457 l 539 415 q 436 342 478 383 q 369 256 394 300 q 334 171 344 213 q 324 97 324 129 l 1226 97 m 821 1071 q 760 1089 790 1076 q 704 1116 731 1101 q 657 1146 678 1131 q 625 1174 636 1161 q 547 1115 600 1144 q 429 1071 493 1085 l 396 1126 l 597 1308 l 653 1308 l 854 1126 l 821 1071 z "},"È":{"ha":963,"x_min":213,"x_max":1226,"o":"m 1226 97 q 1218 48 1226 67 q 1196 19 1210 29 q 1165 4 1182 8 q 1129 0 1147 0 l 338 0 q 288 3 311 0 q 249 19 265 7 q 222 53 232 31 q 213 111 213 75 q 222 180 213 142 q 249 258 231 218 q 293 339 267 299 q 356 415 319 379 q 310 420 331 415 q 274 437 289 425 q 249 470 258 449 q 240 526 240 492 q 263 631 240 576 q 328 739 286 686 q 431 839 371 792 q 564 922 490 886 q 723 979 638 958 q 903 1000 808 1000 q 964 976 950 1000 q 978 925 978 953 l 978 889 l 903 889 q 653 849 757 889 q 482 750 549 808 q 383 628 415 692 q 351 519 351 565 l 500 519 q 587 549 540 539 q 686 560 633 560 q 733 553 710 560 q 776 529 757 546 q 808 485 796 513 q 819 415 819 457 l 539 415 q 436 342 478 383 q 369 256 394 300 q 334 171 344 213 q 324 97 324 129 l 1226 97 m 804 1069 q 701 1091 756 1078 q 600 1121 647 1104 q 522 1158 553 1138 q 492 1201 492 1178 q 526 1281 492 1228 l 544 1308 l 835 1126 l 804 1069 z "},"˙":{"ha":571,"x_min":242,"x_max":413,"o":"m 242 978 q 258 1038 242 1013 q 326 1064 275 1064 q 394 1038 376 1064 q 413 978 413 1013 q 394 917 413 942 q 326 893 376 893 q 258 917 275 893 q 242 978 242 942 z "},"Ü":{"ha":1135,"x_min":222,"x_max":1399,"o":"m 815 482 q 713 292 771 382 q 593 135 656 203 q 467 26 531 67 q 347 -14 403 -14 q 287 -4 311 -14 q 248 22 263 6 q 228 62 233 39 q 222 111 222 85 l 222 958 q 231 978 222 969 q 250 986 239 986 l 319 986 q 339 978 331 986 q 347 958 347 969 l 347 97 q 423 130 376 97 q 522 219 469 163 q 626 352 574 275 q 720 519 678 429 q 789 705 763 608 q 815 899 815 801 l 815 986 l 865 986 q 969 860 969 986 q 961 788 969 822 q 940 721 953 753 l 940 97 l 1399 97 q 1390 48 1399 67 q 1368 19 1382 29 q 1337 4 1354 8 q 1301 0 1319 0 l 900 0 q 869 3 885 0 q 842 16 854 7 q 823 41 831 25 q 815 83 815 57 l 815 482 m 356 1186 q 376 1247 356 1221 q 440 1272 397 1272 q 504 1247 482 1272 q 526 1186 526 1221 q 504 1126 526 1150 q 440 1101 482 1101 q 376 1126 397 1101 q 356 1186 356 1150 m 664 1186 q 685 1247 664 1221 q 749 1272 706 1272 q 813 1247 790 1272 q 835 1186 835 1221 q 813 1126 835 1150 q 749 1101 790 1101 q 685 1126 706 1101 q 664 1186 664 1150 z "},"ÿ":{"ha":1065,"x_min":264,"x_max":1329,"o":"m 389 111 q 501 143 439 111 q 619 242 564 175 q 713 413 675 308 q 751 663 751 517 l 751 750 l 786 750 q 872 720 844 750 q 899 624 899 690 q 890 551 899 586 q 869 485 882 517 l 869 97 l 1329 97 q 1321 48 1329 67 q 1299 19 1313 29 q 1267 4 1285 8 q 1232 0 1250 0 l 868 0 q 842 -211 865 -128 q 775 -343 819 -294 q 662 -411 731 -392 q 499 -431 593 -431 q 438 -408 454 -431 q 421 -335 421 -386 l 421 -319 l 499 -319 q 610 -309 564 -319 q 687 -262 657 -299 q 731 -153 717 -225 q 744 42 744 -82 l 744 263 q 666 153 710 201 q 572 71 622 106 q 469 18 522 36 q 360 0 415 0 q 285 15 307 0 q 264 71 264 29 l 264 722 q 272 742 264 733 q 292 750 281 750 l 360 750 q 380 742 371 750 q 389 722 389 733 l 389 111 m 336 978 q 357 1038 336 1013 q 421 1064 378 1064 q 485 1038 463 1064 q 507 978 507 1013 q 485 917 507 942 q 421 893 463 893 q 357 917 378 893 q 336 978 336 942 m 644 978 q 665 1038 644 1013 q 729 1064 686 1064 q 793 1038 771 1064 q 815 978 815 1013 q 793 917 815 942 q 729 893 771 893 q 665 917 686 893 q 644 978 644 942 z "},"Ÿ":{"ha":1135,"x_min":222,"x_max":1399,"o":"m 815 482 q 713 292 771 382 q 593 135 656 203 q 467 26 531 67 q 347 -14 403 -14 q 287 -4 311 -14 q 248 22 263 6 q 228 62 233 39 q 222 111 222 85 l 222 958 q 231 978 222 969 q 250 986 239 986 l 319 986 q 339 978 331 986 q 347 958 347 969 l 347 97 q 423 130 376 97 q 522 219 469 163 q 626 352 574 275 q 720 519 678 429 q 789 705 763 608 q 815 899 815 801 l 815 986 l 865 986 q 969 860 969 986 q 961 788 969 822 q 940 721 953 753 l 940 97 l 1399 97 q 1390 48 1399 67 q 1368 19 1382 29 q 1337 4 1354 8 q 1301 0 1319 0 l 939 0 q 913 -211 936 -128 q 846 -343 890 -294 q 733 -411 801 -392 q 569 -431 664 -431 q 508 -408 525 -431 q 492 -335 492 -386 l 492 -319 l 569 -319 q 681 -309 635 -319 q 758 -262 728 -299 q 801 -153 788 -225 q 815 42 815 -82 l 815 482 m 340 1186 q 361 1247 340 1221 q 425 1272 382 1272 q 489 1247 467 1272 q 511 1186 511 1221 q 489 1126 511 1150 q 425 1101 467 1101 q 361 1126 382 1101 q 340 1186 340 1150 m 649 1186 q 669 1247 649 1221 q 733 1272 690 1272 q 797 1247 775 1272 q 819 1186 819 1221 q 797 1126 819 1150 q 733 1101 775 1101 q 669 1126 690 1101 q 649 1186 649 1150 z "},"Î":{"ha":611,"x_min":97,"x_max":875,"o":"m 264 97 l 264 875 l 200 875 q 139 899 153 875 q 125 950 125 922 l 125 986 l 444 986 q 487 978 471 986 q 512 959 503 971 q 524 932 521 947 q 528 901 528 917 l 528 875 l 389 875 l 389 97 l 875 97 q 867 48 875 67 q 844 19 858 29 q 813 4 831 8 q 778 0 796 0 l 222 0 q 187 4 204 0 q 156 19 169 8 q 133 48 142 29 q 125 97 125 67 l 264 97 m 522 1071 q 462 1089 492 1076 q 406 1116 432 1101 q 358 1146 379 1131 q 326 1174 338 1161 q 248 1115 301 1144 q 131 1071 194 1085 l 97 1126 l 299 1308 l 354 1308 l 556 1126 l 522 1071 z "},"Ì":{"ha":611,"x_min":125,"x_max":875,"o":"m 264 97 l 264 875 l 200 875 q 139 899 153 875 q 125 950 125 922 l 125 986 l 444 986 q 487 978 471 986 q 512 959 503 971 q 524 932 521 947 q 528 901 528 917 l 528 875 l 389 875 l 389 97 l 875 97 q 867 48 875 67 q 844 19 858 29 q 813 4 831 8 q 778 0 796 0 l 222 0 q 187 4 204 0 q 156 19 169 8 q 133 48 142 29 q 125 97 125 67 l 264 97 m 467 1069 q 364 1091 418 1078 q 263 1121 310 1104 q 185 1158 215 1138 q 154 1201 154 1178 q 189 1281 154 1228 l 207 1308 l 497 1126 l 467 1069 z "},"Ô":{"ha":1057,"x_min":160,"x_max":1321,"o":"m 931 607 q 871 287 931 410 q 688 97 811 164 l 1321 97 q 1313 48 1321 67 q 1290 19 1304 29 q 1259 4 1276 8 q 1224 0 1242 0 l 269 0 q 213 9 235 0 q 180 34 192 18 q 164 72 168 50 q 160 117 160 93 l 160 392 q 200 667 160 551 q 322 856 240 782 q 527 965 403 929 q 821 1000 651 1000 q 877 991 856 1000 q 910 966 899 982 q 926 928 922 950 q 931 883 931 907 l 931 607 m 285 97 q 522 127 424 97 q 684 219 621 157 q 776 377 747 281 q 806 607 806 474 l 806 889 q 568 861 667 889 q 406 774 469 833 q 314 619 343 714 q 285 392 285 525 l 285 97 m 744 1071 q 684 1089 714 1076 q 628 1116 654 1101 q 581 1146 601 1131 q 549 1174 560 1161 q 470 1115 524 1144 q 353 1071 417 1085 l 319 1126 l 521 1308 l 576 1308 l 778 1126 l 744 1071 z "},"Ò":{"ha":1057,"x_min":160,"x_max":1321,"o":"m 931 607 q 871 287 931 410 q 688 97 811 164 l 1321 97 q 1313 48 1321 67 q 1290 19 1304 29 q 1259 4 1276 8 q 1224 0 1242 0 l 269 0 q 213 9 235 0 q 180 34 192 18 q 164 72 168 50 q 160 117 160 93 l 160 392 q 200 667 160 551 q 322 856 240 782 q 527 965 403 929 q 821 1000 651 1000 q 877 991 856 1000 q 910 966 899 982 q 926 928 922 950 q 931 883 931 907 l 931 607 m 285 97 q 522 127 424 97 q 684 219 621 157 q 776 377 747 281 q 806 607 806 474 l 806 889 q 568 861 667 889 q 406 774 469 833 q 314 619 343 714 q 285 392 285 525 l 285 97 m 710 1069 q 607 1091 661 1078 q 506 1121 553 1104 q 428 1158 458 1138 q 397 1201 397 1178 q 432 1281 397 1228 l 450 1308 l 740 1126 l 710 1069 z "},"Û":{"ha":1135,"x_min":222,"x_max":1399,"o":"m 815 482 q 713 292 771 382 q 593 135 656 203 q 467 26 531 67 q 347 -14 403 -14 q 287 -4 311 -14 q 248 22 263 6 q 228 62 233 39 q 222 111 222 85 l 222 958 q 231 978 222 969 q 250 986 239 986 l 319 986 q 339 978 331 986 q 347 958 347 969 l 347 97 q 423 130 376 97 q 522 219 469 163 q 626 352 574 275 q 720 519 678 429 q 789 705 763 608 q 815 899 815 801 l 815 986 l 865 986 q 969 860 969 986 q 961 788 969 822 q 940 721 953 753 l 940 97 l 1399 97 q 1390 48 1399 67 q 1368 19 1382 29 q 1337 4 1354 8 q 1301 0 1319 0 l 900 0 q 869 3 885 0 q 842 16 854 7 q 823 41 831 25 q 815 83 815 57 l 815 482 m 775 1071 q 715 1089 744 1076 q 658 1116 685 1101 q 611 1146 632 1131 q 579 1174 590 1161 q 501 1115 554 1144 q 383 1071 447 1085 l 350 1126 l 551 1308 l 607 1308 l 808 1126 l 775 1071 z "},"Ù":{"ha":1135,"x_min":222,"x_max":1399,"o":"m 815 482 q 713 292 771 382 q 593 135 656 203 q 467 26 531 67 q 347 -14 403 -14 q 287 -4 311 -14 q 248 22 263 6 q 228 62 233 39 q 222 111 222 85 l 222 958 q 231 978 222 969 q 250 986 239 986 l 319 986 q 339 978 331 986 q 347 958 347 969 l 347 97 q 423 130 376 97 q 522 219 469 163 q 626 352 574 275 q 720 519 678 429 q 789 705 763 608 q 815 899 815 801 l 815 986 l 865 986 q 969 860 969 986 q 961 788 969 822 q 940 721 953 753 l 940 97 l 1399 97 q 1390 48 1399 67 q 1368 19 1382 29 q 1337 4 1354 8 q 1301 0 1319 0 l 900 0 q 869 3 885 0 q 842 16 854 7 q 823 41 831 25 q 815 83 815 57 l 815 482 m 726 1069 q 624 1091 678 1078 q 522 1121 569 1104 q 444 1158 475 1138 q 414 1201 414 1178 q 449 1281 414 1228 l 467 1308 l 757 1126 l 726 1069 z "},"ﬁ":{"ha":1142,"x_min":-60,"x_max":1406,"o":"m 1406 97 q 1397 48 1406 67 q 1375 19 1389 29 q 1344 4 1361 8 q 1308 0 1326 0 l 919 0 q 889 3 904 0 q 862 16 874 7 q 842 41 850 25 q 835 83 835 57 l 835 639 l 821 639 l 389 639 l 389 42 q 368 -191 389 -100 q 302 -335 347 -282 q 187 -410 257 -389 q 18 -431 117 -431 q -43 -408 -26 -431 q -60 -335 -60 -386 l -60 -319 l 18 -319 q 130 -309 83 -319 q 206 -262 176 -299 q 250 -153 236 -225 q 264 42 264 -82 l 264 639 l 83 639 q 114 725 83 700 q 181 750 144 750 l 271 750 q 308 905 282 843 q 380 1003 335 967 q 488 1055 425 1040 q 635 1069 551 1069 q 696 1047 679 1069 q 713 974 713 1025 l 713 958 l 635 958 q 541 952 582 958 q 471 924 500 946 q 423 861 442 903 q 396 750 404 819 l 860 750 l 863 750 l 931 750 q 950 742 942 750 q 960 722 958 733 l 960 97 l 1406 97 m 813 978 q 829 1038 813 1013 q 897 1064 846 1064 q 965 1038 947 1064 q 983 978 983 1013 q 965 917 983 942 q 897 893 947 893 q 829 917 846 893 q 813 978 813 942 z "},"ﬂ":{"ha":1142,"x_min":-60,"x_max":1406,"o":"m 960 97 l 1406 97 q 1397 48 1406 67 q 1375 19 1389 29 q 1344 4 1361 8 q 1308 0 1326 0 l 919 0 q 889 3 904 0 q 862 16 874 7 q 842 41 850 25 q 835 83 835 57 l 835 639 l 821 639 l 389 639 l 389 42 q 368 -191 389 -100 q 302 -335 347 -282 q 187 -410 257 -389 q 18 -431 117 -431 q -43 -408 -26 -431 q -60 -335 -60 -386 l -60 -319 l 18 -319 q 130 -309 83 -319 q 206 -262 176 -299 q 250 -153 236 -225 q 264 42 264 -82 l 264 639 l 83 639 q 114 725 83 700 q 181 750 144 750 l 271 750 q 308 905 282 843 q 380 1003 335 967 q 488 1055 425 1040 q 635 1069 551 1069 q 696 1047 679 1069 q 713 974 713 1025 l 713 958 l 635 958 q 541 952 582 958 q 471 924 500 946 q 423 861 442 903 q 396 750 404 819 l 835 750 l 835 1056 l 858 1056 q 970 1030 936 1056 q 1004 938 1004 1004 q 992 772 1004 864 q 960 586 979 681 l 960 97 z "},"⁄":{"ha":542,"x_min":163,"x_max":597,"o":"m 282 83 q 265 42 274 58 q 245 17 257 26 q 217 3 233 7 q 175 0 200 0 l 163 0 l 478 903 q 497 947 488 931 q 519 972 507 964 q 547 983 531 981 q 585 986 563 986 l 597 986 l 282 83 z "},"·":{"ha":476,"x_min":297,"x_max":485,"o":"m 297 493 q 301 530 297 513 q 316 560 306 547 q 344 580 326 572 q 390 588 363 588 q 465 560 444 588 q 485 493 485 532 q 465 426 485 453 q 390 400 444 400 q 344 407 363 400 q 316 426 326 414 q 301 456 306 439 q 297 493 297 474 z "},"À":{"ha":1082,"x_min":144,"x_max":1346,"o":"m 1346 97 q 1338 48 1346 67 q 1315 19 1329 29 q 1284 4 1301 8 q 1249 0 1267 0 l 814 0 q 783 3 799 0 q 756 16 768 7 q 738 41 744 25 q 731 83 731 57 l 731 415 l 308 415 q 279 261 289 343 q 269 83 269 179 q 247 15 269 31 q 193 0 224 0 l 144 0 l 144 83 q 176 402 144 264 q 260 642 207 540 q 385 813 314 744 q 535 922 456 881 q 697 982 614 964 q 856 1000 779 1000 q 917 976 903 1000 q 931 925 931 953 l 931 889 l 856 889 l 856 97 l 1346 97 m 731 875 q 507 760 608 847 q 343 519 406 674 l 731 519 l 731 875 m 732 1069 q 629 1091 683 1078 q 528 1121 575 1104 q 450 1158 481 1138 q 419 1201 419 1178 q 454 1281 419 1228 l 472 1308 l 763 1126 l 732 1069 z "},"¦":{"ha":694,"x_min":347,"x_max":444,"o":"m 444 715 q 428 649 444 665 q 360 632 411 632 l 347 632 l 347 972 q 352 1018 347 1001 q 367 1043 357 1035 q 394 1053 378 1051 q 432 1056 410 1056 l 444 1056 l 444 715 m 444 14 q 428 -53 444 -36 q 360 -69 411 -69 l 347 -69 l 347 271 q 352 317 347 300 q 367 342 357 333 q 394 352 378 350 q 432 354 410 354 l 444 354 l 444 14 z "},"−":{"ha":639,"x_min":181,"x_max":681,"o":"m 618 519 q 669 499 657 519 q 681 415 681 479 l 243 415 q 211 419 224 415 q 192 435 199 424 q 183 467 185 446 q 181 519 181 488 l 618 519 z "},"ß":{"ha":1163,"x_min":-60,"x_max":1426,"o":"m 925 875 q 822 853 861 875 q 760 786 782 831 q 730 675 738 742 q 722 519 722 608 l 924 519 q 973 516 950 519 q 1013 501 996 513 q 1039 467 1029 489 q 1049 408 1049 444 q 1005 239 1049 322 q 858 97 961 156 l 1426 97 q 1418 48 1426 67 q 1396 19 1410 29 q 1365 4 1382 8 q 1329 0 1347 0 l 388 0 q 362 -211 385 -128 q 294 -343 339 -294 q 181 -411 250 -392 q 18 -431 113 -431 q -43 -408 -26 -431 q -60 -335 -60 -386 l -60 -319 l 18 -319 q 130 -309 83 -319 q 206 -262 176 -299 q 250 -153 236 -225 q 264 42 264 -82 l 264 514 q 285 747 264 656 q 351 891 306 838 q 466 965 396 944 q 635 986 536 986 l 1008 986 l 1008 958 q 1001 916 1008 932 q 983 891 994 900 q 956 878 971 882 q 925 875 940 875 m 389 97 q 669 130 564 97 q 831 210 775 163 q 906 314 888 258 q 924 415 924 369 l 722 415 q 673 420 696 415 q 633 438 650 425 q 607 474 617 451 q 597 533 597 497 q 601 622 597 575 q 616 714 606 668 q 644 801 626 760 q 689 875 663 843 l 635 875 q 523 865 569 875 q 447 817 476 854 q 403 708 417 781 q 389 514 389 636 l 389 97 z "},"æ":{"ha":1451,"x_min":264,"x_max":1715,"o":"m 1093 382 q 1181 392 1144 383 q 1240 428 1217 401 q 1273 508 1263 456 q 1283 653 1283 561 q 1081 643 1157 653 q 965 600 1006 633 q 911 503 924 567 q 899 333 899 440 l 899 278 q 903 181 899 217 q 928 126 908 144 q 987 102 947 107 q 1096 97 1026 97 l 1715 97 q 1707 48 1715 67 q 1685 19 1699 29 q 1653 4 1671 8 q 1618 0 1636 0 l 1096 0 q 917 12 982 0 q 820 54 853 24 q 780 138 788 85 q 772 275 772 192 q 689 158 735 210 q 593 69 643 106 q 491 13 543 33 q 389 -7 439 -7 q 328 3 353 -7 q 290 29 304 13 q 269 69 275 46 q 264 118 264 92 l 264 460 q 281 595 264 538 q 335 690 297 653 q 433 746 372 728 q 579 764 493 764 q 671 742 639 764 q 703 667 703 719 l 703 653 l 579 653 q 494 645 529 653 q 435 616 458 638 q 400 557 411 594 q 389 460 389 519 l 389 104 q 463 119 422 104 q 547 163 504 133 q 630 238 589 193 q 702 345 671 283 q 753 486 733 407 q 772 663 772 565 l 772 750 l 813 750 q 862 740 839 750 q 893 697 885 729 q 1044 749 951 733 q 1283 764 1138 764 q 1382 728 1356 764 q 1408 640 1408 692 q 1388 463 1408 533 q 1325 351 1368 393 q 1215 293 1282 310 q 1053 276 1147 276 q 999 291 1015 276 q 983 349 983 306 l 983 378 l 1093 382 z "},"œ":{"ha":1464,"x_min":264,"x_max":1728,"o":"m 389 111 q 568 131 493 111 q 692 195 643 150 q 765 315 742 240 q 789 500 789 389 l 789 653 l 579 653 q 494 645 529 653 q 435 616 458 638 q 400 557 411 594 q 389 460 389 519 l 389 111 m 1106 382 q 1193 392 1157 383 q 1252 428 1229 401 q 1285 508 1275 456 q 1296 653 1296 561 q 1094 643 1169 653 q 977 600 1018 633 q 924 503 936 567 q 911 333 911 440 l 911 278 q 916 181 911 217 q 940 126 921 144 q 999 102 960 107 q 1108 97 1039 97 l 1728 97 q 1719 48 1728 67 q 1697 19 1711 29 q 1666 4 1683 8 q 1631 0 1649 0 l 1108 0 q 968 6 1025 0 q 875 30 911 13 q 821 79 839 47 q 794 161 803 111 q 732 86 772 117 q 638 37 692 56 q 521 9 585 18 q 389 0 457 0 q 326 10 350 0 q 288 36 301 19 q 269 76 274 53 q 264 125 264 99 l 264 460 q 281 595 264 538 q 335 690 297 653 q 433 746 372 728 q 579 764 493 764 l 833 764 q 906 697 893 764 q 1057 749 964 733 q 1296 764 1150 764 q 1394 728 1368 764 q 1421 640 1421 692 q 1401 463 1421 533 q 1338 351 1381 393 q 1227 293 1294 310 q 1065 276 1160 276 q 1012 291 1028 276 q 996 349 996 306 l 996 378 l 1106 382 z "},"=":{"ha":639,"x_min":181,"x_max":681,"o":"m 618 651 q 669 631 657 651 q 681 547 681 611 l 243 547 q 211 551 224 547 q 192 567 199 556 q 183 599 185 578 q 181 651 181 619 l 618 651 m 618 388 q 669 367 657 388 q 681 283 681 347 l 243 283 q 211 288 224 283 q 192 303 199 292 q 183 335 185 314 q 181 388 181 356 l 618 388 z "},"+":{"ha":639,"x_min":181,"x_max":681,"o":"m 378 415 l 243 415 q 211 419 224 415 q 192 435 199 424 q 183 467 185 446 q 181 519 181 488 l 378 519 l 378 654 q 382 686 378 674 q 397 706 386 699 q 429 715 408 713 q 482 717 450 717 l 482 519 l 618 519 q 669 499 657 519 q 681 415 681 479 l 482 415 l 482 279 q 478 247 482 260 q 462 228 474 235 q 430 219 450 221 q 378 217 410 217 l 378 415 z "},"ˇ":{"ha":658,"x_min":300,"x_max":758,"o":"m 333 1100 q 394 1081 364 1093 q 450 1055 424 1069 q 497 1025 476 1040 q 529 997 518 1010 q 608 1056 554 1026 q 725 1100 661 1086 l 758 1044 l 557 863 l 501 863 l 300 1044 l 333 1100 z "},"Š":{"ha":982,"x_min":125,"x_max":1246,"o":"m 743 519 q 792 516 769 519 q 832 501 815 513 q 858 467 849 489 q 868 408 868 444 q 824 239 868 322 q 678 97 781 156 l 1246 97 q 1238 48 1246 67 q 1215 19 1229 29 q 1184 4 1201 8 q 1149 0 1167 0 l 208 0 q 178 3 193 0 q 151 16 163 7 q 132 41 139 25 q 125 83 125 57 l 125 97 l 213 97 q 413 113 328 97 q 556 153 497 128 q 651 210 614 178 q 708 278 688 243 q 736 349 729 314 q 743 415 743 385 l 250 415 q 201 420 224 415 q 161 438 178 425 q 135 474 144 451 q 125 533 125 497 q 151 692 125 610 q 247 842 178 774 q 435 956 315 911 q 743 1000 556 1000 q 774 997 758 1000 q 801 984 789 993 q 819 959 813 975 q 826 917 826 943 l 826 889 l 725 889 q 534 870 613 889 q 403 820 456 851 q 319 750 350 789 q 274 670 289 711 q 254 590 258 629 q 250 519 250 550 l 743 519 m 296 1336 q 356 1317 326 1329 q 413 1291 386 1306 q 460 1261 439 1276 q 492 1233 481 1246 q 570 1292 517 1263 q 688 1336 624 1322 l 721 1281 l 519 1099 l 464 1099 l 263 1281 l 296 1336 z "},"š":{"ha":800,"x_min":68,"x_max":1064,"o":"m 264 739 q 289 810 264 781 q 364 840 314 840 q 440 810 414 840 q 465 739 465 781 q 462 708 465 721 q 456 685 458 694 l 543 617 q 617 557 578 589 q 687 488 656 525 q 739 404 718 450 q 760 304 760 358 q 738 190 760 246 q 653 97 715 135 l 1064 97 q 1056 48 1064 67 q 1033 19 1047 29 q 1002 4 1019 8 q 967 0 985 0 l 447 0 q 417 3 432 0 q 390 16 401 7 q 371 41 378 25 q 364 83 364 57 l 364 97 l 410 97 q 517 117 474 97 q 586 168 560 138 q 624 235 613 199 q 635 304 635 271 q 625 363 635 338 q 599 411 615 389 q 560 451 582 433 q 514 489 538 469 l 414 567 l 189 17 q 165 0 182 0 l 88 0 q 68 18 68 0 q 74 40 68 28 l 318 643 l 296 661 q 264 739 264 689 m 204 1100 q 265 1081 235 1093 q 321 1055 294 1069 q 368 1025 347 1040 q 400 997 389 1010 q 478 1056 425 1026 q 596 1100 532 1086 l 629 1044 l 428 863 l 372 863 l 171 1044 l 204 1100 z "},"Ž":{"ha":847,"x_min":-56,"x_max":1111,"o":"m 601 415 q 478 232 549 313 q 326 97 407 151 l 1111 97 q 1103 48 1111 67 q 1081 19 1094 29 q 1049 4 1067 8 q 1014 0 1032 0 l 201 0 q 138 -19 171 -11 q 68 -28 104 -28 q 24 -23 46 -28 q -16 -4 1 -18 q -44 34 -33 10 q -56 97 -56 58 l 28 97 q 157 122 94 97 q 274 188 219 146 q 377 289 329 231 q 463 415 425 347 l 235 415 q 243 466 235 446 q 265 498 251 486 q 297 515 279 510 q 332 519 314 519 l 513 519 q 568 697 549 607 q 588 875 588 788 l 185 875 q 124 899 138 875 q 110 950 110 922 l 110 986 l 588 986 q 637 983 614 986 q 676 967 660 979 q 703 933 693 956 q 713 875 713 911 q 696 689 713 778 q 649 519 679 600 l 847 519 q 839 469 847 489 q 817 437 831 449 q 785 420 803 425 q 750 415 768 415 l 601 415 m 228 1336 q 288 1317 258 1329 q 344 1291 318 1306 q 392 1261 371 1276 q 424 1233 413 1246 q 502 1292 449 1263 q 619 1336 556 1322 l 653 1281 l 451 1099 l 396 1099 l 194 1281 l 228 1336 z "},"ž":{"ha":694,"x_min":56,"x_max":958,"o":"m 547 639 l 206 639 q 139 664 169 639 q 108 750 108 689 l 689 750 q 731 745 715 750 q 747 721 747 740 q 738 697 747 711 q 717 667 729 682 l 242 97 l 958 97 q 950 48 958 67 q 928 19 942 29 q 897 4 914 8 q 861 0 879 0 l 101 0 q 65 5 75 0 q 56 29 56 10 q 65 53 56 39 q 86 83 74 68 l 547 639 m 232 1100 q 292 1081 263 1093 q 349 1055 322 1069 q 396 1025 375 1040 q 428 997 417 1010 q 506 1056 453 1026 q 624 1100 560 1086 l 657 1044 l 456 863 l 400 863 l 199 1044 l 232 1100 z "},"˘":{"ha":658,"x_min":318,"x_max":740,"o":"m 529 971 l 685 1100 l 740 1054 q 630 906 678 950 q 529 863 582 863 q 428 906 476 863 q 318 1054 381 950 l 374 1100 l 529 971 z "},"≠":{"ha":639,"x_min":181,"x_max":681,"o":"m 357 388 l 399 547 l 243 547 q 211 551 224 547 q 192 567 199 556 q 183 599 185 578 q 181 651 181 619 l 426 651 l 479 846 q 513 906 493 894 q 569 917 532 917 l 604 917 l 533 651 l 618 651 q 669 631 657 651 q 681 547 681 611 l 506 547 l 463 388 l 618 388 q 669 367 657 388 q 681 283 681 347 l 435 283 l 383 90 q 354 33 372 47 q 293 19 336 19 l 258 19 l 329 283 l 243 283 q 211 288 224 283 q 192 303 199 292 q 183 335 185 314 q 181 388 181 356 l 357 388 z "},"±":{"ha":639,"x_min":181,"x_max":681,"o":"m 378 415 l 243 415 q 211 419 224 415 q 192 435 199 424 q 183 467 185 446 q 181 519 181 488 l 378 519 l 378 654 q 382 686 378 674 q 397 706 386 699 q 429 715 408 713 q 482 717 450 717 l 482 519 l 618 519 q 669 499 657 519 q 681 415 681 479 l 482 415 l 482 279 q 478 247 482 260 q 462 228 474 235 q 430 219 450 221 q 378 217 410 217 l 378 415 m 618 104 q 669 84 657 104 q 681 0 681 64 l 243 0 q 211 4 224 0 q 192 19 199 8 q 183 51 185 31 q 181 104 181 72 l 618 104 z "},"–":{"ha":917,"x_min":139,"x_max":833,"o":"m 729 519 q 767 515 749 519 q 801 499 786 511 q 824 467 815 488 q 833 415 833 447 l 243 415 q 205 419 224 415 q 172 435 186 424 q 148 467 157 446 q 139 519 139 488 l 729 519 z "},"—":{"ha":1194,"x_min":139,"x_max":1111,"o":"m 1007 519 q 1045 515 1026 519 q 1078 499 1064 511 q 1102 467 1093 488 q 1111 415 1111 447 l 243 415 q 205 419 224 415 q 172 435 186 424 q 148 467 157 446 q 139 519 139 488 l 1007 519 z "},"•":{"ha":551,"x_min":257,"x_max":519,"o":"m 257 493 q 263 544 257 519 q 283 586 268 568 q 322 615 297 604 q 388 625 347 625 q 451 615 425 625 q 492 586 476 604 q 513 544 507 568 q 519 493 519 519 q 513 442 519 465 q 492 400 507 418 q 451 372 476 382 q 388 363 425 363 q 322 372 347 363 q 283 400 297 382 q 263 442 268 418 q 257 493 257 465 z "},"…":{"ha":1151,"x_min":297,"x_max":1160,"o":"m 297 85 q 301 122 297 104 q 316 151 306 139 q 344 172 326 164 q 390 179 363 179 q 465 151 444 179 q 485 85 485 124 q 465 18 485 44 q 390 -8 444 -8 q 344 -1 363 -8 q 316 18 326 6 q 301 48 306 31 q 297 85 297 65 m 635 85 q 639 122 635 104 q 653 151 643 139 q 682 172 664 164 q 728 179 700 179 q 802 151 782 179 q 822 85 822 124 q 802 18 822 44 q 728 -8 782 -8 q 682 -1 700 -8 q 653 18 664 6 q 639 48 643 31 q 635 85 635 65 m 972 85 q 976 122 972 104 q 991 151 981 139 q 1019 172 1001 164 q 1065 179 1038 179 q 1140 151 1119 179 q 1160 85 1160 124 q 1140 18 1160 44 q 1065 -8 1119 -8 q 1019 -1 1038 -8 q 991 18 1001 6 q 976 48 981 31 q 972 85 972 65 z "},"¬":{"ha":639,"x_min":181,"x_max":681,"o":"m 243 415 q 211 419 224 415 q 192 435 199 424 q 183 467 185 446 q 181 519 181 488 l 618 519 q 669 499 657 519 q 681 415 681 479 l 681 307 q 664 264 681 274 q 593 254 647 254 l 593 415 l 243 415 z "},"<":{"ha":639,"x_min":181,"x_max":685,"o":"m 221 400 q 181 464 181 419 q 221 528 181 510 l 663 731 q 685 654 685 681 q 675 629 685 639 q 646 611 665 619 l 324 464 l 646 317 q 675 299 665 308 q 685 274 685 289 q 663 197 685 247 l 221 400 z "},"≤":{"ha":639,"x_min":181,"x_max":685,"o":"m 618 104 q 669 84 657 104 q 681 0 681 64 l 243 0 q 211 4 224 0 q 192 19 199 8 q 183 51 185 31 q 181 104 181 72 l 618 104 m 221 400 q 181 464 181 419 q 221 528 181 510 l 663 731 q 685 654 685 681 q 675 629 685 639 q 646 611 665 619 l 324 464 l 646 317 q 675 299 665 308 q 685 274 685 289 q 663 197 685 247 l 221 400 z "},">":{"ha":639,"x_min":181,"x_max":685,"o":"m 203 197 q 181 274 181 247 q 190 299 181 289 q 219 317 200 308 l 542 464 l 219 611 q 190 629 200 619 q 181 654 181 639 q 203 731 181 681 l 644 528 q 685 464 685 510 q 644 400 685 419 l 203 197 z "},"≥":{"ha":639,"x_min":181,"x_max":685,"o":"m 618 104 q 669 84 657 104 q 681 0 681 64 l 243 0 q 211 4 224 0 q 192 19 199 8 q 183 51 185 31 q 181 104 181 72 l 618 104 m 203 197 q 181 274 181 247 q 190 299 181 289 q 219 317 200 308 l 542 464 l 219 611 q 190 629 200 619 q 181 654 181 639 q 203 731 181 681 l 644 528 q 685 464 685 510 q 644 400 685 419 l 203 197 z "},"þ":{"ha":1093,"x_min":219,"x_max":1357,"o":"m 264 1028 q 272 1047 264 1039 q 292 1056 281 1056 l 360 1056 q 380 1047 371 1056 q 389 1028 389 1039 l 389 456 q 479 586 429 526 q 584 688 529 646 q 694 754 639 731 q 801 778 750 778 q 862 768 838 778 q 901 742 886 758 q 921 702 915 725 q 926 653 926 679 l 926 304 q 904 190 926 246 q 819 97 882 135 l 1357 97 q 1349 48 1357 67 q 1326 19 1340 29 q 1295 4 1313 8 q 1260 0 1278 0 l 558 0 q 528 3 543 0 q 501 16 513 7 q 482 41 489 25 q 475 83 475 57 l 475 97 l 611 97 q 699 119 663 97 q 758 172 735 140 q 791 240 781 204 q 801 304 801 276 l 801 667 q 681 631 751 667 q 546 522 611 594 q 435 342 481 450 q 389 88 389 233 l 389 -417 l 365 -417 q 253 -391 288 -417 q 219 -299 219 -365 q 232 -133 219 -225 q 264 53 244 -42 l 264 1028 z "},"µ":{"ha":1065,"x_min":264,"x_max":1329,"o":"m 389 104 q 503 137 439 104 q 624 238 567 169 q 719 412 681 307 q 758 663 758 517 l 758 750 l 808 750 q 913 624 913 750 q 904 551 913 586 q 883 485 896 517 l 883 97 l 1329 97 q 1321 48 1329 67 q 1299 19 1313 29 q 1267 4 1285 8 q 1232 0 1250 0 l 843 0 q 813 3 828 0 q 785 16 797 7 q 766 41 774 25 q 758 83 758 57 l 758 267 q 678 153 722 204 q 587 67 635 103 q 488 13 539 32 q 389 -7 438 -7 l 389 -389 q 380 -408 389 -400 q 360 -417 371 -417 l 292 -417 q 272 -408 281 -417 q 264 -389 264 -400 l 264 722 q 272 742 264 733 q 292 750 281 750 l 360 750 q 380 742 371 750 q 389 722 389 733 l 389 104 z "},"Þ":{"ha":857,"x_min":161,"x_max":1121,"o":"m 224 167 q 200 170 211 167 q 181 183 189 174 q 167 208 172 192 q 161 250 161 224 l 161 278 q 199 278 181 278 q 236 281 217 278 l 236 958 q 244 978 236 969 q 264 986 253 986 l 332 986 q 352 978 343 986 q 361 958 361 969 l 361 875 l 485 875 q 671 847 601 875 q 776 778 740 818 q 824 697 813 739 q 835 628 835 656 q 794 482 835 553 q 686 352 753 411 q 534 249 619 293 q 361 183 449 204 l 361 97 l 1121 97 q 1113 48 1121 67 q 1090 19 1104 29 q 1059 4 1076 8 q 1024 0 1042 0 l 321 0 q 290 3 306 0 q 263 16 275 7 q 244 41 251 25 q 236 83 236 57 l 236 167 l 224 167 m 361 764 l 361 300 q 518 361 453 322 q 626 446 583 400 q 690 540 669 492 q 710 628 710 588 q 699 682 710 657 q 661 725 688 707 q 592 753 635 743 q 485 764 549 764 l 361 764 z "},"˜":{"ha":700,"x_min":238,"x_max":700,"o":"m 303 1021 q 328 1002 315 1010 q 361 994 342 994 q 444 1019 386 994 l 492 1040 q 578 1060 535 1060 q 665 1030 631 1060 q 700 954 700 1000 q 695 923 700 940 q 671 883 690 906 l 635 918 q 609 937 622 929 q 576 944 596 944 q 493 919 551 944 l 446 899 q 360 879 403 879 q 272 909 307 879 q 238 985 238 939 q 242 1016 238 999 q 267 1056 247 1033 l 303 1021 z "},"ñ":{"ha":1094,"x_min":236,"x_max":1358,"o":"m 349 0 q 263 30 290 0 q 236 126 236 60 q 244 199 236 164 q 265 265 251 233 l 265 722 q 274 742 265 733 q 293 750 282 750 l 363 750 q 382 742 374 750 q 390 722 390 733 l 390 472 q 477 597 429 540 q 578 694 525 654 q 685 756 631 733 q 789 778 739 778 q 849 768 825 778 q 888 742 874 758 q 908 702 903 725 q 914 653 914 679 l 914 97 l 1358 97 q 1350 48 1358 67 q 1328 19 1342 29 q 1297 4 1314 8 q 1261 0 1279 0 l 872 0 q 842 3 857 0 q 815 16 826 7 q 796 41 803 25 q 789 83 789 57 l 789 667 q 671 631 739 667 q 540 522 603 594 q 434 342 478 450 q 390 88 390 233 l 390 0 l 349 0 m 465 1021 q 491 1002 478 1010 q 524 994 504 994 q 607 1019 549 994 l 654 1040 q 740 1060 697 1060 q 828 1030 793 1060 q 863 954 863 1000 q 858 923 863 940 q 833 883 853 906 l 797 918 q 772 937 785 929 q 739 944 758 944 q 656 919 714 944 l 608 899 q 522 879 565 879 q 435 909 469 879 q 400 985 400 939 q 405 1016 400 999 q 429 1056 410 1033 l 465 1021 z "},"ã":{"ha":1079,"x_min":264,"x_max":1343,"o":"m 389 104 q 463 119 422 104 q 547 163 504 133 q 630 238 589 193 q 702 345 671 283 q 753 486 733 407 q 772 663 772 565 l 772 750 l 822 750 q 926 624 926 750 q 918 551 926 586 q 897 485 910 517 l 897 97 l 1343 97 q 1335 48 1343 67 q 1313 19 1326 29 q 1281 4 1299 8 q 1246 0 1264 0 l 857 0 q 826 3 842 0 q 799 16 811 7 q 780 41 788 25 q 772 83 772 57 l 772 275 q 689 158 735 210 q 593 69 643 106 q 491 13 543 33 q 389 -7 439 -7 q 328 3 353 -7 q 290 29 304 13 q 269 69 275 46 q 264 118 264 92 l 264 460 q 281 595 264 538 q 335 690 297 653 q 433 746 372 728 q 579 764 493 764 q 671 742 639 764 q 703 667 703 719 l 703 653 l 579 653 q 494 645 529 653 q 435 616 458 638 q 400 557 411 594 q 389 460 389 519 l 389 104 m 458 1021 q 484 1002 471 1010 q 517 994 497 994 q 600 1019 542 994 l 647 1040 q 733 1060 690 1060 q 821 1030 786 1060 q 856 954 856 1000 q 851 923 856 940 q 826 883 846 906 l 790 918 q 765 937 778 929 q 732 944 751 944 q 649 919 707 944 l 601 899 q 515 879 558 879 q 428 909 463 879 q 393 985 393 939 q 398 1016 393 999 q 422 1056 403 1033 l 458 1021 z "},"õ":{"ha":1026,"x_min":264,"x_max":1388,"o":"m 689 739 q 714 810 689 781 q 789 840 739 840 q 862 814 836 840 q 890 750 888 788 l 1388 750 q 1357 664 1388 689 q 1290 639 1326 639 l 914 639 l 914 500 q 785 124 914 247 q 389 0 657 0 q 326 10 350 0 q 288 36 301 19 q 269 76 274 53 q 264 125 264 99 l 264 460 q 281 595 264 538 q 335 690 297 653 q 433 746 372 728 q 579 764 493 764 q 640 742 618 764 q 661 667 661 719 l 661 653 l 579 653 q 494 645 529 653 q 435 616 458 638 q 400 557 411 594 q 389 460 389 519 l 389 111 q 568 131 493 111 q 692 195 643 150 q 765 315 742 240 q 789 500 789 389 l 789 639 q 714 668 739 639 q 689 739 689 697 m 432 1021 q 458 1002 444 1010 q 490 994 471 994 q 574 1019 515 994 l 621 1040 q 707 1060 664 1060 q 794 1030 760 1060 q 829 954 829 1000 q 824 923 829 940 q 800 883 819 906 l 764 918 q 738 937 751 929 q 706 944 725 944 q 622 919 681 944 l 575 899 q 489 879 532 879 q 401 909 436 879 q 367 985 367 939 q 372 1016 367 999 q 396 1056 376 1033 l 432 1021 z "},"Ñ":{"ha":1121,"x_min":193,"x_max":1385,"o":"m 306 0 q 220 30 247 0 q 193 126 193 60 q 201 199 193 164 q 222 265 208 233 l 222 958 q 231 978 222 969 q 250 986 239 986 l 319 986 q 339 978 331 986 q 347 958 347 969 l 347 504 q 449 694 392 604 q 568 851 506 783 q 694 960 631 919 q 815 1000 758 1000 q 876 990 851 1000 q 915 964 900 981 q 935 924 929 947 q 940 875 940 901 l 940 97 l 1385 97 q 1376 48 1385 67 q 1354 19 1368 29 q 1323 4 1340 8 q 1288 0 1306 0 l 899 0 q 868 3 883 0 q 841 16 853 7 q 822 41 829 25 q 815 83 815 57 l 815 889 q 735 856 782 889 q 635 767 688 824 q 532 634 583 711 q 440 467 481 557 q 373 281 399 378 q 347 88 347 185 l 347 0 l 306 0 m 456 1229 q 481 1210 468 1218 q 514 1203 494 1203 q 597 1228 539 1203 l 644 1249 q 731 1268 688 1268 q 818 1238 783 1268 q 853 1163 853 1208 q 848 1131 853 1149 q 824 1092 843 1114 l 788 1126 q 762 1145 775 1138 q 729 1153 749 1153 q 646 1128 704 1153 l 599 1107 q 513 1088 556 1088 q 425 1117 460 1088 q 390 1193 390 1147 q 395 1224 390 1207 q 419 1264 400 1242 l 456 1229 z "},"Ã":{"ha":1082,"x_min":144,"x_max":1346,"o":"m 1346 97 q 1338 48 1346 67 q 1315 19 1329 29 q 1284 4 1301 8 q 1249 0 1267 0 l 814 0 q 783 3 799 0 q 756 16 768 7 q 738 41 744 25 q 731 83 731 57 l 731 415 l 308 415 q 279 261 289 343 q 269 83 269 179 q 247 15 269 31 q 193 0 224 0 l 144 0 l 144 83 q 176 402 144 264 q 260 642 207 540 q 385 813 314 744 q 535 922 456 881 q 697 982 614 964 q 856 1000 779 1000 q 917 976 903 1000 q 931 925 931 953 l 931 889 l 856 889 l 856 97 l 1346 97 m 731 875 q 507 760 608 847 q 343 519 406 674 l 731 519 l 731 875 m 496 1229 q 522 1210 508 1218 q 554 1203 535 1203 q 638 1228 579 1203 l 685 1249 q 771 1268 728 1268 q 858 1238 824 1268 q 893 1163 893 1208 q 888 1131 893 1149 q 864 1092 883 1114 l 828 1126 q 802 1145 815 1138 q 769 1153 789 1153 q 686 1128 744 1153 l 639 1107 q 553 1088 596 1088 q 465 1117 500 1088 q 431 1193 431 1147 q 435 1224 431 1207 q 460 1264 440 1242 l 496 1229 z "},"Õ":{"ha":1057,"x_min":160,"x_max":1321,"o":"m 931 607 q 871 287 931 410 q 688 97 811 164 l 1321 97 q 1313 48 1321 67 q 1290 19 1304 29 q 1259 4 1276 8 q 1224 0 1242 0 l 269 0 q 213 9 235 0 q 180 34 192 18 q 164 72 168 50 q 160 117 160 93 l 160 392 q 200 667 160 551 q 322 856 240 782 q 527 965 403 929 q 821 1000 651 1000 q 877 991 856 1000 q 910 966 899 982 q 926 928 922 950 q 931 883 931 907 l 931 607 m 285 97 q 522 127 424 97 q 684 219 621 157 q 776 377 747 281 q 806 607 806 474 l 806 889 q 568 861 667 889 q 406 774 469 833 q 314 619 343 714 q 285 392 285 525 l 285 97 m 418 1229 q 444 1210 431 1218 q 476 1203 457 1203 q 560 1228 501 1203 l 607 1249 q 693 1268 650 1268 q 781 1238 746 1268 q 815 1163 815 1208 q 810 1131 815 1149 q 786 1092 806 1114 l 750 1126 q 724 1145 738 1138 q 692 1153 711 1153 q 608 1128 667 1153 l 561 1107 q 475 1088 518 1088 q 388 1117 422 1088 q 353 1193 353 1147 q 358 1224 353 1207 q 382 1264 363 1242 l 418 1229 z "},"‹":{"ha":419,"x_min":0,"x_max":281,"o":"m 254 311 q 271 290 261 304 q 281 260 281 276 q 265 222 281 244 q 228 179 249 200 l 33 397 q 9 431 18 413 q 0 464 0 449 q 33 531 0 497 l 228 750 q 265 707 249 729 q 281 669 281 685 q 271 639 281 653 q 254 618 261 625 l 131 464 l 254 311 z "},"Œ":{"ha":1418,"x_min":160,"x_max":1682,"o":"m 931 865 q 1069 953 985 921 q 1278 986 1153 986 l 1308 986 q 1369 963 1356 986 q 1383 911 1383 939 l 1383 875 l 1269 875 q 1095 842 1161 875 q 993 759 1029 810 q 944 645 957 708 q 929 519 931 582 l 1269 519 q 1261 469 1269 489 q 1239 437 1253 449 q 1208 420 1225 425 q 1172 415 1190 415 l 931 415 q 947 311 933 367 q 998 208 961 256 q 1099 128 1035 160 q 1269 97 1164 97 l 1682 97 q 1674 48 1682 67 q 1651 19 1665 29 q 1620 4 1638 8 q 1585 0 1603 0 l 1264 0 q 1101 18 1171 0 q 981 68 1032 36 q 897 142 931 100 q 844 235 864 185 q 627 56 769 113 q 269 0 485 0 q 213 9 235 0 q 180 34 192 18 q 164 72 168 50 q 160 117 160 93 l 160 392 q 200 667 160 551 q 322 856 240 782 q 527 965 403 929 q 821 1000 651 1000 q 877 991 856 1000 q 910 966 899 982 q 926 928 922 950 q 931 883 931 907 l 931 865 m 806 889 q 568 861 667 889 q 406 774 469 833 q 314 619 343 714 q 285 392 285 525 l 285 111 q 522 139 424 111 q 684 226 621 167 q 776 381 747 286 q 806 608 806 475 l 806 889 z "},"ð":{"ha":1026,"x_min":264,"x_max":1290,"o":"m 633 903 q 501 968 582 936 l 422 999 l 426 1010 q 455 1063 438 1042 q 503 1083 472 1083 q 526 1081 511 1083 q 568 1068 540 1079 q 672 1022 625 1047 q 754 964 718 996 l 846 1011 q 889 1025 874 1025 q 922 1010 907 1025 q 957 958 938 996 l 821 889 q 892 722 869 819 q 914 486 914 625 q 869 252 914 349 q 740 97 825 156 l 1290 97 q 1282 48 1290 67 q 1260 19 1274 29 q 1228 4 1246 8 q 1193 0 1211 0 l 389 0 q 326 10 350 0 q 288 36 301 19 q 269 76 274 53 q 264 125 264 99 l 264 390 q 281 526 264 468 q 335 621 297 583 q 433 676 372 658 q 579 694 493 694 q 640 672 618 694 q 661 597 661 650 l 661 583 l 579 583 q 494 576 529 583 q 435 547 458 568 q 400 488 411 525 q 389 390 389 450 l 389 97 l 408 97 q 578 119 507 99 q 697 185 650 139 q 767 304 744 231 q 789 486 789 378 q 772 692 789 610 q 710 832 756 774 l 629 792 q 585 778 601 778 q 552 792 567 778 q 518 844 538 807 l 633 903 z "},"Æ":{"ha":1343,"x_min":144,"x_max":1607,"o":"m 144 83 q 176 401 144 264 q 260 638 207 538 q 385 806 314 739 q 535 913 456 872 q 697 969 614 953 q 856 986 779 986 q 911 968 896 986 q 929 926 926 950 q 1050 970 982 954 q 1203 986 1118 986 l 1233 986 q 1294 963 1281 986 q 1308 911 1308 939 l 1308 875 l 1194 875 q 1016 842 1086 875 q 906 759 946 810 q 849 645 865 708 q 828 519 832 582 l 1194 519 q 1186 469 1194 489 q 1164 437 1178 449 q 1133 420 1150 425 q 1097 415 1115 415 l 829 415 q 852 311 833 367 q 912 208 871 256 q 1021 128 953 160 q 1194 97 1089 97 l 1607 97 q 1599 48 1607 67 q 1576 19 1590 29 q 1545 4 1563 8 q 1510 0 1528 0 l 1189 0 q 966 36 1056 0 q 820 131 876 72 q 737 265 764 190 q 704 415 710 339 l 308 415 q 279 262 289 344 q 269 83 269 179 q 247 15 269 31 q 193 0 224 0 l 144 0 l 144 83 m 704 519 q 745 716 711 624 q 854 875 779 808 q 700 854 775 875 q 559 790 625 833 q 438 680 493 747 q 344 519 383 613 l 704 519 z "},"÷":{"ha":639,"x_min":181,"x_max":681,"o":"m 347 700 q 363 760 347 735 q 431 785 379 785 q 497 760 479 785 q 515 700 515 735 q 497 640 515 664 q 431 617 479 617 q 363 640 379 617 q 347 700 347 664 m 618 519 q 669 499 657 519 q 681 415 681 479 l 243 415 q 211 419 224 415 q 192 435 199 424 q 183 467 185 446 q 181 519 181 488 l 618 519 m 347 233 q 363 293 347 268 q 431 318 379 318 q 497 293 479 318 q 515 233 515 268 q 497 174 515 197 q 431 150 479 150 q 363 174 379 150 q 347 233 347 197 z "},"«":{"ha":697,"x_min":0,"x_max":558,"o":"m 254 311 q 271 290 261 304 q 281 260 281 276 q 265 222 281 244 q 228 179 249 200 l 33 397 q 9 431 18 413 q 0 464 0 449 q 33 531 0 497 l 228 750 q 265 707 249 729 q 281 669 281 685 q 271 639 281 653 q 254 618 261 625 l 131 464 l 254 311 m 532 311 q 549 290 539 304 q 558 260 558 276 q 542 222 558 244 q 506 179 526 200 l 311 397 q 287 431 296 413 q 278 464 278 449 q 311 531 278 497 l 506 750 q 542 707 526 729 q 558 669 558 685 q 549 639 558 653 q 532 618 539 625 l 408 464 l 532 311 z "},"»":{"ha":940,"x_min":313,"x_max":871,"o":"m 740 464 l 617 618 q 600 639 610 625 q 590 669 590 653 q 606 707 590 685 q 643 750 622 729 l 838 531 q 871 464 871 497 q 862 431 871 449 q 838 397 853 413 l 643 179 q 606 222 622 200 q 590 260 590 244 q 600 290 590 276 q 617 311 610 304 l 740 464 m 463 464 l 339 618 q 322 639 332 625 q 313 669 313 653 q 328 707 313 685 q 365 750 344 729 l 560 531 q 593 464 593 497 q 584 431 593 449 q 560 397 575 413 l 365 179 q 328 222 344 200 q 313 260 313 244 q 322 290 313 276 q 339 311 332 304 l 463 464 z "},"›":{"ha":593,"x_min":313,"x_max":593,"o":"m 463 464 l 339 618 q 322 639 332 625 q 313 669 313 653 q 328 707 313 685 q 365 750 344 729 l 560 531 q 593 464 593 497 q 584 431 593 449 q 560 397 575 413 l 365 179 q 328 222 344 200 q 313 260 313 244 q 322 290 313 276 q 339 311 332 304 l 463 464 z "},"€":{"ha":833,"x_min":104,"x_max":756,"o":"m 324 333 q 361 249 336 289 q 427 178 386 208 q 528 129 468 147 q 672 111 589 111 l 756 111 l 756 75 q 742 24 756 47 q 681 0 728 0 q 483 26 567 0 q 342 97 400 51 q 249 202 283 142 q 197 333 214 263 l 104 333 q 118 406 104 381 q 179 431 132 431 l 182 431 q 181 460 181 446 q 181 490 181 475 q 181 523 181 507 q 183 556 181 539 l 104 556 q 118 628 104 603 q 179 653 132 653 l 199 653 q 251 783 215 722 q 344 890 286 844 q 485 960 401 935 q 681 986 568 986 q 742 963 728 986 q 756 911 756 939 l 756 875 l 672 875 q 529 857 589 875 q 428 808 469 839 q 363 738 388 778 q 325 653 338 697 l 615 653 q 601 581 615 606 q 540 556 586 556 l 307 556 q 304 522 304 539 q 304 490 304 506 q 304 460 304 475 q 306 431 304 446 l 615 431 q 601 358 615 383 q 540 333 586 333 l 324 333 z "},"¢":{"ha":833,"x_min":131,"x_max":703,"o":"m 519 879 q 551 881 535 881 q 583 882 567 882 q 644 874 624 882 q 674 851 665 865 q 683 816 682 836 q 685 771 683 796 l 614 771 q 565 769 588 771 q 519 764 542 767 l 519 201 l 703 201 q 694 152 703 171 q 672 123 686 133 q 641 108 658 113 q 606 104 624 104 l 519 104 l 519 14 q 503 -53 519 -36 q 435 -69 486 -69 l 422 -69 l 422 104 q 261 119 319 106 q 174 163 203 132 q 138 247 144 194 q 131 382 131 300 q 204 702 131 583 q 422 861 278 821 l 422 972 q 427 1018 422 1001 q 442 1043 432 1035 q 469 1053 453 1051 q 507 1056 485 1056 l 519 1056 l 519 879 m 257 382 q 261 289 257 324 q 281 235 265 254 q 331 208 297 215 q 422 201 364 201 l 422 740 q 297 619 336 704 q 257 382 257 535 z "},"∂":{"ha":1026,"x_min":218,"x_max":922,"o":"m 922 657 q 890 399 922 519 q 788 190 858 279 q 605 51 718 101 q 329 0 492 0 q 241 26 264 0 q 218 92 218 51 q 219 108 218 100 q 221 125 219 117 l 267 446 q 301 581 278 524 q 364 676 324 639 q 465 732 404 714 q 611 750 525 750 q 663 733 644 750 q 681 679 681 717 q 681 665 681 672 q 678 639 681 657 l 596 639 q 511 631 546 639 q 453 602 476 624 q 415 543 429 581 q 392 446 400 506 l 343 97 q 561 140 474 97 q 701 256 649 182 q 776 431 754 331 q 797 650 797 532 q 783 763 797 713 q 733 856 768 814 q 638 932 697 897 q 489 999 579 967 l 494 1010 q 530 1063 510 1042 q 581 1083 550 1083 q 627 1075 596 1083 q 696 1047 658 1067 q 774 995 733 1028 q 847 915 814 963 q 901 804 881 868 q 922 657 922 740 z "},"!":{"ha":476,"x_min":297,"x_max":486,"o":"m 335 1056 q 412 1045 382 1056 q 458 1015 442 1035 q 481 969 475 996 q 486 910 486 943 q 476 783 486 860 q 446 607 465 707 l 446 306 q 438 286 446 294 q 418 278 429 278 l 364 278 q 344 286 353 278 q 335 306 335 294 l 335 1056 m 297 85 q 301 122 297 104 q 316 151 306 139 q 344 172 326 164 q 390 179 363 179 q 465 151 444 179 q 485 85 485 124 q 465 18 485 44 q 390 -8 444 -8 q 344 -1 363 -8 q 316 18 326 6 q 301 48 306 31 q 297 85 297 65 z "},"¡":{"ha":564,"x_min":236,"x_max":425,"o":"m 388 -286 q 310 -276 340 -286 q 264 -246 281 -265 q 242 -200 247 -226 q 236 -140 236 -174 q 247 -14 236 -90 q 276 163 257 63 l 276 464 q 285 483 276 475 q 304 492 293 492 l 358 492 q 378 483 369 492 q 388 464 388 475 l 388 -286 m 425 685 q 406 618 425 646 q 332 590 388 590 q 258 618 278 590 q 238 685 238 646 q 258 751 238 725 q 332 778 278 778 q 406 751 388 778 q 425 685 425 724 z "},"◊":{"ha":611,"x_min":236,"x_max":794,"o":"m 690 493 l 515 903 l 340 493 l 515 83 l 690 493 m 515 986 q 553 983 538 986 q 580 972 568 981 q 601 946 592 963 q 622 903 611 929 l 794 493 l 622 83 q 601 40 611 56 q 580 15 592 24 q 553 3 568 6 q 515 0 538 0 q 478 3 493 0 q 451 15 463 6 q 429 40 439 24 q 408 83 419 56 l 236 493 l 408 903 q 429 946 419 929 q 451 972 439 963 q 478 983 463 981 q 515 986 493 986 z "},"#":{"ha":996,"x_min":93,"x_max":954,"o":"m 708 278 l 657 83 q 622 17 643 33 q 550 0 601 0 l 524 0 l 597 278 l 333 278 l 282 83 q 247 17 268 33 q 175 0 226 0 l 149 0 l 222 278 l 93 278 q 107 350 93 325 q 168 375 121 375 l 247 375 l 311 611 l 182 611 q 196 683 182 658 q 257 708 210 708 l 336 708 l 389 903 q 406 949 397 932 q 428 974 415 965 q 457 984 440 982 q 496 986 474 986 l 522 986 l 447 708 l 711 708 l 764 903 q 781 949 772 932 q 803 974 790 965 q 832 984 815 982 q 871 986 849 986 l 897 986 l 822 708 l 954 708 q 940 636 954 661 q 879 611 925 611 l 797 611 l 735 375 l 865 375 q 851 303 865 328 q 790 278 836 278 l 708 278 m 360 375 l 622 375 l 686 611 l 422 611 l 360 375 z "},"˚":{"ha":411,"x_min":40,"x_max":371,"o":"m 206 821 q 81 867 121 821 q 40 982 40 913 q 81 1099 40 1053 q 206 1144 121 1144 q 331 1099 290 1144 q 371 982 371 1053 q 331 867 371 913 q 206 821 290 821 m 206 910 q 263 930 244 910 q 281 982 281 950 q 263 1035 281 1014 q 206 1056 244 1056 q 149 1035 167 1056 q 131 982 131 1014 q 149 930 131 950 q 206 910 167 910 z "},"å":{"ha":1079,"x_min":264,"x_max":1343,"o":"m 389 104 q 463 119 422 104 q 547 163 504 133 q 630 238 589 193 q 702 345 671 283 q 753 486 733 407 q 772 663 772 565 l 772 750 l 822 750 q 926 624 926 750 q 918 551 926 586 q 897 485 910 517 l 897 97 l 1343 97 q 1335 48 1343 67 q 1313 19 1326 29 q 1281 4 1299 8 q 1246 0 1264 0 l 857 0 q 826 3 842 0 q 799 16 811 7 q 780 41 788 25 q 772 83 772 57 l 772 275 q 689 158 735 210 q 593 69 643 106 q 491 13 543 33 q 389 -7 439 -7 q 328 3 353 -7 q 290 29 304 13 q 269 69 275 46 q 264 118 264 92 l 264 460 q 281 595 264 538 q 335 690 297 653 q 433 746 372 728 q 579 764 493 764 q 671 742 639 764 q 703 667 703 719 l 703 653 l 579 653 q 494 645 529 653 q 435 616 458 638 q 400 557 411 594 q 389 460 389 519 l 389 104 m 606 821 q 481 867 521 821 q 440 982 440 913 q 481 1099 440 1053 q 606 1144 521 1144 q 731 1099 690 1144 q 771 982 771 1053 q 731 867 771 913 q 606 821 690 821 m 606 910 q 663 930 644 910 q 681 982 681 950 q 663 1035 681 1014 q 606 1056 644 1056 q 549 1035 567 1056 q 531 982 531 1014 q 549 930 531 950 q 606 910 567 910 z "},"Å":{"ha":1082,"x_min":144,"x_max":1346,"o":"m 1346 97 q 1338 48 1346 67 q 1315 19 1329 29 q 1284 4 1301 8 q 1249 0 1267 0 l 814 0 q 783 3 799 0 q 756 16 768 7 q 738 41 744 25 q 731 83 731 57 l 731 415 l 308 415 q 279 261 289 343 q 269 83 269 179 q 247 15 269 31 q 193 0 224 0 l 144 0 l 144 83 q 176 402 144 264 q 260 642 207 540 q 385 813 314 744 q 535 922 456 881 q 697 982 614 964 q 856 1000 779 1000 q 917 976 903 1000 q 931 925 931 953 l 931 889 l 856 889 l 856 97 l 1346 97 m 731 875 q 507 760 608 847 q 343 519 406 674 l 731 519 l 731 875 m 592 1057 q 467 1103 507 1057 q 426 1218 426 1149 q 467 1335 426 1289 q 592 1381 507 1381 q 717 1335 676 1381 q 757 1218 757 1289 q 717 1103 757 1149 q 592 1057 676 1057 m 592 1146 q 649 1166 631 1146 q 667 1218 667 1186 q 649 1271 667 1250 q 592 1292 631 1292 q 535 1271 553 1292 q 517 1218 517 1250 q 535 1166 517 1186 q 592 1146 553 1146 z "},"×":{"ha":639,"x_min":188,"x_max":672,"o":"m 428 392 l 306 269 q 264 246 282 246 q 232 258 249 246 q 188 299 215 271 l 354 465 l 231 590 q 208 631 208 613 q 221 663 208 646 q 261 708 233 681 l 429 540 l 554 665 q 594 688 576 688 q 627 675 610 688 q 672 635 644 663 l 503 465 l 626 342 q 650 300 650 318 q 638 268 650 285 q 597 224 625 251 l 428 392 z "},"∆":{"ha":611,"x_min":125,"x_max":906,"o":"m 125 0 l 408 903 q 426 947 417 931 q 449 972 436 964 q 477 983 461 981 q 515 986 493 986 q 553 983 538 986 q 582 972 569 981 q 604 947 594 964 q 622 903 614 931 l 906 0 l 125 0 m 254 79 l 776 79 l 515 903 l 254 79 z "},"*":{"ha":969,"x_min":403,"x_max":969,"o":"m 878 990 q 840 876 878 925 q 754 794 803 826 q 814 783 781 783 q 875 790 842 783 q 949 810 908 797 q 966 746 963 760 q 969 725 969 732 q 939 679 969 693 q 868 665 908 665 q 779 683 819 665 q 703 735 739 701 l 703 724 q 723 642 703 683 q 779 553 743 601 l 729 517 q 689 501 707 501 q 653 517 668 501 q 627 554 638 532 q 612 601 617 576 q 607 646 607 626 q 629 760 607 704 q 553 717 589 749 q 482 632 518 685 l 431 668 q 403 717 403 688 q 426 769 403 746 q 481 807 449 792 q 548 831 513 822 q 608 839 583 839 l 632 839 q 569 897 611 875 q 464 939 526 919 l 483 999 q 536 1044 499 1044 q 598 1026 569 1044 q 649 981 626 1008 q 686 921 671 953 q 708 861 701 889 q 745 939 736 893 q 754 1050 754 985 l 814 1050 q 861 1036 844 1050 q 878 990 878 1022 z "},"˝":{"ha":833,"x_min":226,"x_max":833,"o":"m 226 918 l 463 1100 l 481 1072 q 514 993 514 1021 q 492 949 514 969 q 433 913 469 929 q 351 883 397 896 q 258 861 306 869 l 226 918 m 546 918 l 782 1100 l 800 1072 q 833 993 833 1021 q 811 949 833 969 q 753 913 789 929 q 671 883 717 896 q 578 861 625 869 l 546 918 z "},"°":{"ha":785,"x_min":139,"x_max":646,"o":"m 646 928 q 624 743 646 825 q 555 603 603 661 q 430 513 507 544 q 243 482 353 482 q 190 491 210 482 q 158 515 169 500 q 143 549 147 529 q 139 593 139 569 l 139 638 q 160 822 139 739 q 230 963 182 904 q 354 1052 278 1021 q 542 1083 431 1083 q 595 1074 575 1083 q 626 1051 615 1065 q 642 1015 638 1036 q 646 972 646 994 l 646 928 m 528 978 q 392 953 444 978 q 310 885 340 929 q 268 777 279 840 q 257 638 257 714 l 257 588 q 392 612 340 588 q 475 681 444 636 q 517 788 506 725 q 528 928 528 850 l 528 978 z "},"ç":{"ha":860,"x_min":194,"x_max":1124,"o":"m 808 615 q 803 549 808 579 q 785 497 799 519 q 745 463 771 475 q 678 450 719 450 l 678 667 q 517 647 585 667 q 406 583 450 628 q 342 463 363 538 q 321 278 321 389 q 326 181 321 217 q 350 126 331 144 q 409 102 369 107 q 518 97 449 97 l 1124 97 q 1115 48 1124 67 q 1093 19 1107 29 q 1062 4 1079 8 q 1026 0 1044 0 l 546 0 l 521 -129 l 644 -129 q 698 -154 681 -129 q 715 -207 715 -179 q 649 -372 715 -312 q 461 -431 583 -431 q 432 -427 443 -431 q 415 -414 421 -424 q 406 -385 408 -404 q 404 -337 404 -367 l 433 -337 q 565 -313 528 -337 q 603 -222 603 -289 l 471 -222 q 438 -213 447 -222 q 429 -186 429 -204 q 430 -178 429 -183 q 433 -154 431 -172 q 443 -100 436 -136 q 463 0 450 -64 q 315 17 368 3 q 235 63 261 31 q 201 147 208 94 q 194 278 194 199 q 310 654 194 531 q 647 778 425 778 q 728 766 697 778 q 778 732 760 754 q 802 680 796 710 q 808 615 808 650 z "},"¸":{"ha":589,"x_min":194,"x_max":506,"o":"m 346 51 l 311 -129 l 435 -129 q 488 -154 471 -129 q 506 -207 506 -179 q 440 -372 506 -312 q 251 -431 374 -431 q 222 -427 233 -431 q 205 -414 211 -424 q 197 -385 199 -404 q 194 -337 194 -367 l 224 -337 q 356 -313 318 -337 q 393 -222 393 -289 l 261 -222 q 228 -213 238 -222 q 219 -186 219 -204 q 220 -177 219 -183 q 225 -148 221 -171 q 238 -78 229 -125 q 264 51 247 -32 l 346 51 z "},"Ç":{"ha":771,"x_min":118,"x_max":1035,"o":"m 1035 97 q 1026 48 1035 67 q 1004 19 1018 29 q 973 4 990 8 q 938 0 956 0 l 503 0 l 478 -129 l 601 -129 q 655 -154 638 -129 q 672 -207 672 -179 q 606 -372 672 -312 q 418 -431 540 -431 q 389 -427 400 -431 q 372 -414 378 -424 q 363 -385 365 -404 q 361 -337 361 -367 l 390 -337 q 522 -313 485 -337 q 560 -222 560 -289 l 428 -222 q 395 -213 404 -222 q 386 -186 386 -204 q 387 -178 386 -183 q 390 -154 388 -172 q 400 -100 393 -136 q 419 0 407 -64 l 243 0 q 194 3 217 0 q 154 19 171 7 q 128 53 138 31 q 118 111 118 75 q 172 527 118 357 q 314 802 226 697 q 513 953 401 907 q 739 1000 624 1000 q 800 976 786 1000 q 814 925 814 953 l 814 889 l 739 889 q 527 835 619 889 q 372 681 435 782 q 276 432 308 579 q 243 97 243 285 l 1035 97 z "},"®":{"ha":1076,"x_min":278,"x_max":1076,"o":"m 613 518 q 606 500 613 507 q 589 493 599 493 l 538 493 q 521 500 528 493 q 514 518 514 507 l 514 986 l 693 986 q 777 973 744 986 q 828 940 810 960 q 852 894 846 919 q 858 844 858 869 q 833 767 858 810 q 746 689 808 724 q 787 608 758 651 q 865 542 815 565 q 837 497 851 508 q 806 485 822 485 q 758 502 781 485 q 717 546 735 519 q 685 602 699 572 q 663 656 671 632 q 639 649 649 651 q 613 643 629 646 l 613 518 m 361 403 q 675 413 553 403 q 868 462 797 424 q 966 577 939 500 q 993 788 993 654 l 993 1056 q 679 1047 801 1056 q 486 1003 557 1039 q 388 892 415 967 q 361 683 361 817 l 361 403 m 1076 788 q 1045 540 1076 633 q 934 399 1014 447 q 715 335 854 350 q 361 319 576 319 q 299 338 321 319 q 278 403 278 357 l 278 683 q 309 931 278 838 q 420 1072 340 1024 q 639 1136 500 1121 q 993 1151 778 1151 q 1055 1133 1033 1151 q 1076 1068 1076 1114 l 1076 788 m 613 728 q 725 774 690 744 q 760 844 760 803 q 699 896 760 896 l 613 896 l 613 728 z "},"?":{"ha":835,"x_min":247,"x_max":835,"o":"m 297 85 q 301 122 297 104 q 316 151 306 139 q 344 172 326 164 q 390 179 363 179 q 465 151 444 179 q 485 85 485 124 q 465 18 485 44 q 390 -8 444 -8 q 344 -1 363 -8 q 316 18 326 6 q 301 48 306 31 q 297 85 297 65 m 247 958 l 247 994 q 261 1046 247 1022 q 322 1069 275 1069 q 505 1041 414 1069 q 669 951 596 1013 q 789 794 743 890 q 835 560 835 697 q 825 499 835 524 q 799 460 815 475 q 759 440 782 446 q 710 435 736 435 l 446 435 l 446 306 q 438 286 446 294 q 418 278 429 278 l 364 278 q 344 286 353 278 q 335 306 335 294 l 335 476 q 338 507 335 492 q 351 534 342 522 q 376 553 360 546 q 418 560 392 560 l 724 560 q 704 700 724 629 q 638 828 685 771 q 513 922 590 886 q 322 958 436 958 l 247 958 z "},"¿":{"ha":564,"x_min":-112,"x_max":475,"o":"m 425 685 q 406 618 425 646 q 332 590 388 590 q 258 618 278 590 q 238 685 238 646 q 258 751 238 725 q 332 778 278 778 q 406 751 388 778 q 425 685 425 724 m 475 -189 l 475 -225 q 461 -276 475 -253 q 400 -300 447 -300 q 217 -272 308 -300 q 53 -182 126 -243 q -67 -24 -21 -121 q -112 210 -112 72 q -76 308 -112 282 q 13 335 -40 335 l 276 335 l 276 464 q 285 483 276 475 q 304 492 293 492 l 358 492 q 378 483 369 492 q 388 464 388 475 l 388 293 q 372 235 388 261 q 304 210 356 210 l -1 210 q 18 69 -1 140 q 85 -59 38 -1 q 208 -153 132 -117 q 400 -189 285 -189 l 475 -189 z "},"₀":{"ha":583,"x_min":79,"x_max":497,"o":"m 421 332 q 483 308 468 332 q 497 251 497 285 l 497 90 q 482 -76 497 -6 q 428 -190 467 -146 q 324 -256 390 -235 q 156 -278 257 -278 q 93 -254 107 -278 q 79 -197 79 -231 l 79 -36 q 94 130 79 60 q 147 244 108 200 q 252 310 186 289 q 421 332 318 332 m 400 243 q 283 226 326 242 q 215 176 239 210 q 184 90 192 142 q 176 -36 176 38 l 176 -189 q 292 -172 249 -187 q 360 -122 336 -156 q 392 -35 385 -87 q 400 90 400 17 l 400 243 z "},"₁":{"ha":583,"x_min":94,"x_max":482,"o":"m 108 -278 q 129 -209 108 -229 q 178 -189 150 -189 l 247 -189 l 247 101 q 191 72 224 82 q 124 61 158 61 q 103 69 111 61 q 94 89 94 78 l 94 122 q 103 141 94 132 q 124 150 111 150 q 183 164 158 150 q 222 196 207 178 q 244 233 238 214 q 251 261 251 251 l 251 324 l 304 324 q 361 268 361 324 q 357 238 361 256 q 344 206 353 221 l 344 -189 l 482 -189 q 460 -258 482 -237 q 413 -278 439 -278 l 108 -278 z "},"₂":{"ha":583,"x_min":72,"x_max":494,"o":"m 301 324 q 381 319 349 324 q 433 299 414 314 q 461 259 453 285 q 469 190 469 233 q 447 97 469 146 q 388 -3 424 47 q 310 -102 353 -54 q 231 -189 268 -150 l 494 -189 q 473 -258 494 -237 q 425 -278 451 -278 l 72 -278 q 90 -208 72 -226 l 157 -137 q 235 -51 197 -94 q 304 33 274 -8 q 353 115 335 75 q 372 190 372 154 q 357 227 372 219 q 301 235 342 235 l 154 235 q 136 237 146 235 q 119 245 126 239 q 108 264 113 251 q 103 296 103 276 l 103 324 l 301 324 z "},"₃":{"ha":583,"x_min":94,"x_max":482,"o":"m 299 324 q 378 319 346 324 q 430 301 410 314 q 458 266 450 289 q 467 207 467 243 q 463 177 467 194 q 450 141 458 160 q 428 106 442 122 q 393 79 414 89 q 460 58 439 78 q 482 3 482 38 l 482 -6 q 412 -212 482 -147 q 181 -278 342 -278 q 136 -269 153 -278 q 110 -249 119 -261 q 98 -220 101 -236 q 94 -189 94 -204 l 181 -189 q 273 -181 235 -189 q 335 -151 311 -172 q 372 -94 360 -131 q 385 -1 383 -58 l 229 -1 q 187 8 206 -1 q 168 49 168 18 l 168 79 l 268 79 q 313 94 294 79 q 344 131 332 110 q 363 173 357 151 q 368 207 368 194 q 353 230 368 225 q 299 235 339 235 l 163 235 q 144 237 154 235 q 128 245 135 239 q 116 264 121 251 q 111 296 111 276 l 111 324 l 299 324 z "},"₄":{"ha":583,"x_min":71,"x_max":510,"o":"m 163 332 q 227 325 207 332 q 247 290 247 318 q 247 279 247 285 q 246 268 247 274 q 228 194 236 229 q 210 124 219 160 q 190 47 201 88 q 165 -46 179 6 l 340 -46 l 340 157 q 349 178 340 169 q 368 186 357 186 l 410 186 q 428 178 419 186 q 438 157 438 169 l 438 -46 l 485 -46 q 501 -53 493 -46 q 510 -71 510 -60 l 510 -110 q 501 -128 510 -121 q 485 -136 493 -136 l 438 -136 l 438 -278 l 403 -278 q 360 -267 379 -278 q 340 -217 340 -256 l 340 -136 l 139 -136 q 91 -117 111 -136 q 71 -56 71 -97 l 163 332 z "},"₅":{"ha":583,"x_min":86,"x_max":474,"o":"m 396 324 q 456 254 456 324 l 456 235 l 279 235 q 207 216 229 235 q 185 133 185 197 l 185 88 l 389 88 q 458 63 442 88 q 474 3 474 39 l 474 -6 q 403 -212 474 -147 q 172 -278 333 -278 q 128 -269 144 -278 q 102 -249 111 -261 q 90 -220 93 -236 q 86 -189 86 -204 l 172 -189 q 265 -181 226 -189 q 327 -151 303 -172 q 363 -94 351 -131 q 376 -1 375 -58 l 147 -1 q 105 8 124 -1 q 86 49 86 18 l 86 133 q 128 278 86 232 q 276 324 171 324 l 396 324 z "},"₆":{"ha":583,"x_min":86,"x_max":490,"o":"m 406 96 q 474 71 457 96 q 490 11 490 46 l 490 3 q 413 -209 490 -140 q 172 -278 335 -278 q 102 -253 118 -278 q 86 -193 86 -229 l 86 -12 q 99 149 86 83 q 149 256 113 215 q 249 314 186 296 q 413 332 313 332 q 471 263 471 332 l 471 243 l 413 243 q 305 235 347 243 q 238 207 263 226 q 201 155 213 188 q 186 74 189 122 q 283 96 224 96 l 406 96 m 283 7 q 209 -11 233 7 q 185 -87 185 -29 l 185 -189 q 274 -178 236 -187 q 338 -145 313 -168 q 377 -85 364 -122 q 393 7 390 -49 l 283 7 z "},"₇":{"ha":608,"x_min":103,"x_max":510,"o":"m 442 324 q 490 304 469 324 q 510 244 510 285 l 294 -286 q 230 -279 250 -286 q 210 -244 210 -272 q 231 -180 210 -233 q 284 -54 253 -126 q 350 97 315 18 q 410 235 385 175 l 154 235 q 136 237 146 235 q 119 245 126 239 q 108 264 113 251 q 103 296 103 276 l 103 324 l 442 324 z "},"₈":{"ha":583,"x_min":88,"x_max":489,"o":"m 88 -110 q 94 -44 88 -72 q 121 7 101 -15 q 101 34 107 18 q 96 69 96 50 q 178 269 96 206 q 406 332 261 332 q 473 309 457 332 q 489 253 489 286 l 489 164 q 483 99 489 128 q 461 50 476 71 q 485 23 481 39 q 489 -15 489 7 q 466 -133 489 -83 q 401 -215 443 -182 q 301 -262 360 -247 q 171 -278 242 -278 q 103 -255 118 -278 q 88 -199 88 -232 l 88 -110 m 289 -14 q 213 -32 239 -14 q 186 -106 186 -50 l 186 -189 q 338 -148 285 -186 q 396 -14 392 -110 l 289 -14 m 296 68 q 368 86 344 68 q 392 160 392 104 l 392 243 q 242 202 292 240 q 190 68 193 164 l 296 68 z "},"₉":{"ha":583,"x_min":92,"x_max":485,"o":"m 400 324 q 468 299 451 324 q 485 239 485 275 l 485 67 q 472 -95 485 -29 q 422 -202 458 -161 q 323 -260 386 -243 q 160 -278 260 -278 q 99 -208 99 -278 l 99 -189 l 160 -189 q 274 -179 231 -189 q 342 -147 318 -169 q 376 -85 367 -124 q 388 13 385 -46 q 301 -35 351 -19 q 175 -50 250 -50 q 107 -26 122 -50 q 92 35 92 -1 l 92 133 q 134 278 92 232 q 282 324 176 324 l 400 324 m 285 235 q 213 216 235 235 q 190 133 190 197 l 190 39 q 276 50 239 40 q 338 83 313 60 q 376 142 363 106 q 392 235 389 179 l 285 235 z "},"%":{"ha":1428,"x_min":278,"x_max":1358,"o":"m 719 83 q 703 42 711 58 q 683 17 694 26 q 654 3 671 7 q 613 0 638 0 l 600 0 l 915 903 q 935 947 925 931 q 956 972 944 964 q 984 983 968 981 q 1022 986 1000 986 l 1035 986 l 719 83 m 619 1008 q 681 985 667 1008 q 696 928 696 961 l 696 767 q 681 601 696 671 q 627 486 665 531 q 522 420 589 442 q 354 399 456 399 q 292 422 306 399 q 278 479 278 446 l 278 640 q 292 806 278 736 q 346 921 307 876 q 451 987 385 965 q 619 1008 517 1008 m 599 919 q 481 902 525 918 q 414 852 438 886 q 383 766 390 818 q 375 640 375 714 l 375 488 q 491 505 447 489 q 559 555 535 521 q 591 641 583 589 q 599 767 599 693 l 599 919 m 1282 610 q 1344 586 1329 610 q 1358 529 1358 563 l 1358 368 q 1343 202 1358 272 q 1290 88 1328 132 q 1185 22 1251 43 q 1017 0 1118 0 q 954 24 968 0 q 940 81 940 47 l 940 242 q 955 408 940 338 q 1008 522 969 478 q 1113 588 1047 567 q 1282 610 1179 610 m 1261 521 q 1144 503 1188 519 q 1076 453 1100 488 q 1045 367 1053 419 q 1038 242 1038 315 l 1038 89 q 1153 106 1110 90 q 1222 156 1197 122 q 1253 242 1246 190 q 1261 368 1261 294 l 1261 521 z "},"²":{"ha":583,"x_min":72,"x_max":494,"o":"m 301 1033 q 381 1028 349 1033 q 433 1009 414 1024 q 461 969 453 994 q 469 900 469 943 q 447 806 469 856 q 388 706 424 757 q 310 608 353 656 q 231 521 268 560 l 494 521 q 473 452 494 472 q 425 432 451 432 l 72 432 q 90 501 72 483 l 157 572 q 235 658 197 615 q 304 743 274 701 q 353 824 335 785 q 372 900 372 864 q 357 937 372 929 q 301 944 342 944 l 154 944 q 136 947 146 944 q 119 955 126 949 q 108 974 113 961 q 103 1006 103 986 l 103 1033 l 301 1033 z "},"³":{"ha":583,"x_min":94,"x_max":482,"o":"m 299 1033 q 378 1028 346 1033 q 430 1011 410 1024 q 458 976 450 999 q 467 917 467 953 q 463 887 467 904 q 450 851 458 869 q 428 815 442 832 q 393 789 414 799 q 460 767 439 788 q 482 713 482 747 l 482 704 q 412 497 482 563 q 181 432 342 432 q 136 440 153 432 q 110 461 119 449 q 98 490 101 474 q 94 521 94 506 l 181 521 q 273 529 235 521 q 335 558 311 538 q 372 615 360 579 q 385 708 383 651 l 229 708 q 187 718 206 708 q 168 758 168 728 l 168 789 l 268 789 q 313 804 294 789 q 344 840 332 819 q 363 883 357 861 q 368 917 368 904 q 353 940 368 935 q 299 944 339 944 l 163 944 q 144 947 154 944 q 128 955 135 949 q 116 974 121 961 q 111 1006 111 986 l 111 1033 l 299 1033 z "},"¹":{"ha":583,"x_min":94,"x_max":482,"o":"m 108 432 q 129 501 108 481 q 178 521 150 521 l 247 521 l 247 811 q 191 781 224 792 q 124 771 158 771 q 103 779 111 771 q 94 799 94 788 l 94 832 q 103 851 94 842 q 124 860 111 860 q 183 874 158 860 q 222 906 207 888 q 244 942 238 924 q 251 971 251 961 l 251 1033 l 304 1033 q 361 978 361 1033 q 357 948 361 965 q 344 915 353 931 l 344 521 l 482 521 q 460 452 482 472 q 413 432 439 432 l 108 432 z "},"¼":{"ha":1357,"x_min":206,"x_max":1306,"o":"m 650 83 q 633 42 642 58 q 613 17 625 26 q 585 3 601 7 q 543 0 568 0 l 531 0 l 846 903 q 865 947 856 931 q 887 972 875 964 q 915 983 899 981 q 953 986 931 986 l 965 986 l 650 83 m 219 399 q 240 467 219 447 q 289 488 261 488 l 358 488 l 358 778 q 302 748 335 758 q 235 738 269 738 q 214 746 222 738 q 206 765 206 754 l 206 799 q 214 817 206 808 q 235 826 222 826 q 294 840 269 826 q 333 872 318 854 q 356 909 349 890 q 363 938 363 928 l 363 1000 l 415 1000 q 472 944 472 1000 q 468 915 472 932 q 456 882 464 897 l 456 488 l 593 488 q 572 419 593 439 q 524 399 550 399 l 219 399 m 958 610 q 1023 603 1003 610 q 1043 568 1043 596 q 1043 557 1043 563 q 1042 546 1043 551 q 1024 472 1032 507 q 1006 401 1015 438 q 986 324 997 365 q 961 232 975 283 l 1136 232 l 1136 435 q 1144 456 1136 447 q 1164 464 1153 464 l 1206 464 q 1224 456 1215 464 q 1233 435 1233 447 l 1233 232 l 1281 232 q 1297 225 1289 232 q 1306 207 1306 218 l 1306 168 q 1297 149 1306 157 q 1281 142 1289 142 l 1233 142 l 1233 0 l 1199 0 q 1156 11 1175 0 q 1136 61 1136 22 l 1136 142 l 935 142 q 887 161 907 142 q 867 222 867 181 l 958 610 z "},"½":{"ha":1357,"x_min":206,"x_max":1290,"o":"m 650 83 q 633 42 642 58 q 613 17 625 26 q 585 3 601 7 q 543 0 568 0 l 531 0 l 846 903 q 865 947 856 931 q 887 972 875 964 q 915 983 899 981 q 953 986 931 986 l 965 986 l 650 83 m 219 399 q 240 467 219 447 q 289 488 261 488 l 358 488 l 358 778 q 302 748 335 758 q 235 738 269 738 q 214 746 222 738 q 206 765 206 754 l 206 799 q 214 817 206 808 q 235 826 222 826 q 294 840 269 826 q 333 872 318 854 q 356 909 349 890 q 363 938 363 928 l 363 1000 l 415 1000 q 472 944 472 1000 q 468 915 472 932 q 456 882 464 897 l 456 488 l 593 488 q 572 419 593 439 q 524 399 550 399 l 219 399 m 1097 601 q 1177 597 1144 601 q 1229 577 1210 592 q 1257 537 1249 563 q 1265 468 1265 511 q 1242 374 1265 424 q 1184 274 1219 325 q 1106 176 1149 224 q 1026 89 1064 128 l 1290 89 q 1269 20 1290 40 q 1221 0 1247 0 l 868 0 q 886 69 868 51 l 953 140 q 1031 226 993 183 q 1100 311 1069 269 q 1149 392 1131 353 q 1168 468 1168 432 q 1153 505 1168 497 q 1097 513 1138 513 l 950 513 q 932 515 942 513 q 915 523 922 517 q 903 542 908 529 q 899 574 899 554 l 899 601 l 1097 601 z "},"¾":{"ha":1357,"x_min":206,"x_max":1306,"o":"m 650 83 q 633 42 642 58 q 613 17 625 26 q 585 3 601 7 q 543 0 568 0 l 531 0 l 846 903 q 865 947 856 931 q 887 972 875 964 q 915 983 899 981 q 953 986 931 986 l 965 986 l 650 83 m 410 1000 q 489 995 457 1000 q 541 978 521 990 q 569 942 561 965 q 578 883 578 919 q 574 853 578 871 q 561 817 569 836 q 539 782 553 799 q 504 756 525 765 q 572 734 550 754 q 593 679 593 714 l 593 671 q 523 464 593 529 q 292 399 453 399 q 247 407 264 399 q 222 428 231 415 q 209 456 213 440 q 206 488 206 472 l 292 488 q 384 496 346 488 q 447 525 422 504 q 483 582 471 546 q 496 675 494 618 l 340 675 q 298 685 317 675 q 279 725 279 694 l 279 756 l 379 756 q 424 771 406 756 q 456 807 443 786 q 474 849 468 828 q 479 883 479 871 q 465 906 479 901 q 410 911 450 911 l 274 911 q 256 913 265 911 q 239 922 246 915 q 227 940 232 928 q 222 972 222 953 l 222 1000 l 410 1000 m 958 610 q 1023 603 1003 610 q 1043 568 1043 596 q 1043 557 1043 563 q 1042 546 1043 551 q 1024 472 1032 507 q 1006 401 1015 438 q 986 324 997 365 q 961 232 975 283 l 1136 232 l 1136 435 q 1144 456 1136 447 q 1164 464 1153 464 l 1206 464 q 1224 456 1215 464 q 1233 435 1233 447 l 1233 232 l 1281 232 q 1297 225 1289 232 q 1306 207 1306 218 l 1306 168 q 1297 149 1306 157 q 1281 142 1289 142 l 1233 142 l 1233 0 l 1199 0 q 1156 11 1175 0 q 1136 61 1136 22 l 1136 142 l 935 142 q 887 161 907 142 q 867 222 867 181 l 958 610 z "},"‰":{"ha":1943,"x_min":278,"x_max":1874,"o":"m 719 83 q 703 42 711 58 q 683 17 694 26 q 654 3 671 7 q 613 0 638 0 l 600 0 l 915 903 q 935 947 925 931 q 956 972 944 964 q 984 983 968 981 q 1022 986 1000 986 l 1035 986 l 719 83 m 619 1008 q 681 985 667 1008 q 696 928 696 961 l 696 767 q 681 601 696 671 q 627 486 665 531 q 522 420 589 442 q 354 399 456 399 q 292 422 306 399 q 278 479 278 446 l 278 640 q 292 806 278 736 q 346 921 307 876 q 451 987 385 965 q 619 1008 517 1008 m 599 919 q 481 902 525 918 q 414 852 438 886 q 383 766 390 818 q 375 640 375 714 l 375 488 q 491 505 447 489 q 559 555 535 521 q 591 641 583 589 q 599 767 599 693 l 599 919 m 1282 610 q 1344 586 1329 610 q 1358 529 1358 563 l 1358 368 q 1343 202 1358 272 q 1290 88 1328 132 q 1185 22 1251 43 q 1017 0 1118 0 q 954 24 968 0 q 940 81 940 47 l 940 242 q 955 408 940 338 q 1008 522 969 478 q 1113 588 1047 567 q 1282 610 1179 610 m 1261 521 q 1144 503 1188 519 q 1076 453 1100 488 q 1045 367 1053 419 q 1038 242 1038 315 l 1038 89 q 1153 106 1110 90 q 1222 156 1197 122 q 1253 242 1246 190 q 1261 368 1261 294 l 1261 521 m 1797 610 q 1859 586 1844 610 q 1874 529 1874 563 l 1874 368 q 1858 202 1874 272 q 1805 88 1843 132 q 1700 22 1767 43 q 1532 0 1633 0 q 1469 24 1483 0 q 1456 81 1456 47 l 1456 242 q 1470 408 1456 338 q 1524 522 1485 478 q 1628 588 1563 567 q 1797 610 1694 610 m 1776 521 q 1659 503 1703 519 q 1592 453 1615 488 q 1560 367 1568 419 q 1553 242 1553 315 l 1553 89 q 1669 106 1625 90 q 1737 156 1713 122 q 1769 242 1761 190 q 1776 368 1776 294 l 1776 521 z "},"£":{"ha":833,"x_min":88,"x_max":800,"o":"m 343 397 l 343 111 l 800 111 q 769 25 800 50 q 703 0 739 0 l 121 0 q 151 86 121 61 q 218 111 182 111 l 218 397 l 88 397 q 101 469 88 444 q 163 494 115 494 l 218 494 l 218 514 q 239 747 218 656 q 305 891 260 838 q 420 965 350 944 q 589 986 490 986 l 667 986 q 728 963 714 986 q 742 911 742 939 l 742 875 l 589 875 q 477 865 524 875 q 401 817 431 854 q 357 708 371 781 q 343 514 343 636 l 343 494 l 599 494 q 584 422 599 447 q 524 397 569 397 l 343 397 z "},"¥":{"ha":833,"x_min":75,"x_max":758,"o":"m 479 175 l 479 0 l 439 0 q 408 3 424 0 q 381 16 393 7 q 362 41 369 25 q 354 83 354 57 l 354 175 l 161 175 q 175 247 161 222 q 236 272 189 272 l 354 272 l 354 383 l 346 396 l 161 396 q 175 468 161 443 q 236 493 189 493 l 301 493 l 75 978 q 123 994 101 989 q 158 1000 144 1000 q 190 990 174 1000 q 215 961 207 981 l 417 514 l 618 961 q 643 990 626 981 q 675 1000 660 1000 q 710 994 689 1000 q 758 978 732 989 l 532 493 l 672 493 q 658 421 672 446 q 597 396 643 396 l 486 396 q 479 383 483 388 l 479 272 l 672 272 q 658 200 672 225 q 597 175 643 175 l 479 175 z "},"ƒ":{"ha":833,"x_min":58,"x_max":775,"o":"m 451 444 l 451 181 q 433 -52 451 39 q 376 -197 415 -143 q 278 -271 338 -250 q 136 -292 219 -292 q 75 -269 92 -292 q 58 -196 58 -247 l 58 -181 l 136 -181 q 222 -170 186 -181 q 281 -123 257 -160 q 315 -15 304 -86 q 326 181 326 57 l 326 444 l 147 444 q 161 517 147 492 q 222 542 175 542 l 326 542 q 349 767 328 678 q 415 908 371 856 q 530 980 460 960 q 697 1000 600 1000 q 758 978 742 1000 q 775 904 775 956 l 775 889 l 697 889 q 587 878 633 889 q 510 833 540 868 q 466 728 481 797 q 451 542 451 660 l 658 542 q 644 469 658 494 q 583 444 629 444 l 451 444 z "},"ª":{"ha":686,"x_min":139,"x_max":547,"o":"m 235 581 q 299 605 264 585 q 363 663 333 625 q 414 758 393 701 q 435 890 435 814 l 435 992 l 475 992 q 547 906 547 992 q 542 863 547 885 q 531 824 538 842 l 531 494 l 494 494 q 453 506 471 494 q 435 556 435 517 l 435 632 q 333 528 390 565 q 224 490 276 490 q 156 515 174 490 q 139 575 139 539 l 139 811 q 183 954 139 908 q 333 1000 226 1000 q 375 983 364 1000 q 386 931 386 967 l 386 911 l 333 911 q 258 892 282 911 q 235 811 235 874 l 235 581 z "},"º":{"ha":679,"x_min":139,"x_max":540,"o":"m 235 579 q 326 592 288 581 q 392 629 365 604 q 431 694 418 654 q 443 793 443 735 l 443 1000 q 522 976 503 1000 q 540 915 540 951 l 540 793 q 463 565 540 640 q 224 490 386 490 q 154 515 169 490 q 139 575 139 539 l 139 811 q 183 954 139 908 q 333 1000 226 1000 q 378 983 361 1000 q 394 931 394 967 l 394 911 l 333 911 q 258 892 282 911 q 235 811 235 874 l 235 579 z "},"©":{"ha":1076,"x_min":278,"x_max":1076,"o":"m 860 893 q 856 849 860 869 q 842 815 853 829 q 810 792 831 800 q 758 783 790 783 l 758 911 q 676 899 710 910 q 619 863 642 888 q 585 797 596 838 q 575 696 575 756 q 577 641 575 664 q 590 603 579 618 q 621 582 600 589 q 678 575 642 575 l 860 575 q 838 508 860 524 q 792 493 817 493 l 678 493 q 567 505 607 493 q 506 542 526 517 q 481 605 486 567 q 476 696 476 643 q 547 925 476 850 q 754 1000 617 1000 q 839 970 818 1000 q 860 893 860 940 m 361 403 q 675 413 553 403 q 868 462 797 424 q 966 577 939 500 q 993 788 993 654 l 993 1056 q 679 1047 801 1056 q 486 1003 557 1039 q 388 892 415 967 q 361 683 361 817 l 361 403 m 1076 788 q 1045 540 1076 633 q 934 399 1014 447 q 715 335 854 350 q 361 319 576 319 q 299 338 321 319 q 278 403 278 357 l 278 683 q 309 931 278 838 q 420 1072 340 1024 q 639 1136 500 1121 q 993 1151 778 1151 q 1055 1133 1033 1151 q 1076 1068 1076 1114 l 1076 788 z "},"&":{"ha":963,"x_min":213,"x_max":1226,"o":"m 1226 97 q 1218 48 1226 67 q 1196 19 1210 29 q 1165 4 1182 8 q 1129 0 1147 0 l 338 0 q 288 3 311 0 q 249 19 265 7 q 222 53 232 31 q 213 111 213 75 q 227 219 213 163 q 268 331 242 275 q 332 437 294 386 q 415 528 369 488 q 400 646 400 593 q 426 781 400 717 q 506 894 451 846 q 644 972 560 943 q 847 1000 729 1000 q 908 976 894 1000 q 922 925 922 953 l 922 889 l 847 889 q 692 869 756 889 q 590 818 629 850 q 532 742 550 786 q 514 651 514 699 q 530 537 514 599 q 578 413 546 475 q 660 294 611 351 q 775 194 710 238 q 922 124 840 150 q 1101 97 1003 97 l 1226 97 m 733 97 q 564 235 635 150 q 453 414 493 321 q 356 262 389 347 q 324 97 324 176 l 733 97 z "},"™":{"ha":1665,"x_min":278,"x_max":1514,"o":"m 817 493 q 794 495 806 493 q 774 504 783 497 q 738 579 738 522 q 754 657 738 617 l 754 1067 q 763 1086 754 1078 q 783 1094 771 1094 l 824 1094 q 844 1086 836 1094 q 853 1067 853 1078 l 853 853 q 910 950 879 904 q 972 1030 940 996 q 1036 1083 1004 1064 q 1097 1103 1068 1103 q 1165 1078 1147 1103 q 1183 1017 1183 1053 l 1183 853 q 1240 950 1210 904 q 1303 1030 1271 996 q 1367 1083 1335 1064 q 1428 1103 1399 1103 q 1496 1078 1478 1103 q 1514 1017 1514 1053 l 1514 521 q 1506 501 1514 510 q 1485 493 1497 493 l 1444 493 q 1424 501 1432 493 q 1415 521 1415 510 l 1415 1013 q 1347 957 1388 1001 q 1271 847 1307 913 q 1209 703 1235 782 q 1183 544 1183 624 l 1183 493 l 1146 493 q 1101 506 1118 493 q 1069 579 1069 524 q 1085 654 1069 613 l 1085 1013 q 1018 959 1057 1001 q 944 854 979 917 q 882 715 908 792 q 853 560 856 638 l 853 493 l 817 493 m 510 493 q 467 504 488 493 q 447 554 447 515 l 447 1011 l 335 1011 q 288 1028 299 1011 q 278 1067 278 1046 l 278 1094 l 657 1094 q 709 1074 697 1094 q 721 1031 721 1054 l 721 1011 l 546 1011 l 546 493 l 510 493 z "},"@":{"ha":1338,"x_min":264,"x_max":1653,"o":"m 990 310 q 1041 313 1015 310 q 1088 335 1067 317 q 1124 393 1110 354 q 1138 501 1138 432 l 1138 936 q 860 931 978 936 q 660 910 743 926 q 524 863 576 894 q 441 777 471 831 q 400 645 411 724 q 389 456 389 567 l 389 97 l 1653 97 q 1644 48 1653 67 q 1622 19 1636 29 q 1591 4 1608 8 q 1556 0 1574 0 l 368 0 q 290 23 317 0 q 264 104 264 46 l 264 456 q 281 678 264 585 q 337 836 297 771 q 442 941 376 901 q 608 1003 508 981 q 843 1033 707 1025 q 1158 1040 979 1040 q 1236 1017 1210 1040 q 1263 936 1263 994 l 1263 501 q 1238 361 1263 417 q 1175 272 1214 306 q 1088 225 1136 239 q 990 211 1039 211 l 953 211 q 926 214 939 211 q 902 225 913 217 q 885 248 892 233 q 879 286 879 263 l 879 381 q 751 251 824 297 q 613 206 678 206 q 530 235 551 206 q 508 310 508 265 l 508 574 q 521 677 508 633 q 562 749 533 721 q 636 792 590 778 q 747 806 682 806 q 799 785 785 806 q 813 719 813 765 l 813 696 l 740 696 q 686 691 708 696 q 649 673 664 686 q 626 635 633 660 q 619 574 619 611 l 619 310 q 699 337 654 315 q 785 401 744 358 q 852 510 825 444 q 879 671 879 576 l 879 796 l 922 796 q 1011 689 1011 796 q 1006 638 1011 664 q 990 589 1000 611 l 990 310 z "},"¯":{"ha":681,"x_min":236,"x_max":681,"o":"m 311 903 q 250 926 264 903 q 236 978 236 950 l 236 1014 l 597 1014 q 640 1006 624 1014 q 665 987 656 999 q 677 960 674 975 q 681 929 681 944 l 681 903 l 311 903 z "},"≈":{"ha":639,"x_min":181,"x_max":681,"o":"m 681 547 q 627 568 653 563 q 574 574 601 574 q 501 565 538 574 q 428 547 464 557 q 355 528 392 536 q 281 519 318 519 q 228 526 247 519 q 198 543 208 532 q 184 571 188 554 q 181 608 181 588 l 181 653 q 234 632 208 638 q 288 626 260 626 q 360 635 324 626 q 433 653 396 643 q 506 672 469 664 q 581 681 543 681 q 633 674 614 681 q 663 657 653 668 q 677 629 674 646 q 681 592 681 613 l 681 547 m 681 282 q 627 303 653 297 q 574 308 601 308 q 501 300 538 308 q 428 281 464 292 q 355 263 392 271 q 281 254 318 254 q 228 260 247 254 q 198 278 208 267 q 184 306 188 289 q 181 343 181 322 l 181 388 q 234 367 208 372 q 288 361 260 361 q 360 369 324 361 q 433 388 396 378 q 506 407 469 399 q 581 415 543 415 q 633 409 614 415 q 663 392 653 403 q 677 364 674 381 q 681 326 681 347 l 681 282 z "},"~":{"ha":639,"x_min":181,"x_max":681,"o":"m 681 414 q 627 435 653 429 q 574 440 601 440 q 501 432 538 440 q 428 413 464 424 q 355 394 392 403 q 281 386 318 386 q 228 392 247 386 q 198 410 208 399 q 184 438 188 421 q 181 475 181 454 l 181 519 q 234 499 208 504 q 288 493 260 493 q 360 501 324 493 q 433 520 396 510 q 506 539 469 531 q 581 547 543 547 q 633 541 614 547 q 663 524 653 535 q 677 496 674 513 q 681 458 681 479 l 681 414 z "},"^":{"ha":639,"x_min":204,"x_max":660,"o":"m 324 668 q 306 650 317 657 q 281 643 296 643 q 204 665 254 643 l 368 960 q 394 989 379 978 q 432 1000 408 1000 q 470 989 456 1000 q 496 960 485 978 l 660 665 q 583 643 610 643 q 558 650 568 643 q 540 668 547 657 l 432 857 l 324 668 z "},"†":{"ha":903,"x_min":278,"x_max":903,"o":"m 653 751 l 819 751 q 862 744 846 751 q 887 724 878 736 q 899 697 896 713 q 903 667 903 682 l 903 640 l 653 640 l 653 -139 l 613 -139 q 582 -135 597 -139 q 555 -123 567 -132 q 535 -98 543 -114 q 528 -56 528 -82 l 528 640 l 353 640 q 292 664 306 640 q 278 715 278 688 l 278 751 l 528 751 l 528 1000 l 568 1000 q 599 997 583 1000 q 626 984 614 993 q 645 959 638 975 q 653 917 653 943 l 653 751 z "},"‡":{"ha":903,"x_min":278,"x_max":903,"o":"m 653 751 l 819 751 q 862 744 846 751 q 887 724 878 736 q 899 697 896 713 q 903 667 903 682 l 903 640 l 653 640 l 653 221 l 828 221 q 889 197 875 221 q 903 146 903 174 l 903 110 l 653 110 l 653 -139 l 613 -139 q 582 -135 597 -139 q 555 -123 567 -132 q 535 -98 543 -114 q 528 -56 528 -82 l 528 110 l 361 110 q 319 117 335 110 q 294 137 303 125 q 281 164 285 149 q 278 194 278 179 l 278 221 l 528 221 l 528 640 l 353 640 q 292 664 306 640 q 278 715 278 688 l 278 751 l 528 751 l 528 1000 l 568 1000 q 599 997 583 1000 q 626 984 614 993 q 645 959 638 975 q 653 917 653 943 l 653 751 z "},"¶":{"ha":1078,"x_min":164,"x_max":897,"o":"m 661 0 l 621 0 q 590 3 606 0 q 563 16 575 7 q 544 41 551 25 q 536 83 536 57 l 536 357 q 476 353 508 353 q 358 372 414 353 q 258 433 301 392 q 190 540 215 475 q 164 694 164 604 q 178 815 164 761 q 223 907 192 869 q 306 965 254 944 q 433 986 358 986 l 829 986 q 853 983 842 986 q 875 970 865 979 q 891 945 885 961 q 897 903 897 929 l 897 875 l 433 875 q 322 826 353 875 q 290 694 290 776 q 344 517 290 575 q 476 458 397 458 q 536 464 508 458 l 536 686 l 585 686 q 689 560 689 686 q 681 488 689 522 q 661 421 674 453 l 661 0 m 897 -278 l 857 -278 q 826 -274 842 -278 q 799 -262 811 -271 q 780 -237 788 -253 q 772 -194 772 -221 l 772 658 q 781 678 772 669 q 800 686 789 686 l 868 686 q 888 678 879 686 q 897 658 896 669 l 897 -278 z "},"∫":{"ha":661,"x_min":0,"x_max":661,"o":"m 379 125 q 353 -108 371 -17 q 303 -252 336 -199 q 215 -326 269 -306 q 78 -347 161 -347 q 17 -325 33 -347 q 0 -251 0 -303 l 0 -236 l 78 -236 q 158 -226 128 -236 q 208 -178 189 -215 q 237 -70 226 -142 q 254 125 247 1 l 282 583 q 308 816 290 725 q 358 960 325 907 q 446 1035 392 1014 q 583 1056 500 1056 q 644 1033 628 1056 q 661 960 661 1011 l 661 944 l 583 944 q 503 934 533 944 q 453 887 472 924 q 424 778 435 850 q 407 583 414 706 l 379 125 z "},"∑":{"ha":963,"x_min":118,"x_max":868,"o":"m 738 482 q 728 449 738 463 q 706 428 719 436 q 673 416 692 419 q 636 413 654 413 q 571 419 607 413 q 513 433 535 425 q 372 345 426 401 q 285 228 317 289 q 242 110 254 167 q 229 19 229 53 l 868 19 l 868 6 q 847 -69 868 -47 q 786 -92 825 -92 l 243 -92 q 194 -88 217 -92 q 154 -73 171 -85 q 128 -39 138 -61 q 118 19 118 -17 q 134 125 118 63 q 182 253 150 188 q 264 381 214 319 q 381 482 314 442 q 264 583 314 522 q 182 710 214 644 q 134 838 150 775 q 118 944 118 900 q 128 1003 118 981 q 154 1037 138 1025 q 194 1052 171 1049 q 243 1056 217 1056 l 758 1056 q 819 1033 797 1056 q 840 958 840 1011 l 840 944 l 229 944 q 242 854 229 911 q 285 736 254 797 q 372 619 317 675 q 513 531 426 563 q 571 545 535 539 q 636 551 607 551 q 706 536 674 551 q 738 482 738 521 z "},"Ω":{"ha":1150,"x_min":69,"x_max":1081,"o":"m 575 875 q 424 849 486 875 q 322 763 361 822 q 263 609 282 704 q 244 375 244 514 l 393 375 q 451 363 425 375 q 478 310 478 350 l 478 304 q 468 181 478 236 q 430 85 458 125 q 350 22 401 44 q 215 0 299 0 l 151 0 q 91 22 113 0 q 69 97 69 44 l 69 111 l 211 111 q 287 120 258 111 q 330 149 315 129 q 349 201 344 169 q 353 278 353 233 l 244 278 q 181 285 206 278 q 143 308 157 293 q 124 342 129 322 q 119 389 119 363 q 151 658 119 546 q 240 844 182 771 q 383 951 299 917 q 575 986 468 986 q 767 951 682 986 q 910 844 851 917 q 999 658 968 771 q 1031 389 1031 546 q 1026 342 1031 363 q 1007 308 1021 322 q 969 285 993 293 q 906 278 944 278 l 797 278 q 801 201 797 233 q 820 149 806 169 q 863 120 835 129 q 939 111 892 111 l 1081 111 l 1081 97 q 1059 22 1081 44 q 999 0 1038 0 l 935 0 q 800 22 851 0 q 720 85 749 44 q 682 181 692 125 q 672 304 672 236 l 672 310 q 699 363 672 350 q 757 375 725 375 l 906 375 q 887 609 906 514 q 828 763 868 704 q 726 849 789 822 q 575 875 664 875 z "},"∏":{"ha":1026,"x_min":97,"x_max":929,"o":"m 847 1056 q 908 1033 886 1056 q 929 958 929 1011 l 929 944 l 789 944 l 789 -92 l 749 -92 q 718 -88 733 -92 q 691 -76 703 -85 q 672 -51 679 -67 q 664 -8 664 -35 l 664 944 l 361 944 l 361 -92 l 321 -92 q 290 -88 306 -92 q 263 -76 275 -85 q 244 -51 251 -67 q 236 -8 236 -35 l 236 944 l 179 944 q 119 967 140 944 q 97 1042 97 989 l 97 1056 l 847 1056 z "},"π":{"ha":985,"x_min":97,"x_max":888,"o":"m 806 749 q 866 726 844 749 q 888 651 888 704 l 888 638 l 747 638 l 747 0 l 707 0 q 676 3 692 0 q 649 16 661 7 q 630 41 638 25 q 622 83 622 57 l 622 638 l 361 638 l 361 0 l 321 0 q 290 3 306 0 q 263 16 275 7 q 244 41 251 25 q 236 83 236 57 l 236 638 l 179 638 q 119 660 140 638 q 97 735 97 682 l 97 749 l 806 749 z "},"˛":{"ha":888,"x_min":451,"x_max":832,"o":"m 713 0 q 611 -29 650 0 q 572 -112 572 -58 q 602 -192 572 -164 q 690 -219 632 -219 q 754 -210 719 -219 q 826 -179 789 -201 q 832 -225 832 -201 q 787 -307 832 -283 q 663 -331 742 -331 q 563 -312 603 -331 q 497 -265 522 -293 q 462 -202 472 -236 q 451 -136 451 -168 q 463 -71 451 -104 q 503 -10 474 -37 q 583 34 532 17 q 713 51 633 51 l 713 0 z "},"√":{"ha":1024,"x_min":138,"x_max":1024,"o":"m 942 1111 q 1002 1089 981 1111 q 1024 1014 1024 1067 l 1024 1000 l 724 1000 q 736 732 736 854 q 704 395 736 536 q 615 163 672 254 q 481 29 558 72 q 310 -14 403 -14 q 246 -4 271 -14 q 206 23 221 6 q 183 63 190 40 q 175 111 176 86 l 138 542 q 144 561 138 553 q 164 569 150 569 l 233 569 q 253 561 244 569 q 263 542 261 553 l 301 90 q 435 125 376 90 q 535 233 494 160 q 598 423 576 307 q 619 700 619 539 q 613 905 619 803 q 597 1111 607 1007 l 942 1111 z "},"§":{"ha":858,"x_min":111,"x_max":747,"o":"m 200 85 q 163 88 179 85 q 134 103 146 92 q 117 138 122 115 q 111 196 111 160 q 122 283 111 239 q 157 369 132 328 q 222 449 182 411 q 319 514 261 486 l 232 514 q 192 517 211 514 q 160 530 174 519 q 138 561 146 540 q 129 618 129 582 q 151 774 129 694 q 232 920 174 854 q 391 1028 290 986 q 650 1071 492 1071 q 698 1055 676 1071 q 719 988 719 1039 l 719 960 l 638 960 q 483 942 547 960 q 377 894 419 924 q 310 828 335 865 q 273 751 285 790 q 258 673 261 711 q 254 604 254 635 l 658 604 q 696 601 679 604 q 724 585 713 597 q 742 551 736 574 q 747 493 747 529 q 737 405 747 450 q 701 318 726 360 q 636 240 676 276 q 536 175 596 203 l 626 175 q 666 172 647 175 q 699 159 685 169 q 721 128 713 149 q 729 71 729 107 q 707 -85 729 -6 q 626 -231 685 -165 q 467 -340 568 -297 q 208 -382 367 -382 q 183 -378 196 -382 q 161 -366 171 -375 q 145 -341 151 -357 q 139 -299 139 -325 l 139 -271 l 221 -271 q 375 -253 311 -271 q 481 -206 439 -235 q 549 -139 524 -176 q 585 -62 574 -101 q 601 16 597 -22 q 604 85 604 54 l 200 85 m 217 178 q 435 215 353 181 q 564 300 518 250 q 625 407 610 350 q 642 510 640 464 q 422 472 506 507 q 294 388 339 438 q 233 281 249 338 q 217 178 217 224 z "},"∞":{"ha":1275,"x_min":69,"x_max":1206,"o":"m 1206 508 q 1202 486 1206 497 q 1188 463 1199 475 l 1069 326 q 976 237 1019 268 q 892 206 932 206 q 808 237 851 206 q 714 326 764 268 l 638 414 l 561 326 q 467 237 511 268 q 383 206 424 206 q 299 237 343 206 q 206 326 256 268 l 88 463 q 73 486 76 475 q 69 508 69 497 q 88 554 69 532 l 206 690 q 299 780 256 749 q 383 811 343 811 q 468 780 424 811 q 561 690 513 749 l 638 601 l 714 690 q 807 780 763 749 q 892 811 851 811 q 976 780 932 811 q 1069 690 1019 749 l 1188 554 q 1202 531 1199 542 q 1206 508 1206 519 m 786 413 q 844 353 817 375 q 892 332 871 332 q 939 353 913 332 q 997 413 965 375 l 1075 507 l 997 604 q 939 663 967 642 q 892 685 911 685 q 844 663 871 685 q 786 604 817 642 l 708 507 l 786 413 m 278 413 q 335 353 308 375 q 383 332 363 332 q 431 353 404 332 q 489 413 457 375 l 567 507 l 489 604 q 431 663 458 642 q 383 685 403 685 q 335 663 363 685 q 278 604 308 642 l 200 507 l 278 413 z "},"n":{"ha":1094,"x_min":236,"x_max":1358,"o":"m 349 0 q 263 30 290 0 q 236 126 236 60 q 244 199 236 164 q 265 265 251 233 l 265 722 q 274 742 265 733 q 293 750 282 750 l 363 750 q 382 742 374 750 q 390 722 390 733 l 390 472 q 477 597 429 540 q 578 694 525 654 q 685 756 631 733 q 789 778 739 778 q 849 768 825 778 q 888 742 874 758 q 908 702 903 725 q 914 653 914 679 l 914 97 l 1358 97 q 1350 48 1358 67 q 1328 19 1342 29 q 1297 4 1314 8 q 1261 0 1279 0 l 872 0 q 842 3 857 0 q 815 16 826 7 q 796 41 803 25 q 789 83 789 57 l 789 667 q 671 631 739 667 q 540 522 603 594 q 434 342 478 450 q 390 88 390 233 l 390 0 l 349 0 z "},"j":{"ha":571,"x_min":-60,"x_max":835,"o":"m 264 722 q 272 742 264 733 q 292 750 281 750 l 360 750 q 379 742 371 750 q 389 722 388 733 l 389 97 l 835 97 q 826 48 835 67 q 804 19 818 29 q 773 4 790 8 q 738 0 756 0 l 388 0 q 362 -211 385 -128 q 294 -343 339 -294 q 181 -411 250 -392 q 18 -431 113 -431 q -43 -408 -26 -431 q -60 -335 -60 -386 l -60 -319 l 18 -319 q 130 -309 83 -319 q 206 -262 176 -299 q 250 -153 236 -225 q 264 42 264 -82 l 264 722 m 242 978 q 258 1038 242 1013 q 326 1064 275 1064 q 394 1038 376 1064 q 413 978 413 1013 q 394 917 413 942 q 326 893 376 893 q 258 917 275 893 q 242 978 242 942 z "},"l":{"ha":571,"x_min":264,"x_max":835,"o":"m 389 97 l 835 97 q 826 48 835 67 q 804 19 818 29 q 773 4 790 8 q 738 0 756 0 l 349 0 q 318 3 333 0 q 291 16 303 7 q 272 41 279 25 q 264 83 264 57 l 264 1056 l 288 1056 q 399 1030 365 1056 q 433 938 433 1004 q 421 772 433 864 q 389 586 408 681 l 389 97 z "}}}
